<svg xmlns="http://www.w3.org/2000/svg" width="7.47in" height="1.48in" viewBox="0 0 538 106.76">
  <defs>
    <style>
      .cls-1 {
        fill: #002d74;
      }

      .cls-2 {
        fill: #98989a;
      }
    </style>
  </defs>
  <g id="Base">
    <g>
      <path class="cls-1" d="M139.61,48.1h31.7v6.08H159.22V93.52h-7.45V54.18H139.61Z"/>
      <path class="cls-1" d="M194.31,94.11c-10.33,0-18-7.32-18-18.63s7.32-18.56,18-18.56c10.26,0,17.51,7.13,17.51,17.71a22.45,22.45,0,0,1-.26,3.66H184.05c.52,5.95,4.77,9.55,10.26,9.55,4.57,0,7.12-2.23,8.49-5h8C208.82,89.08,203.13,94.11,194.31,94.11Zm-10.2-21.83h19.94c-.13-5.55-4.51-9.08-10.07-9.08C189,63.2,184.9,66.6,184.11,72.28Z"/>
      <path class="cls-1" d="M220.31,63.59h-4.24V57.51h4.24V48.56h7.52v8.95h8.76v6.08h-8.76V83.52c0,2.68,1,3.79,4.18,3.79h4.58v6.21h-5.88c-6.41,0-10.4-2.68-10.4-10Z"/>
      <path class="cls-1" d="M259.07,94.11c-10.26,0-18-7.32-18-18.63s8.1-18.56,18.36-18.56,18.37,7.26,18.37,18.56S269.39,94.11,259.07,94.11Zm0-6.47c5.55,0,11-4,11-12.16s-5.29-12.09-10.85-12.09-10.65,3.92-10.65,12.09S253.45,87.64,259.07,87.64Z"/>
      <path class="cls-1" d="M310.69,73.39c0-6.6-3.59-10-9-10s-9.08,3.4-9.08,10V93.52h-7.45v-36h7.45v4.12a13.86,13.86,0,0,1,10.72-4.71c8.43,0,14.77,5.3,14.77,15.36V93.52h-7.39Z"/>
      <path class="cls-1" d="M345.72,93.52H327.55V48.1h17.32c9.61,0,14.7,5.29,14.7,11.7,0,5.49-3.33,8.82-7.71,10.39,4.84.85,8.76,5.69,8.76,11.11C360.62,88.23,355,93.52,345.72,93.52Zm-1.51-39.34H335v13h9.21c4.84,0,7.78-2.28,7.78-6.47S349.05,54.18,344.21,54.18Zm.59,19.08H335V87.44h10.06c5,0,8.11-2.55,8.11-6.92S349.77,73.26,344.8,73.26Z"/>
      <path class="cls-1" d="M368.72,45.16h7.45V93.52h-7.45Z"/>
      <path class="cls-1" d="M401.59,94.11c-10.26,0-18-7.32-18-18.63s8.1-18.56,18.36-18.56,18.37,7.26,18.37,18.56S411.91,94.11,401.59,94.11Zm0-6.47c5.55,0,11-4,11-12.16s-5.29-12.09-10.85-12.09-10.65,3.92-10.65,12.09S396,87.64,401.59,87.64Z"/>
      <path class="cls-1" d="M442.82,56.92c8.82,0,14.58,4.38,16.6,12h-8c-1.24-3.46-4.11-5.68-8.56-5.68-6,0-10,4.44-10,12.28s4,12.36,10,12.36c4.45,0,7.19-2,8.56-5.69h8c-2,7.06-7.78,12-16.6,12-10.32,0-17.64-7.32-17.64-18.63S432.5,56.92,442.82,56.92Z"/>
      <path class="cls-1" d="M466.87,45.16h7.45v28.1l13.07-15.75h10.33l-16.6,18,16.6,18H487.65L474.32,78V93.52h-7.45Z"/>
      <path class="cls-1" d="M516.14,94.11c-8.63,0-14.7-5.1-15-11.63h7.71c.26,2.94,3.07,5.36,7.19,5.36,4.31,0,6.6-1.83,6.6-4.32,0-7.06-20.91-3-20.91-16.21,0-5.75,5.36-10.39,13.85-10.39,8.17,0,13.53,4.38,13.92,11.57H522c-.26-3.14-2.68-5.29-6.73-5.29s-6.08,1.63-6.08,4c0,7.25,20.33,3.2,20.72,16.21C529.93,89.54,524.64,94.11,516.14,94.11Z"/>
    </g>
  </g>
  <g id="Bison">
    <path id="Blue" class="cls-1" d="M133.33,32.28l-1.14-9.52-1.58-1.36a2.62,2.62,0,0,0,0-.28,4.65,4.65,0,0,0-9.29,0,4.6,4.6,0,0,0,.4,1.88l-9.3-1.22-.33-.5v-.16a4.63,4.63,0,0,0-3-4.34l-1.36-2L96.65,10.37l-5.11,1.7L75.25,10.5,55.6,15.16l-10,.93-16.49,4-4.37,2.87-.47.2-7.17,2.69-.27.42L11.92,32l-1.2,6.57L9.2,41h0a3.71,3.71,0,0,0-.93.12A3.64,3.64,0,0,0,6,42.78a3.64,3.64,0,0,0,1.27,5,3.65,3.65,0,0,0,1.3,4.92,3.65,3.65,0,0,0,3.19,5.44A3.71,3.71,0,0,0,12.7,58a3.66,3.66,0,0,0,2.6-4.46,3.35,3.35,0,0,0-.19-.53l1-1.59,1.69-.4-1.44-6.09,3.19,8.14,0,.42L22,59.53,18.54,64.3l1.51,10.35,3.06,7.49-.28,11H30.9a4.64,4.64,0,0,0,8.53-2.54,4.63,4.63,0,0,0-3-4.35l-2-5.06-.7-3.43a4.63,4.63,0,0,0,.4-7.22l.7-4.88L40,59.08,46.74,64a4.62,4.62,0,0,0,8.34,1.9,4.67,4.67,0,0,0,3.78,2,4.61,4.61,0,0,0,3.77-1.93,4.65,4.65,0,0,0,8.09-1H73.2a4.38,4.38,0,0,0,.33,1.44,4.64,4.64,0,0,0-1,8.74l.36,2.76L77.8,81l-2.09,5.51,3.37,7.79h6.75a4.64,4.64,0,1,0,4.47-7.14l-.83-2A4.65,4.65,0,0,0,91,81.68a4.59,4.59,0,0,0-1.4-3.32L90.7,72.7l6-.89,10.51-13.46.7.66,1.57,1.66v4.25l5.25,7.6,6.44-6.81V62.42l4.4-.52,3.39-5.2-1-4.21.8-2.68-.26-5.61-.64-1.66,1.58-6.08ZM126,20.21a.95.95,0,1,1-1,.95A.95.95,0,0,1,126,20.21Zm-13.78,24a1.68,1.68,0,1,1,1.69-1.68A1.68,1.68,0,0,1,112.25,44.26Zm-3.82-23.1a1,1,0,1,1-1-.95A1,1,0,0,1,108.43,21.16Zm-2.11,24.59a1,1,0,1,1-1-1A1,1,0,0,1,106.32,45.75Zm-4.46,7.13a1,1,0,1,1-1-1A1,1,0,0,1,101.86,52.88Zm-13,38.91a1,1,0,1,1,1,.95A1,1,0,0,1,88.82,91.79ZM86.45,65.6a.95.95,0,1,1,1-.95A.95.95,0,0,1,86.45,65.6Zm0,15.17a1,1,0,1,1-1,1A.95.95,0,0,1,86.45,80.77Zm3-28.71a1,1,0,1,1,1,.95A.95.95,0,0,1,89.45,52.06Zm6.22-4.94a1,1,0,1,1-1,1A.95.95,0,0,1,95.67,47.12Zm-22,23.81a1,1,0,1,1,1,.95A.95.95,0,0,1,73.63,70.93Zm5.35-24a1,1,0,1,1-1,1A1,1,0,0,1,79,46.89Zm-.29-22.64a1,1,0,1,1,1,.95A1,1,0,0,1,78.69,24.25Zm.15,40.4a1,1,0,0,1-1.9,0,1,1,0,0,1,1.9,0Zm-2-24.77a1,1,0,1,1,1-1A1,1,0,0,1,76.87,39.88ZM70.31,25.2a1,1,0,1,1,1-.95A1,1,0,0,1,70.31,25.2Zm0,8.47a1,1,0,1,1-1-1A1,1,0,0,1,70.33,33.67ZM65.51,63.23a1,1,0,1,1,.95,1A1,1,0,0,1,65.51,63.23Zm-7.55,0a1,1,0,1,1,.95,1A1,1,0,0,1,58,63.23Zm-.11-29.56a1,1,0,1,1,.95.95A1,1,0,0,1,57.85,33.67ZM50.42,63.23a1,1,0,1,1,.95,1A1,1,0,0,1,50.42,63.23ZM49.18,33.67a1,1,0,1,1-1-1A.95.95,0,0,1,49.18,33.67ZM45.82,56.26a1,1,0,1,1-1-1A.95.95,0,0,1,45.82,56.26ZM38.66,40.85a.95.95,0,0,1,0,1.9.95.95,0,0,1,0-1.9Zm-1-6.23a1,1,0,1,1,1-.95A.95.95,0,0,1,37.66,34.62Zm-3.77,56a1,1,0,1,1,1,1A1,1,0,0,1,33.89,90.63ZM31,73.07A.95.95,0,0,1,31,75a1,1,0,0,1,0-1.9ZM21.33,37a1,1,0,1,1-.95,1A1,1,0,0,1,21.33,37Zm4.8,5.47a.95.95,0,1,1,.95,1A1,1,0,0,1,26.13,42.51Zm.95-7.89a1,1,0,1,1,1-.95A1,1,0,0,1,27.08,34.62Z"/>
    <g id="White">
      <path class="cls-2" d="M127.71,35.85l3.82-4.11-1-8.07-1.78-1.54a3,3,0,0,0,.16-1A2.92,2.92,0,1,0,125.17,24l.16,2.32-.53.75-1.12.76-1.21-2.91-11-1.45-1.12-1.67a2.88,2.88,0,0,0,.07-.59A2.92,2.92,0,0,0,108,18.31l-1.41-2.12-10-3.94-4.86,1.62L75.38,12.29,55.89,16.91l-10,.93L29.8,21.71,25.54,24.5l-.67.28-6.65,2.5,0,0-4.66,5.53-1.06,5.8-2.59,4a2.08,2.08,0,0,0-1.31-.08,2.11,2.11,0,1,0,2.11.63l1.36-2.11.86,3.65-1.79,2.8a2,2,0,0,0-1.24-.05,2.12,2.12,0,1,0,2,.57l1.29-2,.89,3.76-1.69,2.64a2,2,0,0,0-1.24,0,2.11,2.11,0,1,0,2.58,1.5,2.13,2.13,0,0,0-.52-.93l2-3.1.53-.13L13.69,41l1.37-7.48,1.59-1.89,1.53-1,1.32.24-2.37,2-1.07,6.45,8,20.36L20.36,64.8l1.38,9.44,3.11,7.63-.25,9.58H32a2.92,2.92,0,1,0,0-1.62H26.27l.21-8.25-3.17-7.77-1.26-8.59L25.88,60,25,57.77,37.34,44.42a3,3,0,0,0,1.31.31,2.92,2.92,0,1,0-2.92-2.92,3,3,0,0,0,.42,1.51L24.36,56.1l-2.43-6.2L26,45.24a2.74,2.74,0,0,0,1,.2,2.92,2.92,0,1,0-2.91-2.92,2.88,2.88,0,0,0,.59,1.75l-3.49,3.94-2.39-6.09,1.28-1.45a2.85,2.85,0,0,0,1.17.25,2.9,2.9,0,1,0-2.42-1.29l-.69.79-.48-1.22.9-5.42,3.79-3.26,2.13,1.7a2.86,2.86,0,0,0-.39,1.45,2.94,2.94,0,1,0,1.57-2.58l-2.06-1.65,0,0V27.7l.57-.93L26.23,26l.29-.19,8.54,6.57a2.85,2.85,0,0,0-.33,1.33,2.93,2.93,0,1,0,.91-2.11l-8.25-6.35,3.06-2,2.47-.59,12.69,9.76a2.82,2.82,0,0,0-.31,1.29,2.94,2.94,0,1,0,.88-2.08l-12-9.26,6.79-1.64L56.16,32.42a2.91,2.91,0,1,0,2.64-1.67,2.9,2.9,0,0,0-2.08.88L42.13,20.4l3.95-.95,3.32-.31L66.72,32.47a2.82,2.82,0,0,0-.27,1.2,2.93,2.93,0,1,0,.81-2L50.82,19l2.06-.19H74L71.71,21.7a2.86,2.86,0,0,0-1.4-.36,2.92,2.92,0,1,0,2.91,2.92,2.87,2.87,0,0,0-.75-2l2.77-3.49h8L81,21.67a3,3,0,1,0,.77.59l2.73-3.44h7.85L78.22,36.35a2.92,2.92,0,1,0,1.57,2.59A2.94,2.94,0,0,0,79,37L93.59,18.82h7.81L80.34,45.27A2.86,2.86,0,0,0,79,44.93a2.93,2.93,0,1,0,2.13.93l21.53-27h3.11a2.89,2.89,0,0,0-1.2,2.35,2.76,2.76,0,0,0,.09.71l-4,6.05.9,6.36,2.23,3.9,7.36.66.46,1.82h.63a1.93,1.93,0,1,1-1.92,1.93H108.7a3.55,3.55,0,1,0,4.19-3.49l-1.28-5L113,29l3.74-3.26,4.24.55-1.86,3.23a2.2,2.2,0,0,0-1.14,0,2.11,2.11,0,1,0,2.58,1.5,2,2,0,0,0-.59-1l1.7-3,1.33,3.2-2.44,4.24A2.1,2.1,0,0,0,117.74,37a2.11,2.11,0,0,0,4.08-1.08,2,2,0,0,0-.49-.89l2.1-3.65.06.14,1.82.27.8,4.28-1.75,6.7L125.2,45l.2,4.5-.88,3,.83,3.69-1.76,2.7-4.07.48-3.4-4.79,1.57-.83.15.28a2.11,2.11,0,1,0,1.43-.74l-.9-1.74-4.63,2.47,5,7.07,5.78-.68,2.55-3.91-.89-3.94.84-2.83-.23-5-.74-1.92,1.7-6.54ZM34.83,89.34a1.3,1.3,0,1,1-1.3,1.3A1.31,1.31,0,0,1,34.83,89.34Zm3.82-48.83a1.3,1.3,0,1,1-1.3,1.3A1.3,1.3,0,0,1,38.65,40.51Zm-11.58.71a1.3,1.3,0,1,1-1.3,1.3A1.31,1.31,0,0,1,27.07,41.22ZM21.32,36.7A1.3,1.3,0,1,1,20,38,1.3,1.3,0,0,1,21.32,36.7Zm5.75-4.33a1.3,1.3,0,1,1-1.3,1.3A1.31,1.31,0,0,1,27.07,32.37Zm10.58,0a1.3,1.3,0,1,1-1.3,1.3A1.3,1.3,0,0,1,37.65,32.37Zm10.57,0a1.3,1.3,0,1,1-1.3,1.3A1.3,1.3,0,0,1,48.22,32.37Zm10.58,0a1.3,1.3,0,1,1-1.3,1.3A1.31,1.31,0,0,1,58.8,32.37Zm10.57,0a1.3,1.3,0,1,1-1.3,1.3A1.3,1.3,0,0,1,69.37,32.37Zm.94-6.81a1.3,1.3,0,1,1,1.3-1.3A1.3,1.3,0,0,1,70.31,25.56Zm9.33,0a1.3,1.3,0,1,1,1.3-1.3A1.3,1.3,0,0,1,79.64,25.56ZM76.87,40.24a1.3,1.3,0,1,1,1.3-1.3A1.3,1.3,0,0,1,76.87,40.24ZM79,49.15a1.3,1.3,0,1,1,1.3-1.3A1.3,1.3,0,0,1,79,49.15Zm29.79-28a1.3,1.3,0,1,1-1.3-1.3A1.3,1.3,0,0,1,108.77,21.17Zm-4,15.48-1.65-2.89-.77-5.46,3.23-4.9a3.24,3.24,0,0,0,.53.35l-.76,6.58,2.74,1.2,2.62-.34-.77,2.92.78,3.08Zm6.75-8.52-.36,1.38-2.83.36-1.24-.54.61-5.25a2.88,2.88,0,0,0,1.72-.75l1.08,1.61,4.06.53Zm13.2-7a1.3,1.3,0,1,1,1.3,1.3A1.3,1.3,0,0,1,124.72,21.17Zm-.09,8.9-.13-.3,1.79-1.22,1.19-1.66-.22-3.08.16-.08,1.16,1,.76,6.29-2.11,2.27-.54-2.92Z"/>
      <path class="cls-2" d="M99.25,40.2l-.55-8.32L82.7,52v6.74l1.89,3.69a2.92,2.92,0,1,0,1.85-.66l-.36,0-1.76-3.44V52.54l13-16.38.29,4.37,2.48,7v2.5a2.92,2.92,0,1,0,1.62,0v-2.8ZM87.74,64.65a1.3,1.3,0,1,1-1.3-1.3A1.3,1.3,0,0,1,87.74,64.65ZM102.2,52.88a1.3,1.3,0,1,1-1.3-1.3A1.3,1.3,0,0,1,102.2,52.88Z"/>
      <path class="cls-2" d="M117.78,64.43l-2.69,2.84-2.31-3.35V59.39l-2.52-2.67-4.09-3.85V48.56a2.92,2.92,0,1,0-1.62,0v5l1.23,1.16-5.27,6.75-4.36-5.77V51a2.92,2.92,0,1,0-1,0V56l4.72,6.23-3.59,4.6L90.88,59.7V54.94a2.92,2.92,0,1,0-1,0V60l5.78,7.64-.84,1.08-7,1.05-1.7,9a2.93,2.93,0,1,0,1.59.3l1.49-7.9,6.49-1L107,55.84l2.13,2,2.06,2.2v4.39l3.74,5.4,4.5-4.76v-3.2h-1.62ZM94.36,48.08a1.31,1.31,0,1,1,1.3,1.3A1.3,1.3,0,0,1,94.36,48.08Zm-5.26,4a1.3,1.3,0,1,1,1.3,1.3A1.3,1.3,0,0,1,89.1,52.07ZM86.44,83a1.3,1.3,0,1,1,1.3-1.3A1.3,1.3,0,0,1,86.44,83Zm17.62-37.26a1.3,1.3,0,1,1,1.3,1.3A1.3,1.3,0,0,1,104.06,45.76Z"/>
      <path class="cls-2" d="M66.45,60.32h-.11L63.49,48.66H69.6l3.71,15.19,1.66.61c0,.06,0,.13,0,.19a2.92,2.92,0,1,0,2.92-2.91,2.89,2.89,0,0,0-2.35,1.2l-.85-.31L69.2,40.17H50.53l-5.4,7.18-2.34,2.93-.1,0,0,.07L31.57,64.32l-1,6.82a2.92,2.92,0,1,0,1.6.23L33.11,65,43.19,52.36l.32,1.32a2.91,2.91,0,1,0,1.35-.34,3,3,0,0,0-.42,0l-.48-2,2.2-2.75H48l2.86,11.71a2.93,2.93,0,1,0,1,0L49,48.66h6l2.9,11.85a2.91,2.91,0,1,0,1-.19h-.07L56,48.66h6.5l2.9,11.86a2.92,2.92,0,1,0,1.06-.2Zm11.43,3a1.3,1.3,0,1,1-1.3,1.3A1.3,1.3,0,0,1,77.88,63.35ZM31,75.33a1.3,1.3,0,1,1,1.3-1.3A1.3,1.3,0,0,1,31,75.33ZM46.16,56.26a1.3,1.3,0,1,1-1.3-1.3A1.3,1.3,0,0,1,46.16,56.26Zm6.5,7a1.3,1.3,0,1,1-1.3-1.3A1.3,1.3,0,0,1,52.66,63.24Zm7.55,0a1.3,1.3,0,1,1-1.3-1.3A1.3,1.3,0,0,1,60.21,63.24Zm6.24,1.3a1.3,1.3,0,1,1,1.3-1.3A1.3,1.3,0,0,1,66.45,64.54Z"/>
      <path class="cls-2" d="M89.77,88.87A2.92,2.92,0,0,0,87,91H81.29l-2-4.53,2.56-6.78-5.84-3.75-.31-2.31a2.92,2.92,0,1,0-1.6.21l.4,3.06,5.37,3.45-2.33,6.16,2.65,6.11H87a2.92,2.92,0,1,0,2.8-3.73ZM73.27,70.94a1.3,1.3,0,1,1,1.3,1.3A1.31,1.31,0,0,1,73.27,70.94Zm16.5,22.15a1.3,1.3,0,1,1,1.3-1.3A1.3,1.3,0,0,1,89.77,93.09Z"/>
    </g>
  </g>
</svg>
