<svg xmlns="http://www.w3.org/2000/svg" width="6in" height="5.42in" viewBox="0 0 432 390.02">
  <defs>
    <style>
      .cls-1 {
        fill: #7f2629;
      }

      .cls-2 {
        fill: #002d74;
      }

      .cls-3 {
        fill: #98989a;
      }
    </style>
  </defs>
  <g id="Bison">
    <g>
      <g>
        <polygon class="cls-1" points="152.26 225.25 181.96 225.25 173.06 235.52 135.6 235.52 152.26 225.25"/>
        <polygon class="cls-1" points="184.85 225.25 214.55 225.25 214.17 235.52 176.72 235.52 184.85 225.25"/>
        <polygon class="cls-1" points="217.45 225.25 247.15 225.25 255.28 235.52 217.83 235.52 217.45 225.25"/>
        <polygon class="cls-1" points="250.04 225.25 279.74 225.25 296.39 235.52 258.94 235.52 250.04 225.25"/>
        <polygon class="cls-1" points="132.62 237.36 171.47 237.36 154.92 256.47 101.64 256.47 132.62 237.36"/>
        <polygon class="cls-1" points="175.26 237.36 214.1 237.36 213.4 256.47 160.12 256.47 175.26 237.36"/>
        <polygon class="cls-1" points="217.9 237.36 256.74 237.36 271.88 256.47 218.6 256.47 217.9 237.36"/>
        <polygon class="cls-1" points="260.53 237.36 299.38 237.36 330.36 256.47 277.08 256.47 260.53 237.36"/>
        <polygon class="cls-1" points="95.52 260.25 151.65 260.25 110.25 308.05 18 308.05 95.52 260.25"/>
        <polygon class="cls-1" points="157.13 260.25 213.26 260.25 211.5 308.05 119.25 308.05 157.13 260.25"/>
        <polygon class="cls-1" points="218.74 260.25 274.87 260.25 312.75 308.05 220.5 308.05 218.74 260.25"/>
        <polygon class="cls-1" points="280.35 260.25 336.48 260.25 414 308.05 321.75 308.05 280.35 260.25"/>
      </g>
      <path class="cls-1" d="M278.45,223.92a112.59,112.59,0,0,0-8.47-7.45l-1.87.44s-1.66-2.81-3.38-2.93-4.93,1.87-4.92,1.87l-.62-.17L258,217.75l-1-3-1.4-.14s-1.56-4-3.2-5.65c-2-.73-8.32,5.5-8.3,5.51l-.91-1a16.47,16.47,0,0,1-7.09,4.23s-5.81-6-7.42-5.84c-1,.09-7.79,3.87-12.72,7.16l0,0a89.41,89.41,0,0,0-9.54-6l-1.77.74s-2.14-2.49-3.87-2.31-4.52,2.7-4.51,2.7l-.64-.07-.79,2.25-1.55-2.79-1.4.11s-2.28-3.68-4.2-5c-2.12-.36-7.15,6.88-7.13,6.88l-1.08-.86a16.08,16.08,0,0,1-6.22,5.38s-6.77-4.95-8.3-4.55c-.92.23-7,5-11.63,8.88Z"/>
    </g>
    <g>
      <path class="cls-2" d="M20.55,325.57h31.7v6.07H40.15V371H32.7V331.64H20.55Z"/>
      <path class="cls-2" d="M75.25,371.57c-10.33,0-18-7.31-18-18.62s7.32-18.56,18-18.56c10.26,0,17.51,7.12,17.51,17.71a22.53,22.53,0,0,1-.26,3.66H65c.52,5.95,4.77,9.54,10.26,9.54,4.57,0,7.12-2.22,8.49-5h8C89.75,366.54,84.07,371.57,75.25,371.57Zm-10.2-21.82H85c-.13-5.56-4.51-9.09-10.06-9.09C69.89,340.66,65.84,344.06,65.05,349.75Z"/>
      <path class="cls-2" d="M101.25,341.06H97V335h4.25v-9h7.52v9h8.76v6.08h-8.76V361c0,2.68,1,3.79,4.18,3.79h4.58V371h-5.89c-6.4,0-10.39-2.68-10.39-10Z"/>
      <path class="cls-2" d="M140,371.57c-10.26,0-18-7.31-18-18.62s8.1-18.56,18.36-18.56S158.7,341.64,158.7,353,150.33,371.57,140,371.57Zm0-6.46c5.56,0,11.05-4,11.05-12.16s-5.29-12.09-10.85-12.09-10.65,3.92-10.65,12.09S134.38,365.11,140,365.11Z"/>
      <path class="cls-2" d="M191.63,350.86c0-6.6-3.6-10-9-10s-9.08,3.4-9.08,10V371h-7.45V335h7.45v4.11a13.83,13.83,0,0,1,10.71-4.7c8.43,0,14.77,5.29,14.77,15.36V371h-7.38Z"/>
      <path class="cls-2" d="M226.65,371H208.49V325.57H225.8c9.61,0,14.71,5.29,14.71,11.69,0,5.49-3.33,8.83-7.71,10.4,4.83.85,8.76,5.68,8.76,11.11C241.56,365.69,235.93,371,226.65,371Zm-1.5-39.35h-9.21v13h9.21c4.84,0,7.78-2.29,7.78-6.47S230,331.64,225.15,331.64Zm.59,19.09h-9.8v14.18H226c5,0,8.11-2.55,8.11-6.93S230.71,350.73,225.74,350.73Z"/>
      <path class="cls-2" d="M249.65,322.63h7.45V371h-7.45Z"/>
      <path class="cls-2" d="M282.52,371.57c-10.26,0-18-7.31-18-18.62s8.1-18.56,18.36-18.56,18.37,7.25,18.37,18.56S292.85,371.57,282.52,371.57Zm0-6.46c5.56,0,11.05-4,11.05-12.16s-5.29-12.09-10.85-12.09-10.65,3.92-10.65,12.09S276.9,365.11,282.52,365.11Z"/>
      <path class="cls-2" d="M323.76,334.39c8.82,0,14.57,4.38,16.6,12h-8c-1.24-3.46-4.12-5.69-8.56-5.69-6,0-10,4.45-10,12.29s4,12.35,10,12.35c4.44,0,7.19-2,8.56-5.68h8c-2,7.05-7.78,11.95-16.6,11.95-10.33,0-17.65-7.31-17.65-18.62S313.43,334.39,323.76,334.39Z"/>
      <path class="cls-2" d="M347.8,322.63h7.45v28.1L368.33,335h10.32l-16.6,18,16.6,18H368.59L355.25,355.5V371H347.8Z"/>
      <path class="cls-2" d="M397.08,371.57c-8.63,0-14.71-5.09-15-11.63h7.72c.26,2.94,3.07,5.36,7.19,5.36,4.31,0,6.6-1.83,6.6-4.31,0-7.06-20.92-3-20.92-16.21,0-5.75,5.36-10.39,13.86-10.39,8.17,0,13.53,4.38,13.92,11.57H403c-.26-3.14-2.68-5.3-6.73-5.3s-6.08,1.64-6.08,4c0,7.26,20.32,3.21,20.72,16.21C410.87,367,405.57,371.57,397.08,371.57Z"/>
    </g>
    <g>
      <path id="Blue" class="cls-2" d="M378,109.55,375.1,85.4l-4-3.44c0-.23,0-.46,0-.7A11.78,11.78,0,1,0,348.59,86L325,82.92l-.83-1.25v-.4a11.71,11.71,0,0,0-7.61-11l-3.45-5.19L285,54l-12.95,4.32-41.27-4L181,66.15,155.57,68.5l-41.8,10L102.7,85.82l-1.21.5L83.32,93.15l-.69,1.06L70.24,108.92l-3,16.64-3.85,6h-.09a8.92,8.92,0,0,0-2.35.31,9.26,9.26,0,0,0-2.42,16.88,9.26,9.26,0,0,0,3.3,12.47A9.26,9.26,0,0,0,69.85,175a9.52,9.52,0,0,0,2.37-.31,9.27,9.27,0,0,0,6.59-11.32,10.64,10.64,0,0,0-.47-1.34l2.59-4,4.29-1-3.66-15.43,8.1,20.63-.07,1.07,6.26,15.34L87,190.72,90.86,217l7.74,19-.71,27.85h20.47a11.77,11.77,0,1,0,13.91-17.48l-5.21-12.82-1.75-8.69a11.75,11.75,0,0,0,1-18.31l1.78-12.35,13.31-16.67,17.09,12.42a11.76,11.76,0,0,0,21.17,4.84,11.76,11.76,0,0,0,19.12.06,11.79,11.79,0,0,0,20.5-2.54l6.29,0a11.84,11.84,0,0,0,.83,3.64A11.76,11.76,0,0,0,224,218.06l.93,7L237.23,233,232,247l8.54,19.75H257.6a11.77,11.77,0,1,0,11.32-18.11l-2.11-5a11.82,11.82,0,0,0,4-8.82,11.69,11.69,0,0,0-3.55-8.41L269.93,212l15.1-2.26,26.62-34.12,1.79,1.68,4,4.22v10.76l13.3,19.26L347,194.29V186l11.16-1.31,8.6-13.19-2.41-10.67,2-6.79-.64-14.23-1.64-4.2,4-15.42ZM359.49,79a2.41,2.41,0,1,1-2.41,2.41A2.41,2.41,0,0,1,359.49,79Zm-34.93,61a4.27,4.27,0,1,1,4.28-4.27A4.27,4.27,0,0,1,324.56,139.92Zm-9.69-58.55A2.42,2.42,0,1,1,312.46,79,2.42,2.42,0,0,1,314.87,81.37Zm-5.35,62.33a2.41,2.41,0,1,1-2.41-2.41A2.41,2.41,0,0,1,309.52,143.7Zm-11.3,18.05a2.42,2.42,0,1,1-2.42-2.41A2.42,2.42,0,0,1,298.22,161.75Zm-33,98.63a2.41,2.41,0,1,1,2.41,2.41A2.41,2.41,0,0,1,265.18,260.38Zm-6-66.38a2.41,2.41,0,1,1,2.41-2.41A2.41,2.41,0,0,1,259.16,194Zm0,38.45a2.41,2.41,0,1,1-2.41,2.41A2.41,2.41,0,0,1,259.16,232.45Zm7.62-72.77a2.41,2.41,0,1,1,2.41,2.41A2.41,2.41,0,0,1,266.78,159.68Zm15.76-12.51a2.41,2.41,0,1,1-2.41,2.41A2.41,2.41,0,0,1,282.54,147.17Zm-55.87,60.34a2.41,2.41,0,1,1,2.41,2.41A2.41,2.41,0,0,1,226.67,207.51Zm13.57-60.94a2.42,2.42,0,1,1-2.41,2.41A2.42,2.42,0,0,1,240.24,146.57Zm-.74-57.38a2.42,2.42,0,1,1,2.41,2.41A2.42,2.42,0,0,1,239.5,89.19Zm.37,102.4a2.41,2.41,0,1,1-2.41-2.41A2.41,2.41,0,0,1,239.87,191.59Zm-5-62.78a2.41,2.41,0,1,1,2.41-2.41A2.41,2.41,0,0,1,234.89,128.81ZM218.26,91.6a2.41,2.41,0,1,1,2.41-2.41A2.41,2.41,0,0,1,218.26,91.6Zm0,21.46a2.41,2.41,0,1,1-2.41-2.41A2.41,2.41,0,0,1,218.3,113.06ZM206.08,188a2.41,2.41,0,1,1,2.41,2.41A2.41,2.41,0,0,1,206.08,188ZM187,188a2.41,2.41,0,1,1,2.41,2.41A2.41,2.41,0,0,1,187,188Zm-.28-74.94a2.42,2.42,0,1,1,2.41,2.41A2.42,2.42,0,0,1,186.67,113.06ZM167.83,188a2.41,2.41,0,1,1,2.41,2.41A2.41,2.41,0,0,1,167.83,188Zm-3.14-74.94a2.41,2.41,0,1,1-2.41-2.41A2.41,2.41,0,0,1,164.69,113.06Zm-8.51,57.26a2.41,2.41,0,1,1-2.41-2.41A2.41,2.41,0,0,1,156.18,170.32Zm-18.17-39a2.41,2.41,0,1,1-2.41,2.41A2.42,2.42,0,0,1,138,131.27Zm-2.53-15.8a2.41,2.41,0,1,1,2.41-2.41A2.41,2.41,0,0,1,135.48,115.47Zm-9.54,142a2.41,2.41,0,1,1,2.41,2.42A2.42,2.42,0,0,1,125.94,257.46Zm-7.34-44.52a2.41,2.41,0,1,1-2.41,2.41A2.42,2.42,0,0,1,118.6,212.94ZM94.1,121.62A2.41,2.41,0,1,1,91.69,124,2.41,2.41,0,0,1,94.1,121.62Zm12.17,13.86a2.41,2.41,0,1,1,2.41,2.41A2.41,2.41,0,0,1,106.27,135.48Zm2.41-20a2.41,2.41,0,1,1,2.41-2.41A2.41,2.41,0,0,1,108.68,115.47Z"/>
      <g id="White">
        <path class="cls-3" d="M363.74,118.6l9.7-10.43L371,87.72l-4.53-3.9a7.26,7.26,0,0,0,.42-2.43,7.4,7.4,0,1,0-9.56,7.07l.42,5.88-1.36,1.9-2.84,1.93-3.07-7.38-28-3.68-2.82-4.22a7.42,7.42,0,0,0-5.84-8.77l-3.58-5.36-25.36-10-12.32,4.11-41.48-4L181.69,70.59,156.31,73l-40.75,9.79-10.78,7.08-1.72.71L86.21,96.87l0,.07-11.8,14-2.7,14.7-6.55,10.22a5.34,5.34,0,1,0,3.2,3.6,5.23,5.23,0,0,0-1.18-2.19l3.43-5.36,2.19,9.26-4.54,7.08a5.34,5.34,0,1,0,2.07,1.33l3.26-5.08,2.26,9.53-4.3,6.69a5.23,5.23,0,0,0-3.14-.13,5.35,5.35,0,1,0,5.22,1.46l5-7.87,1.34-.32-5.24-22.17,3.47-18.94,4-4.8,3.89-2.54,3.33.61-6,5.16-2.74,16.33L101,179.15,91.63,192l3.5,23.94L103,235.25l-.63,24.28h18.83a7.4,7.4,0,1,0,0-4.1H106.6l.54-20.93-8-19.67L95.93,193l9.7-13.28-2.2-5.59,31.25-33.85a7.46,7.46,0,1,0-3-2.79l-29.9,32.4L95.6,154.21,106,142.41a7.41,7.41,0,1,0-3.29-2.47l-8.83,10-6.06-15.45,3.23-3.66a7.38,7.38,0,1,0-3.15-2.63l-1.77,2L85,127.09l2.3-13.75,9.61-8.26,5.39,4.3a7.27,7.27,0,0,0-1,3.7,7.4,7.4,0,1,0,7.4-7.4,7.33,7.33,0,0,0-3.42.84L100,102.36l.11-.09V97.94l1.42-2.36,5-2,.74-.48,21.63,16.64a7.32,7.32,0,0,0-.83,3.39,7.42,7.42,0,1,0,2.3-5.35l-20.91-16.1,7.76-5.07,6.27-1.51,32.16,24.75a7.24,7.24,0,0,0-.78,3.28,7.41,7.41,0,1,0,2.22-5.28L126.55,84.31l17.2-4.14,38.64,29.74a7.31,7.31,0,0,0-.73,3.17,7.43,7.43,0,1,0,2.14-5.19l-37-28.46,10-2.41,8.42-.79L209.14,110a7.33,7.33,0,0,0-.67,3.07,7.4,7.4,0,1,0,2.05-5.11L168.85,75.9l5.21-.48H227.6l-5.79,7.31a7.32,7.32,0,0,0-3.57-.92,7.42,7.42,0,1,0,5.49,2.45l7-8.84h20.32l-5.74,7.24a7.32,7.32,0,0,0-3.43-.85,7.42,7.42,0,1,0,5.39,2.34l6.92-8.73h19.9l-35.79,44.45a7.49,7.49,0,1,0,1.95,1.5l37-45.95h19.79l-53.38,67a7.51,7.51,0,1,0,2,1.51L300.2,75.42h7.88a7.37,7.37,0,0,0-3,6,7.16,7.16,0,0,0,.23,1.8L295.18,98.51l2.27,16.13,5.65,9.88,18.67,1.68,1.18,4.62h1.59a4.88,4.88,0,1,1-4.87,4.88h-4.11a9,9,0,1,0,10.61-8.83l-3.23-12.66,3.42-12.93L335.84,93l10.75,1.41-4.71,8.19a5.24,5.24,0,0,0-2.89,0,5.35,5.35,0,1,0,5,1.27l4.31-7.49,3.37,8.1-6.18,10.75a5.22,5.22,0,0,0-3.23-.16,5.37,5.37,0,1,0,5.28,1.53l5.32-9.25.15.35,4.62.68,2,10.87-4.43,17,2.13,5.46.51,11.41-2.24,7.54,2.12,9.34-4.48,6.86L343,178l-8.6-12.13,4-2.12.37.73a5.34,5.34,0,1,0,3.64-1.89l-2.28-4.41-11.74,6.26L341,182.37l14.64-1.72,6.47-9.92-2.26-10,2.13-7.19-.58-12.77-1.88-4.85,4.32-16.57ZM128.33,254.19a3.3,3.3,0,1,1-3.3,3.29A3.3,3.3,0,0,1,128.33,254.19ZM138,130.4a3.3,3.3,0,1,1-3.29,3.3A3.3,3.3,0,0,1,138,130.4Zm-29.33,1.8a3.3,3.3,0,1,1-3.3,3.29A3.3,3.3,0,0,1,108.66,132.2ZM94.08,120.76a3.3,3.3,0,1,1-3.3,3.29A3.29,3.29,0,0,1,94.08,120.76Zm14.58-11a3.3,3.3,0,1,1-3.3,3.3A3.3,3.3,0,0,1,108.66,109.78Zm26.8,0a3.3,3.3,0,1,1-3.3,3.3A3.29,3.29,0,0,1,135.46,109.78Zm26.8,0a3.3,3.3,0,1,1-3.3,3.3A3.3,3.3,0,0,1,162.26,109.78Zm26.8,0a3.3,3.3,0,1,1-3.29,3.3A3.3,3.3,0,0,1,189.06,109.78Zm26.81,0a3.3,3.3,0,1,1-3.3,3.3A3.3,3.3,0,0,1,215.87,109.78Zm2.37-17.28a3.3,3.3,0,1,1,3.3-3.29A3.3,3.3,0,0,1,218.24,92.5Zm23.65,0a3.3,3.3,0,1,1,3.3-3.29A3.3,3.3,0,0,1,241.89,92.5Zm-7,37.22a3.3,3.3,0,1,1,3.3-3.3A3.3,3.3,0,0,1,234.87,129.72Zm5.35,22.58a3.3,3.3,0,1,1,3.29-3.3A3.3,3.3,0,0,1,240.22,152.3Zm75.51-70.91a3.3,3.3,0,1,1-3.3-3.3A3.3,3.3,0,0,1,315.73,81.39ZM305.6,120.63l-4.19-7.34-2-13.82L307.66,87a6.87,6.87,0,0,0,1.34.91l-1.93,16.67,6.94,3,6.65-.85-2,7.4,2,7.8ZM322.72,99l-.92,3.5-7.18.92-3.13-1.37L313,88.75a7.32,7.32,0,0,0,4.37-1.89l2.72,4.08,10.3,1.35Zm33.46-17.62a3.3,3.3,0,1,1,3.29,3.29A3.29,3.29,0,0,1,356.18,81.39Zm-.24,22.55-.32-.76,4.52-3.08,3-4.22-.55-7.8.4-.2L366,90.41l1.92,16-5.34,5.73-1.37-7.38Z"/>
        <path class="cls-3" d="M291.61,129.63l-1.39-21.09-40.55,50.93v17.07l4.78,9.35a7.4,7.4,0,1,0,4.69-1.68,6.84,6.84,0,0,0-.91.06l-4.46-8.71V160.9l33.06-41.51.73,11.07,6.28,17.83,0,6.36a7.37,7.37,0,1,0,4.1,0l0-7.08Zm-29.18,62a3.3,3.3,0,1,1-3.29-3.3A3.29,3.29,0,0,1,262.43,191.61Zm36.65-29.84a3.3,3.3,0,1,1-3.3-3.3A3.3,3.3,0,0,1,299.08,161.77Z"/>
        <path class="cls-3" d="M338.58,191l-6.81,7.21-5.86-8.49V178.28l-6.39-6.8-10.38-9.75V150.82a7.4,7.4,0,1,0-4.1,0v12.69l3.12,2.94-13.35,17.11-11.06-14.62V156.89a7.4,7.4,0,1,0-2.46,0v12.87l11.95,15.81-9.09,11.66L270.4,179V167a7.4,7.4,0,1,0-2.47,0v12.88l14.66,19.37L280.45,202l-17.71,2.64-4.3,22.89a7.42,7.42,0,1,0,4,.77l3.76-20,16.45-2.46,28.49-36.52,5.41,5.07,5.23,5.56V191l9.46,13.7,11.41-12.06v-8.11h-4.1ZM279.22,149.6a3.3,3.3,0,1,1,3.3,3.29A3.3,3.3,0,0,1,279.22,149.6Zm-13.35,10.1a3.3,3.3,0,1,1,3.3,3.3A3.3,3.3,0,0,1,265.87,159.7Zm-6.73,78.47a3.3,3.3,0,1,1,3.29-3.29A3.3,3.3,0,0,1,259.14,238.17Zm44.65-94.45a3.3,3.3,0,1,1,3.3,3.3A3.3,3.3,0,0,1,303.79,143.72Z"/>
        <path class="cls-3" d="M208.47,180.62l-.28,0L201,151.06h15.49l9.4,38.51,4.21,1.53a4.36,4.36,0,0,0,0,.51,7.42,7.42,0,1,0,1.43-4.36l-2.14-.78-13.9-56.92H168.11l-13.69,18.2-5.94,7.43-.24.06,0,.18-28.24,35.34-2.49,17.29a7.38,7.38,0,1,0,4.06.58L124,192.45l25.56-32,.82,3.33a7.4,7.4,0,1,0,3.42-.84,6.26,6.26,0,0,0-1.07.09l-1.22-5,5.56-7h4.58l7.25,29.69a7.42,7.42,0,1,0,2.53,0l-7.25-29.66h15.29l7.34,30a7.36,7.36,0,1,0,2.58-.48h-.16L182,151.06h16.48l7.34,30.08a7.37,7.37,0,1,0,2.69-.52Zm29,7.69a3.3,3.3,0,1,1-3.3,3.3A3.3,3.3,0,0,1,237.44,188.31ZM118.57,218.67a3.3,3.3,0,1,1,3.3-3.3A3.3,3.3,0,0,1,118.57,218.67Zm38.48-48.33a3.3,3.3,0,1,1-3.3-3.3A3.29,3.29,0,0,1,157.05,170.34ZM173.51,188a3.3,3.3,0,1,1-3.29-3.3A3.3,3.3,0,0,1,173.51,188Zm19.13,0a3.3,3.3,0,1,1-3.3-3.3A3.3,3.3,0,0,1,192.64,188Zm15.83,3.3a3.3,3.3,0,1,1,3.29-3.3A3.3,3.3,0,0,1,208.47,191.32Z"/>
        <path class="cls-3" d="M267.57,253a7.41,7.41,0,0,0-7.1,5.35H246.08l-5-11.49,6.5-17.19-14.82-9.5-.77-5.86a7.41,7.41,0,1,0-4.07.53l1,7.76,13.62,8.73L236.69,247l6.7,15.49h17.08a7.4,7.4,0,1,0,7.1-9.45Zm-41.81-45.47a3.3,3.3,0,1,1,3.3,3.3A3.3,3.3,0,0,1,225.76,207.53Zm41.81,56.17a3.3,3.3,0,1,1,3.3-3.3A3.3,3.3,0,0,1,267.57,263.7Z"/>
      </g>
    </g>
  </g>
</svg>
