<svg xmlns="http://www.w3.org/2000/svg" width="1.5in" height="1.5in" viewBox="0 0 108 108">
  <defs>
    <style>
      .cls-1 {
        fill: #a02843;
        stroke: #002d74;
        stroke-miterlimit: 10;
        stroke-width: 7px;
      }

      .cls-2 {
        fill: #d9d8d6;
      }
    </style>
  </defs>
  <g id="Bison">
    <circle class="cls-1" cx="54" cy="54" r="45"/>
    <g id="White">
      <path class="cls-2" d="M87.37,43.66l2.26-2.42-.57-4.76L88,35.57a1.56,1.56,0,0,0,.1-.57,1.72,1.72,0,1,0-2.22,1.65L86,38l-.32.44-.66.45-.72-1.72-6.5-.85-.66-1a1.34,1.34,0,0,0,0-.35,1.73,1.73,0,0,0-1.4-1.69l-.83-1.24L69,29.74l-2.87,1-9.65-.93L45,32.49,39.11,33l-9.48,2.28L27.12,37l-.4.16L22.8,38.61h0L20,41.89l-.62,3.42-1.53,2.37a1.29,1.29,0,0,0-.78,0,1.24,1.24,0,0,0,.64,2.4,1.25,1.25,0,0,0,.89-1.52,1.27,1.27,0,0,0-.28-.51l.8-1.24.51,2.15-1.06,1.65a1.21,1.21,0,0,0-.73,0,1.24,1.24,0,1,0,1.52.88,1.09,1.09,0,0,0-.31-.54l.76-1.19.53,2.22-1,1.56a1.21,1.21,0,0,0-.73,0,1.24,1.24,0,1,0,1.52.88,1.26,1.26,0,0,0-.31-.54L21,52l.31-.08-1.22-5.16.81-4.4.94-1.12.9-.59.77.14-1.39,1.2-.64,3.8,4.72,12-2.18,3,.82,5.58,1.83,4.5-.14,5.65H31a1.72,1.72,0,1,0,0-1h-3.4l.12-4.87L25.8,66.05,25.06,61l2.26-3.09-.51-1.3,7.27-7.88a1.66,1.66,0,0,0,.77.19,1.72,1.72,0,1,0-1.47-.83l-7,7.53L25,52l2.42-2.75a1.79,1.79,0,0,0,.61.12,1.74,1.74,0,1,0-1.37-.69L24.59,51l-1.41-3.59.76-.85a1.72,1.72,0,1,0-.74-.62l-.41.47-.28-.72.53-3.2,2.24-1.92,1.25,1a1.75,1.75,0,0,0-.23.86A1.72,1.72,0,1,0,28,40.66a1.77,1.77,0,0,0-.79.19l-1.21-1,0,0v-1l.33-.55,1.16-.48.17-.11,5,3.87a1.74,1.74,0,0,0-.19.79,1.72,1.72,0,1,0,1.72-1.72,1.74,1.74,0,0,0-1.19.47l-4.86-3.74L30,36.21l1.46-.35L39,41.62a1.72,1.72,0,1,0,.34-.47l-7.1-5.46,4-1,9,6.92a1.64,1.64,0,0,0-.17.74,1.72,1.72,0,1,0,1.72-1.72,1.68,1.68,0,0,0-1.22.51L36.9,34.55,39.23,34l2-.18L51.4,41.67a1.64,1.64,0,0,0-.15.71,1.71,1.71,0,1,0,.47-1.19L42,33.73l1.21-.11H55.7l-1.35,1.7a1.69,1.69,0,0,0-.83-.22,1.73,1.73,0,1,0,1.72,1.72,1.75,1.75,0,0,0-.44-1.15l1.63-2.05h4.73L59.82,35.3a1.67,1.67,0,0,0-.8-.2,1.74,1.74,0,1,0,1.26.55l1.61-2h4.63L58.19,44a1.67,1.67,0,0,0-.8-.2,1.74,1.74,0,1,0,1.25.55l8.61-10.69h4.61L59.44,49.22a1.72,1.72,0,1,0-.81,3.24,1.73,1.73,0,0,0,1.73-1.72,1.67,1.67,0,0,0-.47-1.17l12.7-16h1.83a1.71,1.71,0,0,0-.7,1.38,1.86,1.86,0,0,0,0,.42L71.42,39,72,42.74,73.27,45l4.34.39.27,1.08h.37a1.14,1.14,0,1,1-1.13,1.13h-1a2.09,2.09,0,1,0,2.46-2l-.75-3,.8-3,2.2-1.92,2.5.33-1.09,1.9a1.27,1.27,0,0,0-.67,0,1.25,1.25,0,1,0,1.52.89,1.21,1.21,0,0,0-.35-.59l1-1.75.78,1.89-1.43,2.5a1.23,1.23,0,0,0-.76,0,1.25,1.25,0,1,0,1.52.89,1.1,1.1,0,0,0-.29-.53L84.85,41l0,.08,1.07.16.47,2.53-1,3.95L85.89,49,86,51.68l-.52,1.76L86,55.61l-1,1.59-2.4.29-2-2.83.93-.49.08.17a1.24,1.24,0,1,0,2.16.48,1.25,1.25,0,0,0-1.31-.92l-.53-1-2.73,1.46,3,4.17,3.41-.4L87,55.79l-.52-2.32L87,51.8l-.13-3L86.4,47.7l1-3.86ZM32.6,75.21a.78.78,0,0,1,.77.77.77.77,0,0,1-1.54,0A.78.78,0,0,1,32.6,75.21Zm2.25-28.8a.77.77,0,1,1-.77.77A.77.77,0,0,1,34.85,46.41ZM28,46.83a.77.77,0,1,1-.76.76A.76.76,0,0,1,28,46.83Zm-3.39-2.67a.77.77,0,1,1-.77.77A.78.78,0,0,1,24.63,44.16ZM28,41.61a.77.77,0,1,1-.76.77A.77.77,0,0,1,28,41.61Zm6.24,0a.77.77,0,1,1-.77.77A.78.78,0,0,1,34.26,41.61Zm6.24,0a.77.77,0,1,1-.77.77A.77.77,0,0,1,40.5,41.61Zm6.23,0a.77.77,0,1,1-.77.77A.78.78,0,0,1,46.73,41.61Zm6.24,0a.77.77,0,1,1-.77.77A.77.77,0,0,1,53,41.61Zm.55-4a.77.77,0,1,1,.77-.77A.77.77,0,0,1,53.52,37.59Zm5.5,0a.77.77,0,1,1,.77-.77A.76.76,0,0,1,59,37.59Zm-1.63,8.66a.77.77,0,1,1,.77-.77A.77.77,0,0,1,57.39,46.25Zm1.24,5.25a.77.77,0,1,1,.77-.76A.76.76,0,0,1,58.63,51.5ZM76.2,35a.77.77,0,1,1-.76-.76A.76.76,0,0,1,76.2,35Zm-2.35,9.13-1-1.7-.45-3.22,1.91-2.89a1.69,1.69,0,0,0,.31.21l-.45,3.88,1.61.7,1.55-.19-.45,1.72.46,1.81Zm4-5-.21.81-1.68.21-.72-.31.36-3.1a1.67,1.67,0,0,0,1-.44l.63.95,2.4.31ZM85.61,35a.77.77,0,1,1,.77.77A.77.77,0,0,1,85.61,35Zm0,5.25-.08-.17,1.06-.72.7-1-.13-1.82.1,0,.68.58.45,3.71-1.25,1.34-.32-1.72Z"/>
      <path class="cls-2" d="M70.59,46.23l-.32-4.91L60.83,53.17v4L62,59.32a1.71,1.71,0,0,0-.64,1.33A1.73,1.73,0,1,0,63,58.93h-.21l-1-2V53.51l7.69-9.66.17,2.57,1.46,4.15v1.48a1.72,1.72,0,1,0,2.18,1.66,1.71,1.71,0,0,0-1.22-1.65V50.41ZM63.8,60.65a.77.77,0,1,1-.76-.77A.77.77,0,0,1,63.8,60.65Zm8.53-6.94a.77.77,0,1,1-.77-.77A.76.76,0,0,1,72.33,53.71Z"/>
      <path class="cls-2" d="M81.52,60.52l-1.58,1.67-1.37-2V57.55L77.09,56,74.67,53.7V51.16a1.73,1.73,0,1,0-1,0v3l.72.69-3.1,4-2.58-3.4V52.57a1.72,1.72,0,1,0-.57,0v3L71,59.25,68.86,62l-3.2-4.23V54.92a1.72,1.72,0,1,0-.58,0v3l3.41,4.51-.5.63-4.12.62-1,5.32a1.73,1.73,0,1,0,.94.18l.88-4.66L68.51,64l6.63-8.5,1.26,1.18,1.22,1.3v2.59l2.2,3.18,2.66-2.8V59h-1ZM67.71,50.88a.77.77,0,1,1,.77.76A.76.76,0,0,1,67.71,50.88ZM64.6,53.23a.77.77,0,1,1,.77.76A.77.77,0,0,1,64.6,53.23ZM63,71.49a.77.77,0,1,1,.76-.77A.77.77,0,0,1,63,71.49Zm10.39-22a.77.77,0,1,1,.76.77A.77.77,0,0,1,73.43,49.51Z"/>
      <path class="cls-2" d="M51.25,58.09h-.07L49.5,51.21h3.61l2.18,9,1,.35v.12a1.72,1.72,0,1,0,.33-1l-.5-.19L52.87,46.21h-11l-3.19,4.24-1.38,1.72-.06,0v0l-6.57,8.22-.58,4a1.71,1.71,0,1,0,.95.13l.54-3.76,6-7.45.19.78a1.71,1.71,0,0,0-.93,1.52A1.73,1.73,0,1,0,38.52,54l-.25,0L38,52.84l1.3-1.63h1.06L42,58.12a1.75,1.75,0,1,0,.59,0l-1.69-6.91h3.56l1.71,7a1.72,1.72,0,1,0,.6-.11h0l-1.68-6.89h3.83l1.71,7a1.72,1.72,0,1,0,.63-.12ZM58,59.88a.77.77,0,1,1-.77.77A.77.77,0,0,1,58,59.88ZM30.33,67a.77.77,0,1,1,.77-.77A.78.78,0,0,1,30.33,67Zm9-11.25a.77.77,0,1,1-.76-.77A.77.77,0,0,1,39.28,55.7Zm3.83,4.12a.77.77,0,1,1-.76-.77A.76.76,0,0,1,43.11,59.82Zm4.45,0a.77.77,0,1,1-.76-.77A.76.76,0,0,1,47.56,59.82Zm3.69.76a.77.77,0,1,1,.76-.76A.76.76,0,0,1,51.25,60.58Z"/>
      <path class="cls-2" d="M65,74.94a1.7,1.7,0,0,0-1.65,1.24H60l-1.16-2.67,1.51-4L56.91,67.3l-.18-1.37a1.72,1.72,0,1,0-2.41-1.58,1.71,1.71,0,0,0,1.46,1.7L56,67.86l3.17,2-1.38,3.64,1.56,3.6h4A1.72,1.72,0,1,0,65,74.94ZM55.27,64.35a.77.77,0,1,1,.77.77A.76.76,0,0,1,55.27,64.35ZM65,77.42a.77.77,0,1,1,.77-.76A.77.77,0,0,1,65,77.42Z"/>
    </g>
  </g>
</svg>
