<?xml version="1.0" standalone="no"?>
<!DOCTYPE svg PUBLIC "-//W3C//DTD SVG 20010904//EN"
 "http://www.w3.org/TR/2001/REC-SVG-20010904/DTD/svg10.dtd">
<svg version="1.0" xmlns="http://www.w3.org/2000/svg"
 width="700.000000pt" height="700.000000pt" viewBox="0 0 700.000000 700.000000"
 preserveAspectRatio="xMidYMid meet">
<metadata>
Created by potrace 1.11, written by Peter Selinger 2001-2013
</metadata>
<g transform="translate(0.000000,700.000000) scale(0.100000,-0.100000)"
fill="#000000" stroke="none">
<path d="M396 6984 c-186 -45 -346 -212 -385 -402 -16 -75 -16 -6089 0 -6164
30 -145 141 -293 265 -356 133 -67 -133 -62 3226 -62 3333 0 3088 -4 3216 58
75 36 188 149 224 224 62 128 58 -117 58 3218 0 3351 5 3091 -61 3222 -39 78
-134 173 -215 215 -128 68 123 63 -3229 62 -2590 -1 -3049 -3 -3099 -15z
m6189 -281 c47 -25 95 -74 121 -123 18 -34 19 -101 21 -1840 l2 -1805 -43 101
c-29 69 -61 177 -100 336 -31 129 -56 242 -56 252 0 40 -67 142 -190 286 -73
85 -202 237 -288 338 -85 100 -159 182 -163 182 -4 0 -50 -55 -102 -123 l-95
-123 -158 -48 c-237 -73 -228 -68 -261 -137 l-28 -59 -150 0 -150 0 -32 -51
-31 -51 -37 51 c-28 39 -43 51 -63 52 -15 0 -94 24 -176 52 l-150 52 -108 295
c-59 162 -121 333 -137 379 -25 71 -41 97 -106 173 l-77 88 -32 -19 c-74 -44
-608 -343 -626 -349 -11 -4 -129 -130 -264 -280 -134 -150 -277 -301 -317
-335 -41 -34 -312 -264 -604 -512 l-530 -450 -214 -5 -213 -5 -417 -727 -416
-728 -60 -24 -60 -24 -3 2486 c-2 2787 -9 2554 71 2639 29 30 60 51 97 63 54
19 133 19 3080 17 l3025 -2 40 -22z m-2579 -1994 c10 -11 84 -201 165 -422
134 -368 148 -402 170 -405 13 -1 100 -24 193 -50 l170 -47 48 -65 48 -65 0
-217 0 -217 145 -132 c80 -73 144 -133 143 -134 -2 -2 -38 -17 -80 -35 l-77
-33 -116 108 -115 107 0 218 0 218 -33 44 c-33 43 -33 43 -222 98 -105 31
-195 58 -200 60 -6 3 -66 157 -134 342 l-124 337 26 31 c95 112 -36 266 -161
190 -36 -22 -62 -72 -62 -119 0 -28 -10 -35 -168 -126 -161 -91 -171 -99 -244
-184 -42 -49 -134 -155 -204 -236 l-128 -147 16 -42 c9 -22 19 -48 22 -56 4
-11 -18 -29 -79 -65 -46 -27 -85 -54 -85 -60 -1 -5 92 -289 206 -630 l208
-620 -27 -39 c-15 -21 -27 -48 -27 -58 0 -36 31 -85 64 -103 62 -33 146 6 161
76 9 42 -22 100 -63 118 -18 8 -35 24 -37 35 -6 29 -95 832 -95 860 0 18 22
35 105 86 119 71 114 58 64 169 -16 35 -29 69 -29 75 0 6 41 57 91 113 l91
103 28 -15 c16 -8 42 -15 58 -15 23 0 32 -6 41 -27 6 -16 47 -127 91 -248 44
-120 84 -222 88 -226 4 -4 59 -21 122 -39 63 -17 145 -40 183 -51 l67 -20 0
-159 c0 -144 -2 -159 -18 -164 -12 -4 -56 -87 -126 -240 l-108 -234 -246 -109
-247 -108 -132 -107 c-72 -60 -134 -108 -137 -108 -23 0 19 36 194 169 116 88
200 159 200 168 0 9 -47 201 -105 426 -58 226 -104 411 -103 412 2 2 49 33
106 69 56 37 102 71 102 77 0 6 -19 55 -41 110 -25 59 -38 104 -33 109 5 5 41
-78 88 -205 l79 -213 168 -48 169 -47 0 -52 c0 -45 -10 -74 -66 -189 -65 -133
-67 -136 -99 -136 -65 0 -118 -75 -95 -136 27 -71 90 -99 153 -69 63 30 85
118 41 167 -20 21 -17 30 63 191 52 104 54 111 51 180 l-3 71 -172 50 -171 50
-104 243 c-57 133 -106 243 -109 243 -4 0 -23 -20 -44 -45 l-37 -46 41 -102
c23 -56 41 -105 41 -108 0 -4 -45 -35 -101 -70 -55 -34 -102 -66 -105 -71 -3
-4 42 -194 101 -422 58 -228 105 -419 105 -424 0 -5 -89 -78 -197 -162 l-198
-152 -5 264 -6 263 -168 623 c-92 343 -166 625 -164 626 1 1 38 24 82 51 84
52 84 52 61 131 -5 16 37 69 215 270 l222 249 257 147 c141 81 261 147 267
147 6 1 19 -8 30 -20z m-31 -114 c47 -46 24 -125 -42 -141 -53 -14 -113 46
-99 99 16 66 95 89 141 42z m-118 -165 c14 -11 40 -20 58 -20 l32 0 129 -352
129 -351 200 -58 c182 -52 201 -60 227 -91 l27 -33 1 -225 0 -225 106 -85 c86
-68 102 -85 87 -91 -10 -4 -82 -36 -161 -72 l-143 -65 -109 -233 -109 -233
-328 -151 c-180 -83 -382 -180 -448 -216 -175 -96 -161 -91 -174 -75 -16 19
182 130 539 301 157 75 290 142 297 148 7 7 59 113 117 237 95 205 108 226
138 240 19 8 62 28 97 44 l63 28 -51 45 -51 44 -2 227 -3 226 -212 59 -211 60
-128 351 c-70 193 -131 355 -135 360 -4 4 -69 -27 -144 -69 l-137 -78 -168
-189 -168 -189 30 -70 c16 -39 28 -72 26 -74 -2 -1 -44 -28 -95 -59 -68 -42
-90 -60 -87 -74 38 -159 153 -687 150 -689 -2 -2 -6 6 -10 19 -3 13 -66 207
-140 431 l-134 409 73 46 c40 26 80 52 89 57 14 9 13 17 -6 71 l-22 61 200
223 199 224 160 88 c88 48 164 88 168 88 5 0 20 -9 34 -20z m93 -590 c68 -187
128 -344 134 -349 6 -5 79 -28 161 -51 83 -23 174 -48 203 -56 l52 -15 0 -229
0 -229 31 -22 32 -22 -74 -38 -74 -37 -105 -227 c-58 -125 -109 -230 -115
-235 -5 -4 -140 -66 -300 -137 -227 -102 -319 -148 -424 -216 -74 -48 -138
-87 -143 -87 -23 0 3 26 111 113 114 92 129 100 373 212 l254 116 108 233 c83
180 113 236 132 245 l24 11 -2 187 -3 188 -184 47 c-100 26 -185 48 -187 50
-6 6 -174 471 -174 482 0 5 10 20 21 32 29 31 36 101 15 146 -42 87 -168 95
-222 13 -19 -29 -21 -95 -3 -123 12 -18 3 -31 -95 -136 l-109 -116 33 -78 c18
-42 34 -82 37 -89 2 -6 -39 -37 -92 -69 -54 -32 -99 -63 -102 -69 -2 -7 10
-133 27 -280 17 -147 30 -271 28 -276 -2 -4 -38 149 -81 342 -43 192 -76 353
-73 358 3 4 44 31 90 60 47 29 88 56 91 61 3 4 -9 40 -27 79 l-31 72 30 32
c16 18 88 97 160 177 119 133 139 150 234 207 57 34 107 62 110 62 3 1 61
-152 129 -339z m2094 118 c159 -173 166 -182 149 -200 -16 -18 -17 -18 -37 0
-19 17 -207 176 -248 210 -14 12 -20 8 -50 -31 -33 -45 -33 -45 -219 -102
l-186 -57 -41 -84 -42 -84 -138 0 -138 0 -39 -77 c-38 -74 -40 -84 -45 -190
l-5 -113 -32 26 -33 25 0 127 0 127 57 112 58 113 137 0 137 0 42 78 42 79
168 51 c91 29 174 52 182 52 9 0 37 27 62 60 25 33 48 60 50 60 2 0 78 -82
169 -182z m-2296 -4 c66 -46 39 -127 -50 -149 -21 -5 -33 -1 -52 19 -73 72 19
188 102 130z m2252 -121 c55 -47 100 -90 100 -94 0 -4 -87 -68 -192 -143 -174
-123 -185 -130 -118 -69 41 37 93 85 115 105 l40 38 -50 -15 c-27 -8 -113 -34
-191 -56 l-140 -42 -54 -83 c-61 -92 -50 -87 -210 -99 -41 -3 -84 -8 -96 -10
-44 -9 -54 -80 -30 -213 l13 -73 -29 28 c-17 15 -48 54 -69 85 -38 56 -39 58
-39 149 0 87 2 95 37 160 l37 69 138 0 138 0 42 85 43 85 140 44 c77 25 159
50 182 57 29 8 50 23 65 45 13 19 24 34 26 34 1 0 47 -39 102 -87z m-3107
-767 l167 -624 0 -268 0 -269 144 -113 144 -112 6 -63 c4 -34 18 -237 31 -452
l25 -390 243 -242 242 -243 -95 0 -95 0 -177 178 -176 177 -27 425 c-14 234
-28 435 -31 447 -3 15 -58 65 -149 138 l-145 115 0 282 0 282 -152 565 c-83
311 -154 570 -158 574 -4 4 -172 -131 -373 -302 -201 -171 -414 -351 -473
-401 l-107 -90 -181 0 -181 -1 -482 -783 -483 -783 -65 -25 -65 -26 0 132 0
132 108 43 c59 23 113 46 121 50 8 4 196 325 418 714 l404 707 192 0 192 1
500 424 c275 233 503 424 506 425 3 0 81 -281 172 -624z m3416 526 c11 -21 27
-66 35 -99 17 -65 21 -111 5 -55 -10 33 -10 33 -34 15 -13 -10 -194 -155 -402
-322 l-378 -303 -277 -128 -276 -127 -25 25 c-34 34 -101 40 -144 13 -66 -41
-82 -134 -32 -187 l22 -24 -83 -173 -84 -174 -350 -159 c-227 -103 -405 -191
-503 -249 l-153 -90 0 -45 c0 -25 7 -137 15 -250 19 -268 20 -254 -11 -270
-14 -8 -32 -27 -40 -42 -40 -77 11 -158 101 -158 49 0 105 53 105 99 0 46 -27
91 -64 106 l-32 14 -12 203 c-7 112 -15 228 -18 259 l-6 56 144 84 c80 46 304
157 500 247 l356 164 86 179 85 179 43 0 c69 0 107 36 117 115 l6 40 282 125
283 125 364 294 c200 161 368 293 373 293 8 1 64 -214 57 -221 -2 -2 -9 1 -16
7 -43 35 -131 16 -170 -38 -19 -26 -26 -79 -15 -115 5 -17 -36 -54 -241 -218
l-247 -197 -321 -142 -321 -142 -108 -232 -108 -231 -376 -167 c-404 -180
-601 -285 -601 -321 0 -12 7 -121 16 -243 l15 -222 -40 -38 c-35 -34 -41 -45
-41 -81 0 -57 50 -111 101 -111 118 0 159 157 55 207 -30 14 -36 22 -36 48 0
34 -17 321 -24 393 l-4 43 92 54 c50 30 260 131 466 226 206 94 380 176 387
182 7 7 59 113 117 237 l105 225 317 142 317 142 259 196 c213 161 262 194
274 184 8 -6 29 -15 46 -18 29 -6 34 -12 41 -51 5 -25 103 -271 218 -547 l210
-503 -3 -126 -3 -127 -235 566 c-129 312 -239 567 -244 567 -5 0 -106 -78
-225 -174 l-216 -173 -238 -106 -238 -107 -22 21 c-70 65 -191 17 -204 -81 -5
-33 -1 -52 16 -84 l23 -41 -84 -169 -83 -168 -401 -183 c-221 -100 -427 -198
-457 -216 l-55 -34 5 -87 c6 -87 6 -87 -26 -123 -42 -48 -43 -101 -2 -147 25
-28 36 -33 76 -33 40 0 51 5 76 33 52 58 33 141 -41 172 -30 12 -30 13 -30 91
l0 78 143 69 c78 38 280 131 450 208 l307 139 86 176 86 177 41 6 c75 12 112
56 120 140 l3 40 239 107 239 107 200 160 201 160 42 -101 c24 -56 43 -103 43
-105 0 -2 -10 4 -22 12 -29 21 -93 20 -128 -1 -43 -25 -64 -71 -58 -127 l6
-47 -84 -68 c-75 -60 -112 -79 -366 -191 -218 -97 -285 -131 -295 -150 -8 -14
-58 -119 -111 -233 l-98 -208 -404 -185 c-223 -101 -416 -190 -430 -197 -24
-12 -25 -17 -25 -104 0 -89 0 -91 -28 -103 -82 -36 -70 -171 17 -200 104 -34
190 86 121 169 -14 16 -35 33 -45 36 -18 6 -20 16 -20 83 l0 77 318 144 c174
80 367 168 427 196 l110 51 109 231 108 231 276 123 c245 110 287 132 368 196
83 64 94 70 111 57 10 -7 34 -14 54 -14 l36 0 203 -486 c176 -421 208 -489
237 -513 l34 -28 -3 -97 -3 -97 -51 36 -51 36 -204 469 c-112 258 -207 470
-210 470 -4 0 -37 -24 -74 -54 -51 -41 -117 -76 -272 -145 l-205 -91 -30 25
c-33 28 -96 34 -136 11 -63 -34 -79 -117 -37 -180 l25 -38 -83 -165 -84 -165
-337 -154 c-315 -143 -340 -153 -359 -139 -45 32 -128 12 -153 -36 -23 -46
-18 -94 15 -131 25 -28 36 -33 75 -33 61 0 106 42 113 106 l5 44 332 150 331
151 90 177 c87 171 91 177 125 183 77 14 110 47 124 125 l6 36 212 92 c135 59
231 107 262 132 27 22 50 38 52 36 3 -3 94 -218 94 -223 0 -2 -16 8 -36 21
-88 60 -204 -2 -204 -108 0 -22 -19 -33 -177 -105 l-177 -81 -107 -228 c-85
-181 -113 -231 -134 -242 -15 -7 -59 -28 -99 -46 -71 -32 -72 -32 -95 -14 -15
12 -39 19 -68 19 -63 0 -103 -40 -103 -102 0 -52 21 -85 66 -104 75 -31 145
17 156 105 3 20 20 32 105 70 56 25 106 51 111 56 5 6 55 110 113 232 l104
222 167 76 168 75 36 -25 c21 -14 51 -25 69 -25 37 0 18 39 235 -481 l82 -197
108 -78 c82 -60 109 -85 110 -101 l0 -23 -632 1 c-440 1 -619 4 -588 11 25 6
248 13 496 17 l451 6 -137 329 c-76 181 -141 336 -146 343 -7 12 -35 3 -150
-47 l-142 -62 -53 -113 c-53 -111 -54 -113 -92 -118 -75 -10 -121 -85 -93
-150 30 -72 114 -92 175 -41 42 35 49 82 22 134 l-21 40 52 104 52 104 115 50
116 50 13 -32 c57 -132 232 -555 232 -560 0 -3 -105 -5 -232 -5 -228 1 -231 2
-153 14 44 8 120 14 169 14 80 1 87 3 81 19 -25 65 -120 288 -125 295 -8 9
-90 -21 -90 -33 0 -4 -15 -11 -33 -14 -73 -14 -114 -74 -96 -139 23 -86 133
-105 191 -33 25 30 24 106 -2 139 -13 16 -16 28 -10 32 6 4 17 -10 26 -32 9
-21 29 -69 45 -108 16 -38 29 -73 29 -77 0 -5 -65 -8 -144 -8 -112 0 -268 -14
-712 -65 l-569 -66 -354 -166 -353 -166 -259 259 -258 259 -27 406 c-15 223
-25 412 -22 420 3 9 82 61 174 116 122 73 263 144 505 253 l335 152 116 232
116 231 336 150 336 150 426 343 c235 188 428 342 430 342 2 0 12 -17 23 -38z
m-325 -2 c-6 -6 -121 -100 -255 -209 -241 -195 -244 -197 -247 -168 -2 18 2
34 10 38 7 4 121 84 253 178 228 161 263 185 239 161z m-244 -44 c-14 -13 -87
-78 -163 -144 -133 -117 -138 -121 -167 -110 -73 25 -139 -18 -147 -96 -5 -42
-3 -48 31 -82 20 -20 35 -38 34 -39 -6 -6 -81 -35 -83 -33 -7 9 -25 168 -25
217 l0 59 130 12 130 13 56 86 55 86 82 27 c45 14 84 26 87 27 2 1 -7 -10 -20
-23z m-2931 -690 l141 -540 0 -290 0 -291 148 -115 147 -116 29 -444 28 -445
171 -172 172 -173 -1595 0 c-1331 1 -1600 3 -1625 15 -26 11 59 13 611 14 352
1 1020 4 1483 8 l842 6 -81 82 -81 82 -29 434 c-17 239 -30 439 -30 445 0 6
-67 64 -150 128 l-150 117 0 312 -1 312 -117 438 c-65 241 -122 438 -126 438
-4 0 -167 -135 -363 -301 -294 -249 -360 -300 -377 -295 -81 27 -153 9 -181
-45 -15 -29 -16 -29 -112 -32 l-97 -3 -498 -710 -498 -710 -87 -37 c-49 -21
-91 -37 -95 -38 -5 0 -8 17 -8 39 l0 39 80 33 80 33 377 610 c207 336 423 686
480 779 l104 167 177 0 177 1 454 385 c250 211 455 383 456 382 2 -2 67 -246
144 -542z m3558 522 c-3 -8 -6 -5 -6 6 -1 11 2 17 5 13 3 -3 4 -12 1 -19z m52
-208 c-1 -8 -12 26 -25 75 -13 50 -23 97 -23 105 1 8 12 -25 25 -75 13 -49 23
-97 23 -105z m-80 -35 c77 -39 40 -155 -49 -155 -30 0 -80 53 -80 85 0 32 49
85 80 85 11 0 34 -7 49 -15z m88 -7 c-3 -8 -6 -5 -6 6 -1 11 2 17 5 13 3 -3 4
-12 1 -19z m157 -403 c103 -245 117 -285 114 -328 -3 -45 -9 -31 -121 265
-111 296 -147 404 -146 438 0 8 8 -10 18 -40 10 -30 71 -181 135 -335z m-3911
-87 l101 -383 6 -339 5 -340 145 -114 c80 -62 146 -117 147 -120 2 -4 16 -205
32 -446 l30 -439 53 -54 52 -53 -1446 0 c-1273 0 -1447 2 -1458 15 -11 13 139
15 1344 15 l1357 0 -5 43 c-3 23 -15 193 -26 377 -12 184 -23 349 -26 367 -4
27 -28 50 -154 150 l-149 118 -1 332 0 331 -81 314 c-45 172 -84 316 -88 320
-3 4 -151 -117 -329 -268 l-322 -274 -148 0 -147 0 -522 -644 -522 -643 -113
-46 c-62 -26 -116 -47 -120 -47 -5 0 -8 17 -8 38 l0 38 107 45 106 44 498 705
498 705 80 3 79 3 7 -29 c3 -16 20 -42 36 -58 26 -25 38 -29 84 -29 48 0 58 4
87 33 30 30 33 38 33 95 l0 63 333 283 c184 155 336 280 339 278 2 -3 50 -178
106 -389z m3906 -56 l152 -363 -3 -127 -3 -126 -183 439 c-101 242 -188 461
-194 487 -11 46 -10 48 23 85 l34 38 11 -35 c6 -19 79 -198 163 -398z m-2044
-52 c-94 -187 -120 -233 -142 -241 -14 -5 -27 -8 -29 -6 -2 2 42 100 97 219
97 207 102 216 142 236 23 11 43 21 45 21 1 1 -50 -103 -113 -229z m-1965
-174 l70 -269 0 -342 0 -341 155 -113 c133 -98 155 -117 159 -145 6 -34 46
-654 46 -698 l0 -28 -1352 1 c-1052 0 -1347 3 -1328 12 19 9 343 13 1285 17
l1260 5 -2 35 c-2 19 -10 148 -18 285 -11 170 -20 253 -29 260 -6 6 -74 59
-149 119 l-137 108 0 356 0 355 -51 191 c-28 105 -53 193 -54 194 -2 2 -117
-93 -255 -212 l-251 -216 -132 0 -133 0 -434 -506 -434 -505 -37 6 c-43 7 -89
-12 -113 -47 -47 -66 10 -168 93 -168 56 0 99 39 109 98 l7 43 509 270 508
269 95 0 95 0 59 51 59 51 0 -294 0 -293 155 -120 c85 -66 155 -126 155 -132
0 -10 -86 -13 -402 -12 l-403 2 180 16 c99 9 186 20 193 24 9 6 12 67 12 248
l0 239 -57 0 -58 0 -38 -70 c-37 -69 -38 -70 -78 -70 -116 0 -139 -165 -29
-210 45 -19 105 1 131 43 23 37 21 100 -5 125 -13 14 -12 21 17 74 24 44 37
58 55 58 l22 0 -2 -192 -3 -193 -195 -17 c-182 -16 -371 -38 -1189 -138 -179
-22 -327 -37 -330 -34 -6 6 -20 123 -20 175 l-1 36 137 57 138 58 515 634 514
634 146 0 145 0 305 259 c244 207 307 255 313 242 4 -9 39 -137 77 -285z
m2365 199 c54 -54 13 -145 -65 -145 -30 0 -80 53 -80 85 0 16 12 38 29 56 38
37 82 39 116 4z m-3090 -100 c52 -51 14 -139 -60 -139 -29 0 -43 7 -61 28 -49
56 -13 136 61 136 25 0 44 -8 60 -25z m4440 -60 c27 -26 33 -72 15 -105 -15
-29 -76 -42 -110 -25 -72 37 -41 155 40 155 19 0 40 -9 55 -25z m269 -500
l176 -419 0 -103 c0 -83 -3 -101 -14 -97 -7 3 -104 222 -214 486 l-201 481 25
26 c14 14 28 38 31 55 5 25 7 27 14 10 4 -10 86 -208 183 -439z m-4110 237
l36 -133 0 -372 0 -373 154 -129 153 -128 12 -191 c7 -105 15 -219 18 -253 l6
-63 -1039 1 c-893 1 -1029 3 -969 14 55 11 269 14 978 14 860 1 908 2 903 19
-2 9 -7 78 -11 152 -4 74 -8 142 -11 151 -2 8 -74 69 -159 135 l-154 119 -1
393 c0 350 -6 467 -26 491 -1 1 -65 -49 -141 -113 -95 -80 -142 -114 -153
-109 -8 3 -36 8 -61 11 -38 3 -51 -1 -77 -23 -17 -14 -34 -35 -37 -45 -5 -17
-16 -20 -58 -20 l-52 0 -345 -286 c-190 -158 -379 -314 -420 -348 l-75 -61
143 170 c79 94 250 297 380 452 l237 282 128 0 128 1 231 201 c163 142 233
197 239 187 3 -7 23 -73 43 -146z m2841 3 c41 -40 33 -105 -16 -130 -39 -21
-56 -19 -84 10 -50 49 -17 145 50 145 14 0 37 -11 50 -25z m-2965 -646 l0
-406 154 -119 154 -119 6 -60 c3 -33 8 -95 11 -137 l6 -78 -722 0 c-397 0
-719 3 -715 7 4 5 301 10 659 13 l652 5 0 45 0 44 -157 124 -158 123 0 325 c0
178 -3 324 -6 324 -3 0 -42 -31 -87 -70 l-82 -70 -97 0 -96 0 -384 -206 c-210
-113 -417 -224 -458 -246 -41 -23 -68 -34 -60 -26 8 8 199 167 423 352 376
309 411 336 446 336 34 0 39 -4 54 -39 21 -46 55 -71 106 -78 47 -6 99 28 125
81 16 33 17 43 7 78 l-12 40 43 36 c23 21 72 62 108 93 43 38 68 53 72 45 4
-6 8 -194 8 -417z m3296 237 c58 -49 20 -146 -57 -146 -43 0 -79 39 -79 85 0
74 80 110 136 61z m-3565 -12 c26 -24 33 -68 15 -102 -18 -34 -33 -42 -84 -42
-64 0 -100 61 -76 125 16 42 107 54 145 19z m4185 2 c58 -49 20 -146 -57 -146
-41 0 -79 39 -79 83 0 75 80 112 136 63z m229 -351 l128 -310 73 -53 74 -53 0
-95 c0 -77 -3 -93 -13 -87 -8 4 -50 34 -95 66 l-80 59 -141 325 -141 325 24
29 c28 33 40 78 31 111 -13 48 14 -14 140 -317z m255 -770 c0 -13 -104 -15
-882 -14 -738 1 -871 3 -808 14 55 9 295 12 883 14 711 1 807 -1 807 -14z m8
-77 c-4 -10 -214 -14 -998 -16 -883 -2 -991 0 -980 13 11 13 133 15 997 15
783 0 984 -3 981 -12z m-8 -63 c0 -13 -123 -15 -1047 -15 -924 1 -1046 2
-1029 15 17 13 159 15 1048 15 907 0 1028 -2 1028 -15z m-40 -70 c-11 -13
-144 -15 -1088 -15 -948 0 -1074 2 -1056 15 16 12 164 14 1088 15 949 0 1067
-2 1056 -15z m-66 -70 c-16 -12 -167 -14 -1113 -15 -965 0 -1093 2 -1075 15
16 12 167 14 1113 15 965 0 1093 -2 1075 -15z"/>
</g>
</svg>
