<svg id="tb_background_fade" xmlns="http://www.w3.org/2000/svg" width="1280" height="1024" viewBox="0 0 1280 1024">
  <defs>
    <style>
      .cls-1 {
        fill: #fff4e3;
      }

      .cls-2 {
        fill: none;
      }
    </style>
  </defs>
  <path class="cls-1" d="M599.92,417l-67.7,57.37-45.46-24-10.41-15-18.76-18.76-.11-.12L429.87,409l-55.42,56.47-44.3,25.76-65.63-75L235.14,431l-17.77-6.28L97.19,513.5l-97,95.88-.18.18v60.27H.62V676H1280V662.43h0V523.32l-105.87-35.43-17.72-14.59-69.82-16.94-37.52-18.49L1018.85,440l-27.09-7.39-10.42-22.92L963.62,417l-20.84-39.6H924L918.81,387l-8.34-4.81-38.55,22.29-8.34,17.71h-7.06l-3.17,3,3.17-3L815.21,387l-9.09,12-26.44,8.26L774.73,417h-19l-9.9,19.13v-7.66L737.48,417l-26.05-7.38-19.8-54.1-6.25-7.3-40.64,22.93-34.39,38.47,2.4,5.67-11.17,6.92m256.9,4.94h8.23l1.33-2.83L875.72,408l34.76-20.09,5.87,3.38,4.38,2.53,2.42-4.45,3.81-7H939.8l19.45,37,2.11,4,4.16-1.74,13.3-5.55,8.45,18.58,1,2.11,2.24.61,27.1,7.38.8.22.83-.06,28.9-2,36.32,17.91.49.24.53.13,68.72,16.67L1171,491.7l.71.58.86.29,102.5,34.3V662.43h-4.93V536.6l-100.87-33.76-17.38-14.31-68.68-16.66-36.1-17.8-29.23,2-33.18-9-4.38-9.63a8.57,8.57,0,1,0-13.2-7.21,8.73,8.73,0,0,0,.27,2.12l-8.29,3.46-22.27-42.31H929.9l-7.24,13.35-12.18-7-31,17.89-9.69,20.59h-6.91l8,32.81,29.9,71.79-4-2.93-30.58-73.4-8.25-34-.15-.64-.31-.57-1.16-2.12ZM425,434.87a8.55,8.55,0,0,0,13.7-2.86l8.33,2.24,15.64,15.64,11.5,16.63,15,7.91h-2.23L428.19,577,391.7,591.76,402.23,578a7.36,7.36,0,1,0-1.82-1.68l-16.16,21.14,45.66-18.5,58.46-102h5.86l-.71,1.24L437.05,576.7l-68.5,27.75,32.6-42.63,5-34.57,4.78-.33h9.88a4.58,4.58,0,0,0,4.58-4.58v-.24l-4.07-1.31,14.86-20.46-8.29-12-2.53-2.56-9.83,10a7.35,7.35,0,1,0,1.76,1.73l8.08-8.24.55.55,7.23,10.45L418.82,520l-31.58-10.13,36.91-37.6a8.55,8.55,0,0,0,10.17.41l3.85,3.84L450,493.64,423.5,539.9a7.45,7.45,0,0,0-2.6-.48,7.35,7.35,0,1,0,4.73,1.73l27.29-47.63L440.13,475l-4-4a8.57,8.57,0,0,0-6.62-14,8.56,8.56,0,0,0-7.05,13.45L384.61,509l-15-4.82L381.93,497l47.86-48.76,7.81,2.11,12.83,12.83,12.48,18,5.49,2.91-43.65,74.62a7.38,7.38,0,1,0,2.13,1.25l44.95-76.85-7.24-3.83L452.4,461.71l-13.52-13.54L429,445.52l-48.63,49.54-14,8.14-15.53-5,27.74-16.13.14-.08Zm-.27-6.26a6.11,6.11,0,1,1,6.1,6.11A6.11,6.11,0,0,1,424.76,428.61ZM500.38,642.1h82.47l-.39-5.93L560.59,619V574.33l-11.72,9.93H536.1l-67.26,35.63,61.58-50.44h6.3a8.57,8.57,0,1,0,15.56-5.57l16.07-13.62.88,3.28v55.09l21.59,17,1.25,19H484.62Zm38.77-73.31a6.11,6.11,0,1,1,6.11,6.1A6.12,6.12,0,0,1,539.15,568.79ZM468.83,647H594.71l-1.5-22.71-21.52-16.89V553.37l-2-7.5-19.14,16.21a8.48,8.48,0,0,0-5.32-1.87,8.59,8.59,0,0,0-8.38,6.77h-7.35l-61,49.94,50.7-59.11a8.56,8.56,0,0,0,13.32-5.64h9l32.89-27.87,5.81,21.6v51.16l21.24,16.68,2.37,35.76H453.08ZM518,550.76a6.11,6.11,0,1,1,6.11,6.1A6.12,6.12,0,0,1,518,550.76ZM405.74,656.89H618.43l-3.72-56.26L593.9,584.28V538.1l-11.82-44.16-45.43,38.49H516.52l-72.17,88.62-20.6,8.41a7.34,7.34,0,0,0-6.23-3.47,6.58,6.58,0,0,0-.9.06l25.47-10.31,69.22-98.12h11.85a8.57,8.57,0,0,0,17.13-.44,8.46,8.46,0,0,0-1.19-4.32l47.78-40.48,15.66,58.24v43.29L623.08,590l4.06,61.41,7.9,7.91H390ZM525.6,517.18a6.11,6.11,0,1,1,6.11,6.11A6.12,6.12,0,0,1,525.6,517.18ZM374.2,661.82H641l-11.46-11.45-4.07-61.59L605,572.71V530.46L588.25,468l-50.69,42.95a8.55,8.55,0,0,0-14.17,4.22H510l-69.54,98.58-52,21a7.32,7.32,0,0,0-6.25-3.5c-.25,0-.49,0-.73,0l56.82-22.9,62.24-101a8.37,8.37,0,0,0,2.93.53,8.58,8.58,0,0,0,8.52-7.61h17.41l63.64-53.92L613.64,523v39.36l20.19,15.86,4.11,62.18,22,22H370.32ZM497.38,499.38a6.11,6.11,0,1,1,6.11,6.11A6.12,6.12,0,0,1,497.38,499.38Zm-74-33.79a6.11,6.11,0,1,1,6.11,6.1A6.12,6.12,0,0,1,423.4,465.59Zm-63.85,142.5-3.25,1.32-.18.07-.17.09L250.23,662.43h-4.86l102.55-51.28,14.32-6.57ZM682,454.56l-12.46-34a8.58,8.58,0,1,0-12-2.6l-14.7,16.45,5.18,12.22-14.18,8.81,5.54,48.88L626.2,445.36,639.68,437l-4.42-10.46,21.9-24.5,16.19-9.13,17.71,48.38,28.85,8.17v31.34l4.92,4.22-10.32,4.61L698.83,522l-40.32,18.44L639.08,553l-1.73-1.36,17.65-14,34.94-16,15.7-32.45,3.16-1.41V462.16Zm-17.18-35.08a6.11,6.11,0,1,1,6.11-6.1A6.11,6.11,0,0,1,664.82,419.48ZM680,377.41a8.38,8.38,0,0,0,1.75-.18L699.54,426l28,7.93,3.46,4.77v30.84l14.36,12.31-22.63,10.11-15.65,32.36L663.57,544.2l-20.44,11.93-2-1.57,18.48-11.89,41-18.77,15.67-32.4,13-5.83-7-6V447.59l-29.44-8.34-18.27-49.93-19.08,10.76-23.22,26,4.22,10-13.18,8.18,13.34,59.51L613.44,434l12.31-7.65-3.46-8.19,27.81-31.11,23.07-13A8.57,8.57,0,0,0,680,377.41Zm-6.11-8.57A6.11,6.11,0,1,1,680,375,6.12,6.12,0,0,1,673.84,368.84Zm42.82,291.75H948.84l-28.21-50.52-6.74-18.53-30.84-22.61L848.91,487l-1.84-7.58a8.61,8.61,0,0,0,5.18-6.18l1.16,4.8,33,79.19,31,22.74,7.36,20.25,34.74,62.23H713.86Zm127.2-183a6.11,6.11,0,1,1,6.11-6.11A6.11,6.11,0,0,1,843.86,477.56Zm131.82-38.78a8.58,8.58,0,0,0,2.39-.35l4.85,10.69,34.7,9.46,29-2,35.76,17.63,68.39,16.59,17.3,14.24,99.61,33.33V662.43H989.8l2.45-1.84H1259V550.76l-95.24-31.87-17-14-67.4-16.34-34.52-17-28.11,1.94-40-10.91-6.09-13.4L954,456.11l-20.72-39.38L927,428.31l-16.5-9.51L888.1,431.74,877,455.34l4.48,18.46L909.87,542l31.69,23.23,9.93,27.32L969.13,632,943.61,590l-9.27-25.5-31.52-23.1-29.56-71-7.2-29.66h5.35l10-21.31,29.05-16.79,13.14,7.58,7.75-14.3h4l22.63,43,10.37-4.33A8.57,8.57,0,0,0,975.68,438.78Zm-6.11-8.58a6.11,6.11,0,1,1,6.11,6.11A6.12,6.12,0,0,1,969.57,430.2ZM932.27,566l9.1,25L973.48,644a7.33,7.33,0,0,0-2.41,4.22l-34.21-61.26-8.2-22.55-.49-1.34Zm43.36,90.3a7.35,7.35,0,1,0,.83-13.94l-22.68-50.76L943.62,563.7l-31.74-23.28-28-67.3-4.25-17.52L890,433.49l20.49-11.84L928,431.71l5.28-9.74,19.63,37.28,16.54-6.89L975,464.63,1016.51,476l27.87-1.93,34.17,16.85,67.11,16.28,16.92,13.93,94,31.45V658.12h-261l3.29-2.46h249.09V564.93l-89.6-30-16.62-13.68-66.12-16L1043,489.13l-.3-.15-27,1.87L969.26,478.2A8.57,8.57,0,1,0,955,471.77a8.38,8.38,0,0,0,.25,2l-6.39,2.66-15.77-30-1.8,3.33-20.83-12-13.83,8-8,16.91,3.35,13.81,26.88,64.55,31.91,23.4,10.8,29.69L986,631.48a7.33,7.33,0,1,0,5-2,7.67,7.67,0,0,0-1.74.21l-15.19-35-11.85-32.59L930,538.52l-25-60-2-8.22,4.11-8.74,3.37-1.95,15.74,9.08,16.42,31.2,15.42-6.43,1,2.18,55,15,.2.06,25.64-1.77,31,15.28,64.55,15.66,16.15,13.3,82.72,27.68v67.39H1008.7l3.28-2.46h213.74V593.26l-78.35-26.21L1131.52,554,1068,538.57l-29.47-14.52-.3-.15-24.77,1.71-48.66-13.27a8.57,8.57,0,0,0-17.08,1v0l-9,3.74-18.94-36-7.83-4.52,1.29,5.32,23.83,57.23,32.36,23.73,12.44,34.21,15.87,22.55a7.34,7.34,0,1,0,5.18-2.14,7.12,7.12,0,0,0-1.32.13l-20.83-57.08-32.62-23.93-.92-2.2,9.62-4,55,15,.21.06,23.4-1.62,27.83,13.72,62,15,15.4,12.68,71.45,23.92V638.4H1021.85l3.28-2.46h178.38V621.6l-67.08-22.45-15.1-12.44-61-14.79-26.3-13-.3-.15-22.54,1.56-39-10.64L988,561.3l14.21,39.11,7.37,8a7.34,7.34,0,1,0,9.17-2l3.07-9.66,7-.49,23.07,11.38,58.13,14.1,2.32,1.9h-73.24l-1.69-.7a3.77,3.77,0,0,0-3.73.47l-52.1,39H979Zm29.78-5.6h231.41V579.1l-84-28.1-16.24-13.38-64.83-15.72-31.06-15.31-.3-.15-25.88,1.79-53.7-14.65-1.5-3.29-15.54,6.48-15.71-29.84L910.5,456.78l-5.27,3.05-4.81,10.23,2.22,9.15L928,540.1l32.13,23.57,11.63,32L984,624,963.86,593l-11-30.13L921,539.47l-26.52-63.64L891.31,463l7.26-15.43,11.93-6.89,21.78,12.56.81-1.49,14.67,27.87,8.44-3.51a8.55,8.55,0,0,0,10.62,3.64l.2.44,48.18,13.13.2.06,26.75-1.85,32.59,16.07,65.83,16,16.53,13.62,88.36,29.57v86.48H1002.12Zm-47.91-179a6.11,6.11,0,1,1,6.1,6.1A6.11,6.11,0,0,1,957.5,471.77Zm61.06,169.1h196V607.43L1141.9,583.1l-15.48-12.75-62.26-15.1-27.88-13.75-.3-.15L1012.32,543l-55.25-15.07-.41-.11L944,533.09l2.13,5.11,32.58,23.89L992,598.64l6.55,17.89L984.11,596.1l-12.64-34.77-32.4-23.76-23.3-55.91,2.14,1.24,19.66,37.34,10.36-4.32a8.57,8.57,0,0,0,16.85-1L1013,528l.2.06,24.53-1.69,29.41,14.5,63.26,15.34,15.78,13,77.09,25.8v48.29h-208ZM950.19,513.64a6.08,6.08,0,1,1,6.07,5.8A6.09,6.09,0,0,1,950.19,513.64Zm88.1,112.44h80.91l-8-6.64-58.42-14.16-23.43-11.55-9.34.64-3.58,11.26a8.42,8.42,0,0,0-1-.07l-.75-4.47-7.87-21.7,3.11.85,21.17-1.46,24.66,12.15,59.42,14.41,14.63,12.06,33.31,11.14H1035Zm-6.58,4.93H1178.2L1131,615.2l-14.72-12.12-59.7-14.48-24.71-12.18-.3-.15-21.43,1.48-7.3-2,9.4,25.85.74,4.36a7.31,7.31,0,0,0-1.56.77l-7-7.64L990,559.76l-5.66-4.15,26.39,7.19.2.06,22.29-1.54,26.24,12.94L1120.2,589l15,12.36,65.83,22v10.1H1028.43ZM853.16,433.7l8.33,34.39-8.33-34.39-1-1.81ZM849.68,435,857.9,469l.07.28.11.27,31.26,75,.4,1,.83.61,30.36,22.27,8,21.87.1.28.15.26,40,71.65h-6.81l-35.27-63.16-7.59-20.86-31.06-22.78-32.62-78.29-8.21-33.84L792.23,488l-38.71,17.3a8.56,8.56,0,1,0-12,11.68l-11.72,24.22-49.58,22.67L659.73,576l2.52,38.17a7.34,7.34,0,1,0,2.46-.21l-2.42-36.61,19-11.33,50.32-23,12.11-25a8.44,8.44,0,0,0,2.58.4,8.52,8.52,0,0,0,8.24-10.9l39-17.42,52.57-42.24,4.41,18.2a8.57,8.57,0,0,0-15.22,5.4,8.45,8.45,0,0,0,1.2,4.35l-34.72,27.89-44.46,19.87-15.59,32.21-52.66,24.08L675,588.26l2.28,34.52a7.35,7.35,0,1,0,2.47-.1l-2.19-33.08,12.63-7.53,53.41-24.43,15.58-32.2,43.93-19.63,35-28.08a8.53,8.53,0,0,0,5.82,2.3c.28,0,.55,0,.81,0l1.86,7.66L881,570.51l30.79,22.58L918.35,611l26.29,47.11H720.42l3.75-2.46H933.63l-19.42-34.78-5.9-16.2L877.7,582.22l-36.26-87-30.13,24.21-33.63,15a8.57,8.57,0,1,0-12.26,11.68l-11.74,24.26-55.74,25.49-7.75,4.61.85,12.81a7.35,7.35,0,1,0,2.45-.39l-.74-11.07,6.27-3.74,56.5-25.84,12.05-24.91a8.56,8.56,0,0,0,11.22-10.69l33.67-15,28-22.41,35.25,84.61,30.57,22.41,5.67,15.6,17.5,31.37H727.92l3.75-2.46H918.41l-10.63-19-5-13.88-30.39-22.29L844.5,528.7a8.59,8.59,0,1,0-11.71-3.14l-11.94,9.59-39.67,17.72L765.64,585l-58.83,26.91-1.39.82.82,12.26a7.35,7.35,0,1,0,2.47,0L708,614.06l59.48-27.2L783,554.76l39-17.43,12.29-9.84a8.53,8.53,0,0,0,5.91,2.37,8.76,8.76,0,0,0,2-.24l28.12,67.49,30.34,22.25,4.82,13.26,8.72,15.64H735.43l3.74-2.46h164l-1.85-3.3L897.15,631,867,608.82l-27.26-65.44-9.32,7.49L801.1,564a8.57,8.57,0,1,0-11.93,11.71L777.6,599.59l-47.32,21.64a7.33,7.33,0,1,0,1.34,2.1l47.81-21.86,12-24.77a8.56,8.56,0,0,0,11-8.23,8.37,8.37,0,0,0-.31-2.25l29.46-13.16,7.15-5.7,26.27,63,30.12,22.09L899,643.33H747.62l17.09-2.46H887.19l-25.56-18.75-19.16-46a8.6,8.6,0,1,0-12.64-5L805,582.19l-15.49,32-13.92,6.37a7.34,7.34,0,1,0,1.38,4.27,7,7,0,0,0-.3-2.05l14.68-6.71,15.48-32,24-10.7a8.6,8.6,0,0,0,7.24,4,8.27,8.27,0,0,0,2.12-.28l19.42,46.62,20,14.7H781.83l17.09-2.46h57.57L836.56,588.1,817,596.85l-7.92,16.36a7.46,7.46,0,0,0-2.13-.31,7.34,7.34,0,1,0,4.34,1.42l7.54-15.59,16.44-7.35,17.54,42.09H816L833.12,631h10.42l-9.15-22-5.48,2.44-.75,1.57a7.37,7.37,0,1,0,2.29.93l.29-.61,2.35-1,6.75,16.2h-18.4v.29L740,638.21l-50.44,23.73-36-36-3.93-59.4,23.93-14.28,46.71-21.37,1.22-.55.58-1.2,15-31.09,47.75-21.33.43-.2.37-.3,60.12-48.29Zm-97.28,74.8a6.11,6.11,0,1,1-6.11-6.11A6.12,6.12,0,0,1,752.4,509.84Zm24.37,29.51a6.11,6.11,0,1,1-6.11-6.11A6.12,6.12,0,0,1,776.77,539.35Zm63.44-12a6.11,6.11,0,1,1,6.11-6.11A6.12,6.12,0,0,1,840.21,527.4Zm-40.28,41.07a6.11,6.11,0,1,1-6.1-6.1A6.11,6.11,0,0,1,799.93,568.47Zm38.14,6.42a6.11,6.11,0,1,1,6.11-6.1A6.11,6.11,0,0,1,838.07,574.89ZM785.46,456.14a7.33,7.33,0,1,0-5,13l-9,4-.44-.38-1.8-13.08V454.2l.76-1.46L788.28,451,796,439.08l13.55-4.24ZM819.89,429,794.44,437l-7.58,11.64-18.42,1.79-1.65,3.18v6.2l1.45,10.59-4.58-3.92-5.5-8.12v-13l5.07-9.8h19.06l6-11.85,25.25-7.89,3.58-4.72,15.27,13-34,23.93Zm-69.13,8.31,8-15.39h19l1.38-2.7,4-7.89,24.45-7.64,1.51-.47.95-1.26,5.93-7.82,28.13,24-.3.24-55.74,44.77a7,7,0,0,0,.13-1.31,7.39,7.39,0,0,0-.72-3.15l49-34.43L816.76,407.5l-4.68,6.17-25.48,8-5.82,11.44h-19l-6,11.65v14.39l.84,1.23-5.77-4.94ZM607.29,424.5l8.06-5,3.59-2.23-1.65-3.89-1.18-2.78,31.76-35.53,36.4-20.53,3,3.53,19.5,53.27.86,2.36,2.42.69,24.42,6.92,6.39,8.78v29.85l1.72,1.47,18.92,16.23-29.19,13-1.64.73-.79,1.62-14.85,30.71-45.28,20.71-.25.11-.23.14-23.14,13.81-.94-.74,19.48-11.39,44.22-20.22,15.65-32.35,25.36-11.33-16.45-14.1V437.87L729,431.76l-27.62-7.83L684,376.38a8.58,8.58,0,1,0-12.65-7.54,8.37,8.37,0,0,0,.59,3.09l-23.42,13.21L619.4,417.73l3.26,7.68L610.48,433l29.27,87.48a7.35,7.35,0,1,0,3.88-.85l-7.14-62.92,14.65-9.09-5.39-12.73,13.44-15a8.52,8.52,0,0,0,8.11,1.75l12.81,35L706.34,464v22.16l-2.52,1.13-15.71,32.46-34.27,15.67L635.35,550l-1.57-1.23,28.86-22.06L647,467.88l15.62-9.7-6.35-15,1.71-1.9,11.2,30.62,23.6,6.69v7.14l-9.25,19.13a7.33,7.33,0,1,0,2.22,1.07l9.5-19.64v-9.57l-24.18-6.85-12.19-33.3-5.49,6.14,6.14,14.49-15.38,9.55,15.7,59-28.05,21.45-.87-.69V513.3l-.16-.63Zm-80.59,61,1.38-1.17,69.1-58.54L621,514.59v36.74l1.89,1.48L641,567l4,60.86.12,1.85,1.32,1.31,31.41,31.41H663.48l-23.14-23.14-4.12-62.36-20.11-15.79V522.82L594.43,442l-65.92,55.85H511.93a8.57,8.57,0,1,0-13.55,8.38L436.64,606.41l-86.81,35a7.32,7.32,0,1,0,.93,2.29l26.95-10.87a7.34,7.34,0,1,0,11.86,5.78,7.22,7.22,0,0,0-.17-1.55l23.71-9.59a7.34,7.34,0,1,0,11.75,5.86,7.5,7.5,0,0,0-.18-1.58l21.18-8.65,71.83-88.21h19.87l43.14-36.55,10.73,39.92v47.22l20.89,16.41,3.48,52.54H421.53L437.29,652H606.57L604,612.48,582.8,595.86V545.73l-6.9-25.83-35.18,29.8h-8.08a8.57,8.57,0,1,0-15.18,6.43l-55.19,64.34a7.38,7.38,0,1,0,3.2,4l71.25-37.74h13l8.35-7.07V620.2l22,17.23.14,2.2h-64l7.81-1.22h.09l24.81-2a2.14,2.14,0,0,0,1.15-3.81l-.54-.43V601.53h-7.36l-5.51,9.63a7.31,7.31,0,1,0,2.14,1.22l4.8-8.38H547v27.28l-23.46,2.14-.52.13L283.38,662.43H272.3l87.89-43.95,82.14-33.27,1.59-.64.84-1.48,55.9-97.56h26ZM377.31,470.27l.57-.33.47-.48,53.21-54.22,23,6.21L472.11,439l10.17,14.69.68,1,1.07.56,38.7,20.45h-26l-20.89-11L464.66,448.4,448.34,432l-9-2.41a8.74,8.74,0,0,0,.07-1,8.58,8.58,0,1,0-17.15,0,8.45,8.45,0,0,0,1.18,4.32L377.24,480,347.72,497.2l-10.79-3.46ZM5.55,611.88l95.3-94.18L218.3,430.89l15.24,5.38,2,.69,1.87-.93,25.77-12.89,63.14,72.17,2.68,3.06,3.52-2.05,1.42-.82,67.44,30.25-4.91,34.1-12.84,16.78L193.92,612.8l-3,1.58a1.6,1.6,0,0,0,1,3l11.59-2.08L177,628.54H111.53l71.64-52.95,8.7,3.07,1.15-.57,12.23,14a7.22,7.22,0,1,0,1.93-1.53L193.62,575l-1.91,1-9-3.15L104,631h73.58l34.57-17.28L232.7,610l-46.86,23.43H89.52l16.37-16.18L187.49,557l6.31,2.23a8.56,8.56,0,0,0,13.88,5.55l20.06,22.91a7.33,7.33,0,1,0,5-2,7.41,7.41,0,0,0-2.94.62l-20.44-23.37a8.57,8.57,0,1,0-15.51-6.32l-6.79-2.39-82.72,61.14L83.51,635.94H186.42l54.9-27.45,20.51-3.69-67.2,33.6h-126l36.17-35.74,87-64.28,10.92,3.85,8.06-4,39.48,45.12.16.18,4.41,2.28a7.34,7.34,0,1,0,6.94-5,7.32,7.32,0,0,0-5.75,2.8L252,581.52l-40.58-46.38-8.82,4.42-11.17-3.95-88.1,65.12L62.66,640.87H195.21l75.24-37.62L291,599.56l-87.54,43.77H47.81l56-55.3,92.35-68.26,12,4.25,3.38-1.69a8.53,8.53,0,0,0,12.29.69l39.58,45.23.15.18,12.1,6.23a7.44,7.44,0,0,0-.38,2.33,7.34,7.34,0,1,0,1.55-4.51l-11.72-6-39.7-45.38a8.57,8.57,0,1,0-15.21-.83l-2.21,1.1L195.7,517,102.22,586.1,41.8,645.8H204L299.59,598l43.07-7.75L314.87,597l-.13,0L212.22,648.26H27l75.74-74.86,97.74-72.23,13.14,4.63,15-7.48,42,48A8.57,8.57,0,1,0,283.67,557L297,563.8a7,7,0,0,0-.25,1.84,7.34,7.34,0,1,0,1.25-4.1l-13.41-6.91a9,9,0,0,0,.21-1.89A8.56,8.56,0,0,0,272.63,545l-43.49-49.7-15.73,7.87L200,498.4l-98.85,73.07L20.94,650.73H212.8l102.79-51.4,62.13-15-.66.86L325.45,601,221,653.19H16.64V642.76l85-84,103.11-76.21,14.26,5,11.94-6A8.55,8.55,0,0,0,243,484.78l46.66,53.32.15.17,27.84,14.35a7.24,7.24,0,0,0-.64,3,7.35,7.35,0,1,0,2-5.05L291.38,536.3,244.9,483.18a8.56,8.56,0,1,0-14.82-3.89l-11.25,5.63-14.5-5.12-104.24,77-.07,0L14.54,641.37l-.37.36v13.93H221.6l104.77-52.39,48.12-14.71-2,2.65-36.24,13.71-106.41,53.2H11.71V632l88.85-87.81L209.05,464l15.37,5.43,21.88-10.94,51.06,58.35a8.5,8.5,0,0,0-1.86,5.31,8.56,8.56,0,0,0,15.39,5.18l27.24,14a7.18,7.18,0,0,0-.23,1.81,7.34,7.34,0,1,0,1.23-4.07l-27-13.93a8.4,8.4,0,0,0,.56-3,8.57,8.57,0,0,0-13.5-7L246.9,455.38,224.25,466.7l-15.61-5.51L99,542.21l-.08,0L9.61,630.56l-.37.36v29.67H230.39l106.77-53.38,32.46-12.29-4.18,5.47-18.58,8.54-107,53.5H6.78V621.14L99.5,529.51l113.86-84.16,16.49,5.82,16.9-8.46a8.55,8.55,0,0,0,13.93,2.07l55.43,63.34L359,530.23a7,7,0,0,0-.26,1.9,7.35,7.35,0,1,0,1.29-4.15l-42.4-21.84-55.52-63.46a8.45,8.45,0,0,0,.88-3.75,8.58,8.58,0,1,0-17.15,0,9.36,9.36,0,0,0,.12,1.41l-16.3,8.15L213,442.58l-115,85-.07,0L5.55,618.89ZM196.19,558.1a6.11,6.11,0,1,1,6.11,6.1A6.12,6.12,0,0,1,196.19,558.1Zm15.72-41.37a6.11,6.11,0,1,1,6.1,6.11A6.11,6.11,0,0,1,211.91,516.73Zm64.3,29.91a6.11,6.11,0,1,1-6.11,6.1A6.11,6.11,0,0,1,276.21,546.64Zm-43.85-69.12a6.11,6.11,0,1,1,6.11,6.11A6.12,6.12,0,0,1,232.36,477.52ZM298,522.1a6.11,6.11,0,1,1,6.1,6.11A6.11,6.11,0,0,1,298,522.1Zm-49.64-83.17a6.11,6.11,0,1,1,6.1,6.1A6.11,6.11,0,0,1,248.33,438.93Z"/>
  <rect class="cls-2" width="1280" height="1024"/>
  <g>
    <path class="cls-1" d="M1259,683.66V793.48l-95.24,31.87-17,14-67.4,16.35-34.52,17-28.11-1.94-40,10.91-6.09,13.39L954,888.14l-20.72,39.38L927,915.93l-16.5,9.52L888.1,912.51,877,888.91l4.48-18.46,28.4-68.21L941.56,779l9.93-27.31,17.64-39.48-25.52,42.06-9.27,25.49-31.52,23.11-29.56,71-7.2,29.67h5.35l10,21.3,29.05,16.79L923.62,934l7.75,14.29h4l22.63-43,10.37,4.33a8.56,8.56,0,0,1,9.74-3.84l4.85-10.68,34.7-9.46,29,2L1082.36,870l68.39-16.59,17.3-14.24,99.61-33.34v-124H989.8l2.45,1.84Z"/>
    <path class="cls-1" d="M788.07,881.08a7.1,7.1,0,0,1,.13,1.31,7.36,7.36,0,0,1-.72,3.15l49,34.43-19.69,16.78-4.68-6.17-25.48-8-5.82-11.43h-19l-6-11.66V885.13l.84-1.23-5.77,5v18l8,15.39h19l1.38,2.69,4,7.9,24.45,7.64,1.51.47.95,1.26,5.93,7.81,28.13-24-.3-.24Z"/>
    <path class="cls-1" d="M948.84,683.66l-28.21,50.51-6.74,18.53-30.84,22.62-34.14,81.95-1.84,7.58a8.59,8.59,0,0,1,5.18,6.18l1.16-4.8,33-79.19,31-22.75L924.77,744l34.74-62.22H713.86l2.8,1.84Z"/>
    <path class="cls-1" d="M1015.4,850.91l26.75,1.84,32.59-16.06,65.83-16,16.53-13.61,88.36-29.57V691.05H1002.12l3.29,2.47h231.41v71.63l-84,28.1-16.24,13.37-64.83,15.73-31.06,15.31-.3.15L1014.54,836l-53.7,14.64-1.5,3.3-15.54-6.48-15.71,29.84L910.5,887.46l-5.27-3.05-4.81-10.22,2.22-9.16L928,804.14l32.13-23.56,11.63-32L984,720.27l-20.18,30.94-11,30.13L921,804.77l-26.52,63.65-3.12,12.86,7.26,15.43,11.93,6.9,21.78-12.56.81,1.49,14.67-27.88,8.44,3.52a8.56,8.56,0,0,1,7.4-4.28,8.41,8.41,0,0,1,3.22.64l.2-.44L1015.2,851Z"/>
    <path class="cls-1" d="M975.68,920.15a6.11,6.11,0,1,0-6.11-6.11A6.12,6.12,0,0,0,975.68,920.15Z"/>
    <path class="cls-1" d="M1151.89,855.71l-68.69,16.66-36.1,17.81-29.23-2-33.18,9-4.38,9.64a8.57,8.57,0,1,1-13.2,7.2,8.73,8.73,0,0,1,.27-2.12l-8.29-3.45-22.27,42.31H929.9l-7.24-13.36-12.18,7-31-17.89L869.84,906h-6.91l8-32.81,29.9-71.8-4,2.93L866.2,877.7l-8.25,34-.15.63-.31.57L856.33,915l2.15,2h8.23l1.33,2.83,7.68,16.32,34.76,20.09,5.87-3.39,4.38-2.53,2.42,4.46,3.81,7H939.8l19.45-37,2.11-4,4.16,1.74,13.3,5.54,8.45-18.57,1-2.11,2.24-.61,27.1-7.39.8-.22.83.06,28.9,2,36.32-17.91.49-.24.53-.12,68.72-16.67L1171,852.55l.71-.58.86-.29,102.5-34.31V681.82h-4.93V807.65L1169.26,841.4Z"/>
    <path class="cls-1" d="M985.62,694.75a7.3,7.3,0,0,1-9.16,7.1l-22.68,50.76-10.16,27.94-31.74,23.27-28,67.3-4.25,17.52L890,910.76l20.49,11.84L928,912.53l5.28,9.75L952.86,885l16.54,6.89L975,879.61l41.54-11.32,27.87,1.92,34.17-16.85,67.11-16.27,16.92-13.93,94-31.45V686.12h-261l3.29,2.47h249.09v90.72l-89.6,30L1141.7,823l-66.12,16L1043,855.11l-.3.15-27-1.86-46.39,12.65A8.57,8.57,0,1,1,955,872.48a8.26,8.26,0,0,1,.25-2l-6.39-2.66-15.77,30-1.8-3.33-20.83,12-13.83-8-8-16.91,3.35-13.81,26.88-64.55,31.91-23.4,10.8-29.69L986,712.77a7.33,7.33,0,1,1,5,2,7.15,7.15,0,0,1-1.74-.22l-15.19,35-11.85,32.58L930,805.72l-25,60-2,8.21,4.11,8.74,3.37,2,15.74-9.07,16.42-31.2,15.42,6.42,1-2.17,55-15,.2-.05,25.64,1.77,31-15.29,64.55-15.65,16.15-13.31,82.72-27.68V696H1008.7l3.28,2.47h213.74V751l-78.35,26.22-15.85,13.06L1068,805.67,1038.5,820.2l-.3.15-24.77-1.71-48.66,13.27a8.57,8.57,0,0,1-17.08-1h0l-9-3.75-18.94,36-7.83,4.51,1.29-5.32,23.83-57.23,32.36-23.73,12.44-34.21,15.87-22.54a7.35,7.35,0,1,1,5.18,2.13,8.1,8.1,0,0,1-1.32-.12L980.75,783.7l-32.62,23.93-.92,2.19,9.62,4,55-15,.21-.05,23.4,1.61,27.83-13.72,62-15,15.4-12.68L1212.14,735v-29.2H1021.85l3.29,2.47h178.37v14.34l-67.08,22.45-15.1,12.43-61,14.79-26.3,13-.3.15-22.54-1.55-39,10.64L988,782.94l14.21-39.1,7.37-8a7.34,7.34,0,1,1,9.17,2l3.07,9.66,7,.48,23.07-11.37,58.13-14.1,2.32-1.91h-73.24l-1.69.71a3.81,3.81,0,0,1-3.73-.47l-52.1-39H979l-3.4,6.09a7.33,7.33,0,0,1,10,6.84Z"/>
    <path class="cls-1" d="M1004.34,745.15,990,784.49l-5.66,4.15,26.39-7.2.2-.05,22.29,1.53L1059.5,770l60.7-14.72,15-12.37,65.83-22v-10.1H1028.43l3.28,2.47H1178.2L1131,729l-14.72,12.13-59.7,14.47-24.71,12.19-.3.15-21.43-1.48-7.3,2,9.4-25.85.74-4.37a7.27,7.27,0,0,1-1.56-.76Z"/>
    <path class="cls-1" d="M1009.86,764l21.17,1.46,24.66-12.16,59.42-14.41,14.63-12,33.31-11.15H1035l3.29,2.47h80.91l-8,6.63L1052.73,739l-23.43,11.55-9.34-.64-3.58-11.27a6.77,6.77,0,0,1-1,.08l-.75,4.47-7.87,21.7Z"/>
    <path class="cls-1" d="M928.66,779.89l-.49,1.33,4.1-3,9.1-25,32.11-52.91a7.3,7.3,0,0,1-2.41-4.22l-34.21,61.26Z"/>
    <path class="cls-1" d="M950.19,830.6a6.08,6.08,0,1,0,6.07-5.79A6.09,6.09,0,0,0,950.19,830.6Z"/>
    <path class="cls-1" d="M957.5,872.48a6.11,6.11,0,1,0,6.1-6.11A6.11,6.11,0,0,0,957.5,872.48Z"/>
    <path class="cls-1" d="M964.78,829.35,1013,816.2l.2-.05,24.53,1.69,29.41-14.5L1130.38,788l15.78-13,77.09-25.79v-48.3h-208l3.29,2.47h196v33.43l-72.71,24.34-15.48,12.75L1064.16,789l-27.88,13.75-.3.15-23.66-1.63-55.25,15.06-.41.11L944,811.15l2.13-5.11,32.58-23.89L992,745.61l6.55-17.89-14.42,20.43-12.64,34.76-32.4,23.76-23.3,55.91,2.14-1.23L937.57,824l10.36,4.31a8.56,8.56,0,0,1,16.85,1Z"/>
    <polygon class="cls-1" points="853.16 910.55 852.17 912.36 853.16 910.55 861.49 876.16 853.16 910.55"/>
    <path class="cls-1" d="M732.34,853.57l-1.64-.74-.79-1.62-14.85-30.7L669.78,799.8l-.25-.11-.23-.14-23.14-13.81-.94.74,19.48,11.38,44.22,20.22,15.65,32.35,25.36,11.33-16.45,14.11v30.5L729,912.48l-27.62,7.83L684,967.86a8.58,8.58,0,1,1-12.65,7.55,8.37,8.37,0,0,1,.59-3.09l-23.42-13.21L619.4,926.52l3.26-7.69-12.18-7.56,29.27-87.47a7.35,7.35,0,1,1,3.88.85l-7.14,62.91,14.65,9.1-5.39,12.73,13.44,15a8.54,8.54,0,0,1,5.63-2.13,8.86,8.86,0,0,1,2.48.37l12.81-35,26.23-7.44V858.06l-2.52-1.12-15.71-32.46-34.27-15.67-18.49-14.59-1.57,1.24,28.86,22.06L647,876.37l15.62,9.69-6.35,15L658,903l11.2-30.61,23.6-6.69v-7.14l-9.25-19.13a7.37,7.37,0,1,1,2.22-1.08l9.5,19.64v9.57l-24.18,6.86-12.19,33.3-5.49-6.14,6.14-14.5-15.38-9.54,15.7-59L631.78,797l-.87.68V831l-.16.62-23.46,88.18,8.06,5,3.59,2.22-1.65,3.89-1.18,2.79,31.76,35.53,36.4,20.53,3-3.54,19.5-53.26.86-2.37,2.42-.68,24.42-6.92,6.39-8.79V884.31l1.72-1.48,18.92-16.22Z"/>
    <path class="cls-1" d="M429.51,884.76a6.11,6.11,0,1,0-6.11-6.1A6.11,6.11,0,0,0,429.51,884.76Z"/>
    <path class="cls-1" d="M430.86,909.53a6.11,6.11,0,1,0,6.11,6.11A6.11,6.11,0,0,0,430.86,909.53Z"/>
    <path class="cls-1" d="M426.88,784.23l44.95,76.85-7.24,3.82L452.4,882.53l-13.52,13.55L429,898.73l-48.63-49.55-14-8.13-15.53,5,27.74,16.13.14.08L425,909.37a8.55,8.55,0,0,1,13.7,2.86l8.33-2.24,15.64-15.64,11.5-16.63,15-7.9h-2.23L428.19,767.27,391.7,752.49l10.53,13.77a7.41,7.41,0,1,1-1.82,1.69l-16.16-21.14,45.66,18.49,58.46,102.05h5.86l-.71-1.24-56.47-98.57-68.5-27.74,32.6,42.62,5,34.58,4.78.33h9.88a4.58,4.58,0,0,1,4.58,4.58v.23l-4.07,1.31,14.86,20.47-8.29,12-2.53,2.56-9.83-10a7.4,7.4,0,1,1,1.76-1.74l8.08,8.24.55-.54L433.13,844l-14.31-19.71-31.58,10.13L424.15,872a8.53,8.53,0,0,1,10.17-.4l3.85-3.85L450,850.6,423.5,804.34a7.23,7.23,0,0,1-2.6.48,7.35,7.35,0,1,1,4.73-1.73l27.29,47.64-12.79,18.49-4,4a8.57,8.57,0,1,1-13.67.55l-37.85-38.57-15,4.82,12.35,7.19L429.79,896l7.81-2.1L450.43,881l12.48-18,5.49-2.9-43.65-74.63a7.33,7.33,0,1,1,2.13-1.24Z"/>
    <polygon class="cls-1" points="1280 820.93 1174.13 856.36 1156.41 870.95 1086.59 887.88 1049.07 906.38 1018.85 904.29 991.76 911.68 981.34 934.61 963.62 927.22 942.78 966.82 924.02 966.82 918.81 957.21 910.47 962.01 871.91 939.73 863.58 922.01 856.52 922.01 853.35 919.01 856.52 922.01 815.21 957.21 806.12 945.23 779.68 936.97 774.73 927.22 755.72 927.22 745.82 908.1 745.82 915.76 737.48 927.22 711.43 934.61 691.63 988.71 685.38 996 644.74 973.07 610.35 934.61 612.75 928.94 601.58 922.01 599.92 927.22 532.22 869.86 486.76 893.87 476.35 908.9 457.59 927.66 457.48 927.77 429.87 935.21 374.45 878.73 330.15 852.98 264.52 927.99 235.15 913.3 217.37 919.57 97.19 830.74 0.18 734.87 0 734.69 0 1024 1280 1024 1280 681.82 1280 681.82 1280 820.93"/>
    <path class="cls-1" d="M496.78,868.59l-20.89,11-11.23,16.23L448.34,912.2l-9,2.42a8.45,8.45,0,0,1,.07,1,8.58,8.58,0,0,1-17.15,0,8.49,8.49,0,0,1,1.18-4.33l-46.23-47.1L347.72,847l-10.79,3.46L377.31,874l.57.33.47.47L431.56,929l23-6.2,17.51-17.51,10.17-14.7.68-1L484,889l38.7-20.44h-26Z"/>
    <path class="cls-1" d="M673.84,975.41A6.11,6.11,0,1,0,680,969.3,6.11,6.11,0,0,0,673.84,975.41Z"/>
    <polygon class="cls-1" points="768.24 873.86 763.66 877.78 758.16 885.89 758.16 898.92 763.23 908.71 782.29 908.71 788.32 920.57 813.57 928.46 817.15 933.17 832.42 920.16 798.39 896.23 819.89 915.21 794.45 907.26 786.86 895.61 768.45 893.83 766.79 890.64 766.79 884.44 768.24 873.86"/>
    <path class="cls-1" d="M664.82,937a6.11,6.11,0,1,0-6.1-6.11A6.12,6.12,0,0,0,664.82,937Z"/>
    <path class="cls-1" d="M637.35,792.66l17.65,14,34.94,16,15.7,32.45,3.16,1.41v25.63l-26.8,7.6-12.46,34a8.57,8.57,0,1,1-12,2.59l-14.7-16.45,5.18-12.22-14.18-8.8L639.41,840,626.2,898.88l13.48,8.37-4.42,10.46,21.9,24.5,16.19,9.14L691.06,903l28.85-8.18V863.45l4.92-4.22-10.32-4.6-15.68-32.41-40.32-18.44-19.43-12.49Z"/>
    <path class="cls-1" d="M727.55,910.34l3.46-4.77V874.73l14.36-12.31-22.63-10.11L707.09,820l-43.52-19.91-20.44-11.93-2,1.56,18.48,11.89,41,18.77,15.67,32.4,13,5.83-7,6v32.07L692.94,905l-18.27,49.93-19.08-10.77-23.22-26,4.22-10-13.18-8.18,13.34-59.51-23.31,69.66,12.31,7.64L622.29,926l27.81,31.12,23.07,13a8.55,8.55,0,0,1,6.78-3.34,9.11,9.11,0,0,1,1.75.18l17.84-48.73Z"/>
    <path class="cls-1" d="M780.47,875.07l-9-4-.44.38-1.8,13.09V890l.76,1.46,18.26,1.77,7.75,11.9,13.55,4.23-24.12-21.3a7.33,7.33,0,1,1-5-13Z"/>
    <path class="cls-1" d="M254.43,911.43a6.11,6.11,0,1,0-6.1-6.11A6.12,6.12,0,0,0,254.43,911.43Z"/>
    <polygon class="cls-1" points="362.24 739.67 359.56 736.15 356.3 734.84 356.12 734.76 355.95 734.68 250.23 681.82 245.37 681.82 347.92 733.09 362.24 739.67"/>
    <path class="cls-1" d="M218.3,913.36,233.54,908l2-.7,1.87.94,25.77,12.88,63.14-72.16,2.68-3.06,3.52,2,1.42.83,67.44-30.25-4.91-34.1-12.84-16.79L193.92,731.45l-3-1.59a1.6,1.6,0,0,1,1-3L203.57,729,177,715.7H111.53l71.64,53,8.7-3.07,1.15.57,12.23-14a7.22,7.22,0,1,1,1.93,1.53l-13.56,15.51-1.91-1-9,3.16L104,713.24h73.58l34.57,17.28,20.51,3.69-46.86-23.44H89.52L105.89,727l81.6,60.31L193.8,785a8.58,8.58,0,0,1,8.5-7.45,8.47,8.47,0,0,1,5.38,1.91l20.06-22.92a7.33,7.33,0,1,1,5,2,7.24,7.24,0,0,1-2.94-.62l-20.44,23.37a8.57,8.57,0,1,1-15.51,6.32l-6.79,2.4-82.72-61.15L83.51,708.31H186.42l54.9,27.45,20.51,3.69-67.2-33.61h-126l36.17,35.74,87,64.29L202.72,802l8.06,4,39.48-45.12.16-.18,4.41-2.27a7.52,7.52,0,0,1-.4-2.38,7.37,7.37,0,1,1,1.59,4.54L252,762.72,211.38,809.1l-8.82-4.41-11.17,3.94-88.1-65.12L62.66,703.38H195.21L270.45,741,291,744.69l-87.54-43.78H47.81l56,55.3,92.35,68.26,12-4.24,3.38,1.69a8.53,8.53,0,0,1,12.29-.69L263.4,776l.15-.18,12.1-6.23a7.53,7.53,0,0,1-.38-2.33,7.36,7.36,0,1,1,1.55,4.5l-11.72,6-39.7,45.37a8.57,8.57,0,1,1-15.21.84L208,822.9l-12.28,4.34-93.48-69.1L41.8,698.45H204l95.58,47.79L342.66,754l-27.79-6.71-.13,0L212.22,696H27l75.74,74.86,97.74,72.24,13.14-4.64,15,7.48,42-48a8.56,8.56,0,1,1,13.13-10.62L297,780.45a7,7,0,0,1-.25-1.84A7.35,7.35,0,1,1,298,782.7l-13.41,6.91a9,9,0,0,1,.21,1.89,8.58,8.58,0,0,1-8.57,8.58,8.42,8.42,0,0,1-3.58-.8L229.14,849l-15.73-7.87L200,845.84l-98.85-73.07L20.94,693.52H212.8l102.79,51.39,62.13,15-.66-.86-51.61-15.78L221,691.05H16.64v10.43l85,84,103.11,76.22,14.26-5,11.94,6A8.55,8.55,0,0,1,243,859.47l46.66-53.32.15-.18,27.84-14.34a7.24,7.24,0,0,1-.64-3,7.37,7.37,0,1,1,2,5L291.38,808,244.9,861.07a8.57,8.57,0,1,1-15,5.65,8.71,8.71,0,0,1,.18-1.77l-11.25-5.62-14.5,5.12-104.24-77-.07-.06L14.54,702.87l-.37-.36V688.59H221.6L326.37,741l48.12,14.71-2-2.65-36.24-13.71-106.41-53.2H11.71v26.17l88.85,87.81,108.49,80.19,15.37-5.42,21.88,10.94,51.06-58.35A8.56,8.56,0,1,1,310.89,817l27.24-14a7.16,7.16,0,0,1-.23-1.8,7.35,7.35,0,1,1,1.23,4.06l-27,13.93a8.44,8.44,0,0,1,.56,3,8.56,8.56,0,0,1-13.5,7L246.9,888.87l-22.65-11.33-15.61,5.51L99,802,99,802,9.61,713.69l-.37-.37V683.66H230.39L337.16,737l32.46,12.28-4.18-5.47-18.58-8.53-107-53.5H6.78V723.1L99.5,814.73,213.36,898.9l16.49-5.82,16.9,8.45a8.55,8.55,0,0,1,13.93-2.06l55.43-63.35L359,814a7.1,7.1,0,0,1-.26-1.91,7.35,7.35,0,1,1,1.29,4.15l-42.4,21.84-55.52,63.46a8.49,8.49,0,0,1,.88,3.76,8.58,8.58,0,0,1-17.15,0,9.36,9.36,0,0,1,.12-1.41l-16.3-8.15L213,901.66l-115-85-.07-.06L5.55,725.36v7l95.3,94.18Z"/>
    <path class="cls-1" d="M545.26,769.35a6.11,6.11,0,1,0,6.1,6.11A6.12,6.12,0,0,0,545.26,769.35Z"/>
    <path class="cls-1" d="M304.07,828.25a6.11,6.11,0,1,0-6.1-6.11A6.12,6.12,0,0,0,304.07,828.25Z"/>
    <path class="cls-1" d="M524.14,787.38a6.11,6.11,0,1,0,6.1,6.11A6.12,6.12,0,0,0,524.14,787.38Z"/>
    <path class="cls-1" d="M560.59,725.25v44.67L548.87,760H536.1l-67.26-35.63,61.58,50.44h6.3a8.57,8.57,0,1,1,15.56,5.57L568.35,794l.88-3.27V735.62l21.59-17,1.25-19H484.62l15.76,2.46h82.47l-.39,5.93Z"/>
    <path class="cls-1" d="M218,833.62a6.11,6.11,0,1,0-6.1-6.11A6.12,6.12,0,0,0,218,833.62Z"/>
    <path class="cls-1" d="M238.47,872.83a6.11,6.11,0,1,0-6.11-6.11A6.12,6.12,0,0,0,238.47,872.83Z"/>
    <path class="cls-1" d="M202.3,792.26a6.11,6.11,0,1,0-6.11-6.11A6.11,6.11,0,0,0,202.3,792.26Z"/>
    <polygon class="cls-1" points="0 668 0 674.41 0.62 674.41 0.62 668.25 1280 668.25 1280 668 0 668"/>
    <path class="cls-1" d="M541.63,792.08l32.89,27.86,5.81-21.59V747.19l21.24-16.68,2.37-35.76H453.08l15.75,2.46H594.71l-1.5,22.71-21.52,16.9v54l-2,7.51-19.14-16.21a8.56,8.56,0,0,1-13.7-4.9h-7.35l-61-49.94,50.7,59.11a8.56,8.56,0,0,1,13.32,5.64Z"/>
    <circle class="cls-1" cx="276.21" cy="791.5" r="6.11"/>
    <path class="cls-1" d="M531.71,821a6.11,6.11,0,1,0,6.11,6.1A6.11,6.11,0,0,0,531.71,821Z"/>
    <path class="cls-1" d="M442.33,759l1.59.64.84,1.48,55.9,97.56h26l1.38,1.17,69.1,58.54L621,829.65V792.91l1.89-1.48L641,777.24l4-60.85.12-1.85,1.32-1.32,31.41-31.4H663.48L640.34,705l-4.12,62.36-20.11,15.8v38.32l-21.68,80.79-65.92-55.85H511.93A8.57,8.57,0,1,1,498.38,838L436.64,737.84l-86.81-35a7.33,7.33,0,1,1,1.1-3.85,7.24,7.24,0,0,1-.17,1.56l26.95,10.87a7.34,7.34,0,1,1,11.86-5.77,7.22,7.22,0,0,1-.17,1.55l23.71,9.59a7.34,7.34,0,1,1,11.75-5.86,7.5,7.5,0,0,1-.18,1.58l21.18,8.65,71.83,88.2h19.87L580.7,845.9,591.43,806V758.76l20.89-16.41,3.48-52.53H421.53l15.76,2.46H606.57L604,731.77,582.8,748.39v50.12l-6.9,25.83-35.18-29.8h-8.08a8.57,8.57,0,1,1-15.18-6.42l-55.19-64.35a7.2,7.2,0,0,1-3.77,1.06,7.35,7.35,0,1,1,7.35-7.35,7.25,7.25,0,0,1-.38,2.3l71.25,37.74h13l8.35,7.08V724.05l22-17.24.14-2.2h-64l7.81,1.22h.09l24.81,2a2.14,2.14,0,0,1,1.15,3.82l-.54.43v30.6h-7.36l-5.51-9.63a7.31,7.31,0,1,1,2.14-1.22l4.8,8.38H547V713l-23.46-2.14-.52-.13L283.38,681.82H272.3l87.89,43.94Z"/>
    <path class="cls-1" d="M770.66,798.79a6.11,6.11,0,1,0,6.11,6.1A6.11,6.11,0,0,0,770.66,798.79Z"/>
    <path class="cls-1" d="M793.83,769.66a6.11,6.11,0,1,0,6.1,6.11A6.12,6.12,0,0,0,793.83,769.66Z"/>
    <path class="cls-1" d="M832,775.46a6.11,6.11,0,1,0,6.11-6.11A6.12,6.12,0,0,0,832,775.46Z"/>
    <path class="cls-1" d="M649.62,777.75,673.55,792l46.71,21.36,1.22.56.58,1.2,15,31.08,47.75,21.34.43.19.37.3,60.12,48.29,3.91-7.15,8.22-33.91L858,875l.11-.27,31.26-75,.4-1,.83-.61,30.36-22.26,8-21.87.1-.28.15-.26,40-71.65h-6.81L927.06,745l-7.59,20.86-31.06,22.78L855.79,866.9l-8.21,33.85-55.35-44.47L753.53,839a8.57,8.57,0,1,1-12-11.68l-11.72-24.22-49.58-22.68-20.46-12.2,2.52-38.16a7.34,7.34,0,1,1,2.46.21l-2.42,36.61,19,11.33,50.32,23,12.11,25a8.44,8.44,0,0,1,2.58-.4,8.53,8.53,0,0,1,8.24,10.91l39,17.42,52.57,42.23,4.41-18.2a8.56,8.56,0,0,1-14-9.75l-34.72-27.89-44.46-19.86-15.59-32.21-52.66-24.09L675,756l2.28-34.53a7.35,7.35,0,1,1,2.47.1l-2.19,33.08,12.63,7.54,53.41,24.42,15.58,32.2,43.93,19.63,35,28.09a8.53,8.53,0,0,1,5.82-2.3,7.09,7.09,0,0,1,.81,0l1.86-7.67L881,773.74l30.79-22.58,6.52-17.92,26.29-47.12H720.42l3.75,2.47H933.63l-19.42,34.78-5.9,16.2L877.7,762l-36.26,87-30.13-24.2-33.63-15a8.57,8.57,0,1,1-12.26-11.68l-11.74-24.25-55.74-25.49-7.75-4.62L691,731a7.35,7.35,0,1,1,2.45.39l-.74,11.08,6.27,3.74L755.52,772l12.05,24.91a8.56,8.56,0,0,1,11.22,10.69l33.67,15,28,22.41,35.25-84.61L906.25,738l5.67-15.59,17.5-31.38H727.92l3.75,2.47H918.41l-10.63,19-5,13.87-30.39,22.29L844.5,815.54A8.57,8.57,0,1,1,831.63,823a8.45,8.45,0,0,1,1.16-4.27l-11.94-9.59-39.67-17.73-15.54-32.11-58.83-26.9-1.39-.82.82-12.27a7.35,7.35,0,1,1,2.47,0L708,730.18l59.48,27.21L783,789.49l39,17.42,12.29,9.85a8.54,8.54,0,0,1,5.91-2.38,8.24,8.24,0,0,1,2,.25l28.12-67.49,30.34-22.25,4.82-13.27L914.21,696H735.43l3.74,2.47h164l-1.85,3.3-4.2,11.55L867,735.42l-27.26,65.44-9.32-7.49-29.3-13.08a8.57,8.57,0,1,1-11.93-11.71L777.6,744.65,730.28,723a7.33,7.33,0,1,1,1.34-2.1l47.81,21.87,12,24.77a8.31,8.31,0,0,1,2.41-.35,8.57,8.57,0,0,1,8.57,8.57,8.45,8.45,0,0,1-.31,2.26l29.46,13.15,7.15,5.7,26.27-63,30.12-22.09L899,700.91H747.62l17.09,2.47H887.19l-25.56,18.74-19.16,46a8.61,8.61,0,1,1-12.64,5L805,762.06l-15.49-32-13.92-6.37A7.33,7.33,0,1,1,777,719.4a7,7,0,0,1-.3,2.06l14.68,6.71,15.48,32,24,10.71a8.59,8.59,0,0,1,7.24-4,8.74,8.74,0,0,1,2.12.28l19.42-46.62,20-14.7H781.83l17.09,2.47h57.57l-19.93,47.83L817,747.4,809.06,731a7.13,7.13,0,0,1-2.13.32,7.34,7.34,0,1,1,4.34-1.42l7.54,15.58,16.44,7.35,17.54-42.09H816l17.08,2.47h10.42l-9.15,22-5.48-2.45-.75-1.56a7.37,7.37,0,1,1,2.29-.93l.29.61,2.35,1,6.75-16.2h-18.4v-.28L740,706l-50.44-23.73-36,36Z"/>
    <path class="cls-1" d="M834.1,823a6.11,6.11,0,1,0,6.11-6.11A6.11,6.11,0,0,0,834.1,823Z"/>
    <path class="cls-1" d="M746.29,828.3a6.11,6.11,0,1,0,6.11,6.1A6.11,6.11,0,0,0,746.29,828.3Z"/>
    <path class="cls-1" d="M843.86,866.69a6.11,6.11,0,1,0,6.11,6.1A6.11,6.11,0,0,0,843.86,866.69Z"/>
    <path class="cls-1" d="M586.88,871.87l15.66-58.24v-43.3l20.54-16.13,4.06-61.41,7.9-7.9H390l15.76,2.46H618.43l-3.72,56.26L593.9,760v46.19L582.08,850.3l-45.43-38.48H516.52L444.35,723.2l-20.6-8.42a7.33,7.33,0,0,1-6.23,3.48,8.68,8.68,0,0,1-.9-.06l25.47,10.3,69.22,98.13h11.85a8.57,8.57,0,1,1,15.94,4.76Z"/>
    <path class="cls-1" d="M497.38,844.87a6.11,6.11,0,1,0,6.11-6.11A6.11,6.11,0,0,0,497.38,844.87Z"/>
    <path class="cls-1" d="M641,682.42l-11.46,11.46-4.07,61.58L605,771.53v42.26l-16.75,62.47-50.69-42.94a8.55,8.55,0,0,1-14.17-4.22H510l-69.54-98.59-52-21a7.33,7.33,0,0,1-6.25,3.51,5.85,5.85,0,0,1-.73,0l56.82,22.91,62.24,101a8.37,8.37,0,0,1,2.93-.53,8.59,8.59,0,0,1,8.52,7.62h17.41l63.64,53.92,20.58-76.56V781.91l20.19-15.86,4.11-62.19,22-22H370.32l3.88.6Z"/>
  </g>
</svg>
