<svg xmlns="http://www.w3.org/2000/svg" width="206.76" height="32.5" viewBox="0 0 206.76 32.5">
  <defs>
    <style>
      .cls-1 {
        fill: #fec617;
      }

      .cls-2 {
        fill: #faa61a;
      }

      .cls-3 {
        fill: #684038;
      }
    </style>
  </defs>
  <g id="yellow">
    <path class="cls-1" d="M3.86,2.51H31.5a1.17,1.17,0,0,1,1.17,1.17V20.19l-.43-1-.54-2.27,0-.06,0-.06-.2-.36,0-.05,0,0-2.34-2.75-.4-.47-.37.49-.51.67-1.62.51-.2.06-.09.19-.2.38H24.39l-.14.27-.13.26-.25-.33-.1-.14-.16,0L22.11,15l-1.24-3.38,0-.08-.06-.07L20.36,11l-.26-.31-.36.2L17,12.41l-.08,0-.05.07-2.3,2.57,0,.06,0-.09-.57.48L9.07,19.67H7.15L7,19.92,3.26,26.47l-.57.23v-23A1.17,1.17,0,0,1,3.86,2.51Z" transform="translate(-1.42 -1.25)"/>
  </g>
  <g id="orange">
    <path class="cls-2" d="M3.85,33.05H31.5a1.8,1.8,0,0,0,1.79-1.8V21.7l-1-2.52-.55-2.27v-.06l0-.06-.2-.36,0-.05,0,0-2.34-2.75-.4-.47-.37.49-.52.67-1.61.51-.2.06-.1.19-.19.38H24.39l-.14.27-.14.26-.24-.33-.1-.14-.16,0L22.11,15l-1.24-3.38,0-.08-.06-.07L20.36,11l-.26-.31-.36.2L17,12.41l-.07,0-.05.07-2.3,2.57-.06.06,0-.09-.56.48L9.07,19.67H7.15L7,19.92,3.25,26.47,2.06,27v4.3A1.8,1.8,0,0,0,3.85,33.05Z" transform="translate(-1.42 -1.25)"/>
  </g>
  <g id="brown">
    <g>
      <g>
        <path class="cls-3" d="M42.35,12.74H37.46V9.85H50.78v2.89H45.89V25.15H42.35Z" transform="translate(-1.42 -1.25)"/>
        <path class="cls-3" d="M64.53,22.31v2.84H52.68V9.85H64.24v2.84h-8V16h7.1v2.76H56.2v3.54Z" transform="translate(-1.42 -1.25)"/>
        <path class="cls-3" d="M70.51,12.74H65.62V9.85H79v2.89h-4.9V25.15H70.51Z" transform="translate(-1.42 -1.25)"/>
        <path class="cls-3" d="M79.67,17.5c0-4.54,3.54-7.91,8.37-7.91s8.36,3.34,8.36,7.91S92.84,25.41,88,25.41,79.67,22,79.67,17.5Zm13.15,0a4.79,4.79,0,1,0-9.57,0,4.79,4.79,0,1,0,9.57,0Z" transform="translate(-1.42 -1.25)"/>
        <path class="cls-3" d="M113.1,9.85v15.3h-2.91l-7.63-9.29v9.29H99.07V9.85H102l7.6,9.29V9.85Z" transform="translate(-1.42 -1.25)"/>
        <path class="cls-3" d="M130.75,21c0,2.65-2.1,4.18-6.12,4.18h-7.91V9.85h7.47c3.83,0,5.79,1.6,5.79,4a3.65,3.65,0,0,1-2,3.36A3.78,3.78,0,0,1,130.75,21Zm-10.51-8.45v3.6h3.52c1.72,0,2.66-.61,2.66-1.81s-.94-1.79-2.66-1.79Zm7,8.08c0-1.29-1-1.9-2.82-1.9h-4.13v3.78h4.13C126.2,22.48,127.19,21.91,127.19,20.6Z" transform="translate(-1.42 -1.25)"/>
        <path class="cls-3" d="M133.44,9.85H137V22.26h7.67v2.89H133.44Z" transform="translate(-1.42 -1.25)"/>
        <path class="cls-3" d="M145.41,17.5c0-4.54,3.54-7.91,8.37-7.91s8.37,3.34,8.37,7.91-3.57,7.91-8.37,7.91S145.41,22,145.41,17.5Zm13.15,0a4.79,4.79,0,1,0-9.57,0,4.79,4.79,0,1,0,9.57,0Z" transform="translate(-1.42 -1.25)"/>
        <path class="cls-3" d="M163.85,17.5c0-4.61,3.54-7.91,8.3-7.91a7.91,7.91,0,0,1,6.3,2.71l-2.28,2.1a4.9,4.9,0,0,0-3.84-1.79,4.7,4.7,0,0,0-4.9,4.89,4.7,4.7,0,0,0,4.9,4.89,4.85,4.85,0,0,0,3.84-1.81l2.28,2.1a7.87,7.87,0,0,1-6.32,2.73C167.39,25.41,163.85,22.11,163.85,17.5Z" transform="translate(-1.42 -1.25)"/>
        <path class="cls-3" d="M186.4,19.14l-2.06,2.14v3.87h-3.51V9.85h3.51V17l6.78-7.15h3.93l-6.34,6.82,6.71,8.48h-4.13Z" transform="translate(-1.42 -1.25)"/>
        <path class="cls-3" d="M195.47,23.64l1.2-2.67a9,9,0,0,0,5,1.6c2.1,0,2.95-.7,2.95-1.64,0-2.86-8.89-.9-8.89-6.58,0-2.6,2.1-4.76,6.45-4.76A10.23,10.23,0,0,1,207.53,11l-1.1,2.68a8.6,8.6,0,0,0-4.23-1.2c-2.1,0-2.91.79-2.91,1.75,0,2.82,8.89.87,8.89,6.49,0,2.55-2.12,4.74-6.49,4.74A10.87,10.87,0,0,1,195.47,23.64Z" transform="translate(-1.42 -1.25)"/>
      </g>
      <path class="cls-3" d="M31.5,1.25H3.85A2.43,2.43,0,0,0,1.42,3.68V31.32a2.43,2.43,0,0,0,2.43,2.43H31.5a2.42,2.42,0,0,0,2.42-2.43V3.68A2.42,2.42,0,0,0,31.5,1.25ZM3.85,2.51H31.5a1.16,1.16,0,0,1,1.16,1.17V20.19l-.42-1-.55-2.27v-.06l0-.06-.2-.36,0-.05,0,0-2.34-2.75-.4-.47-.37.49-.52.67-1.61.51-.2.06-.1.19-.19.38H24.39l-.14.27-.14.26-.24-.33-.1-.14-.16,0L22.11,15l-1.24-3.38,0-.08-.06-.07L20.36,11l-.26-.31-.36.2L17,12.41l-.07,0-.05.07-2.3,2.57-.06.06,0-.09-.56.48L9.07,19.67H7.15L7,19.92,3.25,26.47l-.56.23v-23A1.16,1.16,0,0,1,3.85,2.51ZM32.66,24.76l-1.73-4.17-.13-.5a.57.57,0,0,0,.35-.42l.08.32,1.43,3.45ZM30.59,20a.41.41,0,1,1,0-.81.41.41,0,1,1,0,.81Zm.8,0-.55-2.26-3.71,3-2.59,1.16a.57.57,0,0,0-1.05.3.58.58,0,0,0,.25.48L23,24.22l-3.31,1.52-1.37.81.17,2.56a.48.48,0,0,0-.37.47.49.49,0,1,0,.53-.49l-.16-2.45,1.27-.76,3.37-1.53.81-1.68a.47.47,0,0,0,.17,0,.57.57,0,0,0,.57-.58.39.39,0,0,0,0-.15l2.61-1.17L30.74,18,31,19.19a.55.55,0,0,0-.44-.21.57.57,0,0,0-.57.58.51.51,0,0,0,.08.29l-2.33,1.86L24.8,23,23.75,25.2l-3.52,1.61-.94.56.15,2.31a.5.5,0,0,0-.39.48.49.49,0,1,0,.56-.49l-.15-2.21.84-.5,3.58-1.64,1-2.15,2.94-1.32L30.2,20a.59.59,0,0,0,.39.15h.05l.13.51,1.89,4.55v1.32l-2.23-5.36-2,1.62-2.25,1a.55.55,0,0,0-.47-.24.56.56,0,0,0-.57.57.55.55,0,0,0,.22.45l-.79,1.62-3.72,1.71-.52.31.05.86a.48.48,0,1,0,.17,0l-.05-.74L20.9,28l3.78-1.73.8-1.67a.52.52,0,0,0,.21,0,.56.56,0,0,0,.57-.57.52.52,0,0,0,0-.18l2.26-1,1.87-1.5,2.3,5.53v1l-.17-.12-1.86-4.47a.59.59,0,0,0,.29-.5.58.58,0,0,0-1.15,0,.6.6,0,0,0,.08.29l-.8.64L26.39,25l-1,2.15L21.42,29l-.09.06.05.82a.48.48,0,0,0-.4.48.49.49,0,0,0,1,0,.48.48,0,0,0-.41-.48l-.05-.73,4-1.82,1-2.15L29.13,24l.82-.65a.59.59,0,0,0,.39.15h.14L32.36,28l.3.23v.94l-.52-.38-1.83-4.38-.62.5-2,.88a.56.56,0,0,0-.49-.28.57.57,0,0,0-.57.58.56.56,0,0,0,.26.48l-.77,1.6L23,29.58a.48.48,0,0,0-.36-.16.49.49,0,1,0,.49.49.58.58,0,0,0,0-.19l3.2-1.47.8-1.65.16,0a.57.57,0,0,0,.57-.57.36.36,0,0,0,0-.15l2-.88.48-.39L32,28.85l.66.49v.95l-.88-.65L30.5,26.56a.58.58,0,1,0-.87-.49.77.77,0,0,0,0,.15L28,27l-1,2.15-.94.42a.49.49,0,1,0,.1.29.68.68,0,0,0,0-.14l1-.45,1-2.14,1.61-.72a.55.55,0,0,0,.48.27.32.32,0,0,0,.14,0l1.3,3.12,1,.75v.24H26.44l1.14-.17h3.85l-1.33-3.2L28.79,28,28.26,29l-.14,0a.49.49,0,1,0,.49.49.51.51,0,0,0-.2-.4l.5-1,1.1-.49,1.18,2.82H28.73l1.14-.17h.7L30,28.76l-.37.17-.05.1h-.11a.49.49,0,0,0,0,1,.48.48,0,0,0,.49-.49.49.49,0,0,0-.23-.42l0,0,.16-.07.45,1.09H29.09v0l-5.45.62-3.29,1.55-2.41-2.41L17.68,26,19.23,25l3.12-1.42.11-.05.05-.11,1-2.05L26.67,20l0,0,0,0,3.94-3.17.21.38.55,2.26v.05l1.2,2.88V23Zm-6.92,2.17a.41.41,0,0,1-.41.41.41.41,0,1,1,0-.81A.4.4,0,0,1,24.47,22.12Zm1.63,2a.41.41,0,0,1-.41.41.42.42,0,0,1-.41-.41.41.41,0,0,1,.41-.41A.41.41,0,0,1,26.1,24.1Zm4.24-.8a.41.41,0,1,1,.41-.41A.4.4,0,0,1,30.34,23.3Zm-2.69,2.75a.41.41,0,0,1-.41.41.42.42,0,0,1-.41-.41.41.41,0,0,1,.41-.41A.41.41,0,0,1,27.65,26.05Zm5,5.34H23.33l.25-.17h9.08v.17Zm-30-1.17L4,29.7l4.8-5.9h1.33L13,21.35,13.7,24v3.16l1.4,1.09.23,3.52H2.79l0-.06.67-.11H14.71L14.54,29l-1.42-1.11V24.53l-.46-1.73-2.35,2H9.12L5.06,29.53a.46.46,0,0,0-.26-.07.49.49,0,1,0,.5.49.41.41,0,0,0,0-.16L10,27.27h.87l.56-.47v2.71l1.47,1.15v.15H8.71l.48-.08h0l1.66-.13a.15.15,0,0,0,.13-.15.13.13,0,0,0-.05-.11l0,0v-2H10.4L10,28.9a.47.47,0,0,0-.17,0,.5.5,0,1,0,.49.49.47.47,0,0,0-.18-.37l.33-.57h.23v1.83l-1.57.14-.09,0-6.38.76Zm10.41.36-1.46-1.15v-3l-.79.66H10L5.5,29.49l4.12-3.38H10a.57.57,0,0,0,1.14,0,.61.61,0,0,0-.1-.33l1.07-.91.06.22v3.68l1.45,1.14.08,1.27H6.6L7.65,31h5.47Zm-2.9-4.51a.41.41,0,0,1,.41-.41.41.41,0,0,1,.41.41.42.42,0,0,1-.41.41A.41.41,0,0,1,10.2,26.07Zm3.72,5.23-.1-1.52-1.44-1.13V25l-.13-.51L11,25.62a.59.59,0,0,0-.36-.13.57.57,0,0,0-.56.46H9.56L5.48,29.29,9.19,25h1.18l2.2-1.87L13,24.54V28l1.42,1.12.16,2.39h-10l1-.17Zm1.59.66-.25-3.76-1.4-1.09V24l-.79-3-3,2.58H8.69L3.86,29.57,2.69,30v-.42l1-.41,4.63-6.57h.79a.58.58,0,0,0,1.15,0,.55.55,0,0,0-.08-.29l3.19-2.71,1,3.89v2.9l1.38,1.08.27,4.11.53.53H3A1.09,1.09,0,0,1,2.88,32ZM9.29,22.62a.41.41,0,0,1,.41-.41.41.41,0,1,1,0,.81A.41.41,0,0,1,9.29,22.62ZM17,32.29l-.77-.76L16,27.41l-1.37-1.08V23.5l-1.12-4.18-3.4,2.88A.55.55,0,0,0,9.7,22a.57.57,0,0,0-.55.44h-.9L3.6,29.08l-.91.36V29l.76-.31,4.46-7.23H9.55l4.26-3.61L15.18,23v2.64l1.36,1.06.27,4.16,1.6,1.6H3.59a1,1,0,0,1-.38-.17ZM15.43,15.67l-.08-.19,2.13-2.37,2.43-1.38.2.24,1.31,3.56.06.16.16.05,1.63.46.43.59v2l.11.09L25.08,20l-1.95.87-.11.05L23,21l-1,2.05-3,1.39h0l-1.55.92-.06-.05,1.3-.76,3-1.35,1.05-2.17,1.69-.76-1.1-.94v-2l-.29-.41-1.85-.52-1.17-3.19a.55.55,0,0,0,.3-.5.57.57,0,0,0-1.14,0,.52.52,0,0,0,0,.21l-1.57.88L15.57,16l.22.52L15,17l2,5.85a.52.52,0,0,0-.26.44.5.5,0,1,0,.52-.49l-.48-4.21,1-.61-.36-.85.9-1a.57.57,0,0,0,.38.14l.17,0,.85,2.34,1.76.5v1.48l-.17.08-1,2.17-2.3,1.05-1.23,1-.11-.08,1.93-1.48-1-3.93,1-.65-.42-1,.11-.12.75,2.05,1.58.44v.48l-.62,1.28-.14,0a.49.49,0,1,0,.49.49.51.51,0,0,0-.2-.4l.63-1.31v-.64L19,19.45l-.82-2.23-.37.41.41,1-1,.64,1.06,4L16.4,24.62l-.06,0V22.31l-1.57-5.9.54-.33.24-.15Zm11.39,3,3.27-2.3-1.31-1.12-.32.41-1.7.53-.39.77H25.09l-.4.78v1l.06.08-.39-.33V17.27l.53-1h1.28l.09-.18.27-.52L28.16,15l.1,0,.07-.08.36-.48,1.62,1.79L26.86,19v-.09A.52.52,0,0,0,26.82,18.7Zm-.47.7-.6.27,0,0-.12-.88V18.4l0-.1,1.22-.11.52-.8.91-.28-1.62,1.42a.47.47,0,0,0-.31-.11.49.49,0,0,0,0,1Zm-.82.08-.31-.26-.37-.54v-.87l.34-.66h1.28l.4-.79,1.69-.53.24-.31,1,.87L27.55,18,29,16.72l-1.7.53-.51.78-1.23.12-.11.21v.42Zm-5.77-1.05-.83-2.28a.58.58,0,0,0,.25-.48.57.57,0,0,0-1.14,0,.58.58,0,0,0,.08.3l-1,1.11.35.81-.95.59.37,3.27L16,17.81l.9-.56-.3-.7,1.47-1.64,1.08-.61,1.18,3.24,1.94.54v2.1l.32.28-.69.31-1.05,2.17-2.69,1.23-1.3.84-.12-.09L18,24l2.34-1.07,1.05-2.17.21-.09V18.93Zm-1.15-2.35a.41.41,0,1,1,0-.82.41.41,0,0,1,0,.82Zm-.35,8.24L21,23.07l1-2.17.87-.39-.47-.41V18l-2-.56-1.22-3.34L18,14.78l-1.55,1.74.28.66-.88.55.89,4-1.56-4.66.83-.51L15.76,16l1.86-2.08L19.17,13a.55.55,0,0,0,.45.22h.12l1.19,3.26,1.88.53.23.32v2.07l1,.82-1.52.68-1,2.16-2.91,1.33-1.37.8-.14-.1Zm.95-11.63a.41.41,0,0,1,.41-.41.41.41,0,1,1,0,.82A.41.41,0,0,1,19.21,12.69Zm-3.53,9.75V24.9l.13.1L17,26,17.28,30v.12l.09.09,2.23,2.23h-1L17,30.79l-.27-4.18-1.35-1.05V23l-1.45-5.4L9.49,21.32H7.82L3.34,28.59l-.65.26V27.59l1-.42.11-.05L3.89,27,7.63,20.5H9.37l.09-.08,4.62-3.92Zm6.15,9.94.25-.17H32.25a1.17,1.17,0,0,1-.26.17Zm.5-.33.25-.17h9.94a1.63,1.63,0,0,1-.11.17Zm.5-.33.25-.17h9.56a1.09,1.09,0,0,1,0,.17Zm1.32-.66,1.14-.17h7.37v.17Zm6.05-4.58a.42.42,0,0,1-.41-.41.41.41,0,0,1,.41-.41.41.41,0,0,1,.41.41A.41.41,0,0,1,30.2,26.48Z" transform="translate(-1.42 -1.25)"/>
    </g>
  </g>
</svg>
