<?xml version="1.0" standalone="no"?>
<!DOCTYPE svg PUBLIC "-//W3C//DTD SVG 20010904//EN"
 "http://www.w3.org/TR/2001/REC-SVG-20010904/DTD/svg10.dtd">
<svg version="1.0" xmlns="http://www.w3.org/2000/svg"
 width="451.000000pt" height="451.000000pt" viewBox="0 0 451.000000 451.000000"
 preserveAspectRatio="xMidYMid meet">
<metadata>
Created by potrace 1.11, written by Peter Selinger 2001-2013
</metadata>
<g transform="translate(0.000000,451.000000) scale(0.100000,-0.100000)"
fill="#000000" stroke="none">
<path d="M2130 3544 c-250 -60 -334 -76 -465 -89 -123 -11 -221 -29 -420 -76
-252 -60 -263 -63 -345 -114 -47 -28 -132 -69 -190 -90 -113 -40 -117 -43
-226 -176 -52 -64 -55 -72 -74 -168 -24 -128 -49 -174 -101 -190 -53 -16 -79
-52 -79 -111 0 -33 6 -55 22 -75 16 -21 21 -39 19 -74 -2 -36 3 -53 21 -76 18
-23 22 -39 20 -76 -4 -56 8 -83 51 -109 84 -52 183 10 176 110 -3 43 22 90 50
90 28 0 29 6 14 71 -8 34 -12 63 -11 65 2 2 21 -43 41 -99 21 -56 56 -147 77
-201 l40 -99 -49 -66 c-26 -36 -51 -71 -55 -78 -4 -7 5 -88 18 -180 22 -144
32 -184 71 -277 l45 -108 0 -179 0 -179 123 0 c114 0 125 -2 143 -21 41 -46
120 -62 173 -34 53 27 81 71 81 126 0 60 -19 99 -64 134 -25 19 -41 46 -65
108 -47 124 -54 167 -32 192 48 53 56 129 18 184 -21 31 -22 38 -13 105 9 69
11 74 94 178 55 70 89 105 96 99 6 -4 55 -40 109 -80 53 -39 97 -78 97 -86 0
-24 59 -83 96 -95 44 -15 92 -6 137 24 35 24 36 24 52 6 43 -47 132 -50 190
-6 32 25 33 25 50 6 24 -27 80 -43 122 -37 41 7 99 48 108 77 10 30 73 28 84
-2 7 -20 4 -26 -24 -40 -42 -22 -71 -63 -80 -110 -8 -45 22 -119 58 -143 18
-11 27 -29 31 -60 7 -42 11 -47 82 -91 40 -26 74 -51 74 -55 0 -4 -14 -44 -31
-88 l-32 -80 54 -125 53 -126 104 0 c96 0 106 -2 134 -25 16 -13 47 -30 69
-36 34 -11 46 -10 87 7 122 51 125 212 5 269 -57 27 -72 63 -44 102 33 45 36
100 9 153 -23 45 -23 47 -8 130 l15 85 90 15 c50 8 95 18 102 23 9 6 288 358
326 411 4 7 20 -3 42 -26 33 -35 35 -42 35 -106 l0 -68 80 -114 c44 -63 84
-116 89 -118 5 -2 51 42 102 98 92 99 94 102 99 158 l5 57 69 8 c38 4 70 8 71
10 1 1 26 38 55 81 l53 79 -15 70 c-13 58 -13 77 -3 112 14 46 10 203 -7 247
-7 20 -4 48 17 125 25 93 29 101 87 160 l61 61 -18 157 c-16 139 -20 158 -41
174 -13 10 -26 34 -30 57 -10 55 -66 109 -122 119 -34 5 -52 2 -89 -17 -61
-30 -86 -75 -80 -141 l4 -49 -31 6 c-17 3 -69 10 -116 16 -155 19 -147 15
-154 61 -5 34 -20 54 -80 115 -74 74 -75 74 -243 140 l-168 66 -85 -27 -86
-27 -224 21 c-124 12 -241 23 -260 25 -21 3 -153 -24 -340 -70z"/>
</g>
</svg>
