<svg xmlns="http://www.w3.org/2000/svg" width="250" height="155.75" viewBox="0 0 250 155.75">
  <defs>
    <style>
      .st_orange {
        fill: #faa61a;
      }

      .st_yellow {
        fill: #fec617;
      }

      .cls-1 {
        fill: #684038;
      }
    </style>
  </defs>
  <g id="orange">
    <path class="st_orange" d="M109.48,60.68,106.22,56l-5.87-5.87,0,0-8.64-2.33L74.32,65.42,60.46,73.48,39.91,50l-9.19,4.6-5.57-2L11.93,62.41V127a5.2,5.2,0,0,0,5.21,5.2H126.92a5.2,5.2,0,0,0,5.2-5.2v-66l-8.41,7.13Z" transform="translate(-10 -10)"/>
    <path class="st_orange" d="M252.22,37.85h-5.87l-1.63,3-2.61-1.51-12.07,7-2.61,5.54h-2.21l-12.93-11-2.84,3.75-8.28,2.58-1.55,3.05h-6l-3.1,6v-2.4L188,50.24l-8.15-2.31L173.61,31l-2-2.29-12.72,7.18-10.77,12,.76,1.78-3.5,2.16-.52-1.63-7.38,6.26V127a5.2,5.2,0,0,0,5.21,5.2H252.51a5.2,5.2,0,0,0,5.2-5.2V48.28Z" transform="translate(-10 -10)"/>
  </g>
  <g id="yellow">
    <path class="st_yellow" d="M158.93,35.82l12.72-7.17,2,2.28,6.2,16.94L188,50.18l2.61,3.59v2.39l3.1-6h6l1.55-3,8.28-2.59,2.84-3.75,12.93,11h2.21L230,46.26l12.07-7,2.61,1.5,1.63-3h5.87l3.56,6.76V17.19a3.27,3.27,0,0,0-3.27-3.27H142.73a3.27,3.27,0,0,0-3.28,3.27v37.6l5.45-4.61.52,1.63,3.45-2.15L148.16,48l0,0,0-.08Z" transform="translate(-10 -10)"/>
    <path class="st_yellow" d="M126.92,13.86H17.14a3.28,3.28,0,0,0-3.28,3.28V60.86l11.29-8.34,5.57,2,9.19-4.6L60.46,73.36,74.32,65.3,91.67,47.62,100.31,50l0,0,5.87,5.87,3.26,4.7,14.23,7.52,6.48-5.49V17.14A3.28,3.28,0,0,0,126.92,13.86Z" transform="translate(-10 -10)"/>
  </g>
  <g id="brown">
    <g>
      <polygon class="cls-1" points="0.36 137.22 7.51 137.22 7.51 155.37 12.69 155.37 12.69 137.22 19.84 137.22 19.84 133 0.36 133 0.36 137.22"/>
      <polygon class="cls-1" points="27.77 146.04 38.15 146.04 38.15 142.01 27.77 142.01 27.77 137.16 39.52 137.16 39.52 133 22.63 133 22.63 155.37 39.94 155.37 39.94 151.21 27.77 151.21 27.77 146.04"/>
      <polygon class="cls-1" points="41.54 137.22 48.7 137.22 48.7 155.37 53.87 155.37 53.87 137.22 61.03 137.22 61.03 133 41.54 133 41.54 137.22"/>
      <path class="cls-1" d="M84.32,142.62c-7.06,0-12.24,4.92-12.24,11.57s5.18,11.56,12.24,11.56,12.23-4.89,12.23-11.56S91.35,142.62,84.32,142.62Zm0,18.72a7.16,7.16,0,1,1,7-7.15A6.82,6.82,0,0,1,84.32,161.34Z" transform="translate(-10 -10)"/>
      <polygon class="cls-1" points="105.85 146.58 94.73 133 90.45 133 90.45 155.37 95.56 155.37 95.56 141.79 106.71 155.37 110.96 155.37 110.96 133 105.85 133 105.85 146.58"/>
      <path class="cls-1" d="M142.69,153.74a5.37,5.37,0,0,0,3-4.92c0-3.48-2.88-5.81-8.47-5.81H126.27v22.36h11.56c5.88,0,8.95-2.24,8.95-6.1A5.52,5.52,0,0,0,142.69,153.74Zm-11.28-6.84h5.14c2.53,0,3.9.87,3.9,2.62s-1.37,2.65-3.9,2.65h-5.14Zm6,14.57h-6v-5.53h6c2.68,0,4.12.9,4.12,2.78S140.13,161.47,137.45,161.47Z" transform="translate(-10 -10)"/>
      <polygon class="cls-1" points="145.88 133 140.71 133 140.71 155.37 157.09 155.37 157.09 151.15 145.88 151.15 145.88 133"/>
      <path class="cls-1" d="M180.45,142.62c-7.06,0-12.24,4.92-12.24,11.57s5.18,11.56,12.24,11.56,12.23-4.89,12.23-11.56S187.48,142.62,180.45,142.62Zm0,18.72a7.16,7.16,0,1,1,7-7.15A6.82,6.82,0,0,1,180.45,161.34Z" transform="translate(-10 -10)"/>
      <path class="cls-1" d="M207.57,147a7.2,7.2,0,0,1,5.63,2.62l3.32-3.07a11.57,11.57,0,0,0-9.2-4c-7,0-12.14,4.83-12.14,11.57s5.17,11.56,12.11,11.56a11.49,11.49,0,0,0,9.23-4l-3.32-3.07a7.14,7.14,0,0,1-5.63,2.65,7.16,7.16,0,0,1,0-14.31Z" transform="translate(-10 -10)"/>
      <polygon class="cls-1" points="230.8 133 225.05 133 215.15 143.45 215.15 133 210 133 210 155.37 215.15 155.37 215.15 149.71 218.15 146.58 225.3 155.37 231.34 155.37 221.53 142.97 230.8 133"/>
      <path class="cls-1" d="M247,149.33c0-1.41,1.18-2.55,4.25-2.55a12.6,12.6,0,0,1,6.19,1.75l1.6-3.93a15,15,0,0,0-7.76-2c-6.36,0-9.43,3.16-9.43,7,0,8.3,13,5.43,13,9.61,0,1.38-1.25,2.4-4.32,2.4a13.2,13.2,0,0,1-7.38-2.33l-1.75,3.89c2,1.54,5.56,2.59,9.1,2.59,6.39,0,9.49-3.19,9.49-6.93C260,150.61,247,153.45,247,149.33Z" transform="translate(-10 -10)"/>
      <path class="cls-1" d="M17.14,134.05H126.92a7.14,7.14,0,0,0,7.13-7.13V17.14A7.14,7.14,0,0,0,126.92,10H17.14A7.14,7.14,0,0,0,10,17.14V126.92A7.14,7.14,0,0,0,17.14,134.05Zm16.78-7.11,32.1-16,4.48-2.06-.84,1.1-1,.41,0,0-.06,0L35.44,126.94Zm96.27,0v0H73l1.21-.19h56Zm0-.94h-51l4.93-.77h46.07Zm0-1.55H89.06l4.93-.77h36.2Zm0-1.54H98.93l4.94-.77h26.32Zm0-1.54H108.81l4.93-.77h16.45Zm0-20-1.27,1.08h-4l-21.06,11.15,19.27-15.79h2a2.67,2.67,0,0,0,5.07,1Zm-4.31-3.76a1.91,1.91,0,1,1,1.91,1.91A1.91,1.91,0,0,1,125.88,97.63Zm4.31-1.2a3.79,3.79,0,0,0-.2-.34l.2-.17Zm0-1.52-.73.62a2.65,2.65,0,0,0-1.67-.59,2.68,2.68,0,0,0-2.62,2.12h-2.3l-19.08,15.63,15.87-18.5a2.64,2.64,0,0,0,1.52.48,2.68,2.68,0,0,0,2.64-2.24h2.83l3.54-3ZM119.27,92a1.91,1.91,0,1,1,1.91,1.92A1.91,1.91,0,0,1,119.27,92Zm10.92-10-5.09,4.32h-6.31L96.2,114l-6.45,2.63a2.29,2.29,0,0,0-2-1.09l-.28,0,8-3.22,21.66-30.72h3.71a2.68,2.68,0,0,0,5.36-.14,2.61,2.61,0,0,0-.37-1.35l4.33-3.66Zm-8.55-.46a1.91,1.91,0,1,1,1.91,1.92A1.92,1.92,0,0,1,121.64,81.47Zm8.55-6-4.81,4.08A2.67,2.67,0,0,0,121,80.84h-4.19L95,111.7l-16.29,6.58a2.29,2.29,0,0,0-1.95-1.09h-.23L94.32,110,113.8,78.42a2.51,2.51,0,0,0,.92.17,2.69,2.69,0,0,0,2.66-2.39h5.45L130.19,70Zm-17.39.46a1.92,1.92,0,1,1,1.92,1.91A1.92,1.92,0,0,1,112.8,75.9ZM130.19,69l-7.64,6.47h-5.19a2.68,2.68,0,1,0-4.24,2.62L93.79,109.4l-27.17,11a2.3,2.3,0,0,0-4.26,1.21,2.3,2.3,0,0,0,4.6,0,2.63,2.63,0,0,0,0-.49l8.43-3.4a2.3,2.3,0,1,0,3.72,1.8A1.91,1.91,0,0,0,79,119l7.42-3a2.3,2.3,0,1,0,3.68,1.83,2.63,2.63,0,0,0,0-.49l6.63-2.71L119.16,87h6.22l4.81-4.08v5.48l-3.82,3.23h-2.53a2.68,2.68,0,1,0-4.75,2l-17.28,20.15a2.23,2.23,0,0,0-1.18-.33,2.3,2.3,0,1,0,2.3,2.29,2.35,2.35,0,0,0-.11-.71l22.3-11.82h4.08l1-.83v17.4H118.68l2.45-.39h0l7.77-.63a.67.67,0,0,0,.35-1.2l-.17-.13v-9.58h-2.3l-1.73,3a2.25,2.25,0,0,0-.78-.14,2.28,2.28,0,1,0,1.46.52l1.5-2.62h1.08v8.54l-7.34.67-.17,0-75,9H42.35l27.51-13.76,25.71-10.41.5-.2.26-.47,17.5-30.53H122l.43-.37,7.78-6.59ZM89,82.61l4.65-6.41L91,72.45l-.79-.8-3.07,3.13a2.32,2.32,0,0,0-1.32-.41,2.28,2.28,0,1,0,1.87.95l2.53-2.58.17.18,2.26,3.27-4.48,6.17-9.88-3.17L89.88,67.42a2.66,2.66,0,0,0,1.68.59,2.59,2.59,0,0,0,1.5-.47l1.21,1.21L98,74.11,89.68,88.59a2.25,2.25,0,0,0-.82-.15,2.3,2.3,0,1,0,1.48.54l8.55-14.91-4-5.79L93.63,67a2.68,2.68,0,0,0-2.07-4.38,2.68,2.68,0,0,0-2.21,4.21L77.5,78.92l-4.7-1.51,3.87-2.24,15-15.27,2.45.66,4,4,3.9,5.65,1.72.9L90.07,94.49a2.42,2.42,0,0,0-.81-.15,2.3,2.3,0,1,0,1.48.54l14.07-24-2.27-1.2-3.82-5.52-4.23-4.24L91.41,59,76.19,74.55,71.81,77.1,67,75.54l8.68-5.05,0,0L90.15,55.71a2.68,2.68,0,0,0,4.29-.9l2.61.71,4.9,4.89,3.6,5.21,4.68,2.47h-.69l-18.39,32.1-11.43,4.63,3.3-4.31a2.3,2.3,0,1,0-1-1.93,2.28,2.28,0,0,0,.48,1.4l-5.06,6.62,14.29-5.79L110,68.86h1.84l-.23.39L93.92,100.11l-21.44,8.68,10.2-13.34,1.56-10.82,1.5-.11h3.09a1.43,1.43,0,0,0,1.43-1.43V83Zm.66-17.29a1.91,1.91,0,1,1,1.91,1.92A1.91,1.91,0,0,1,89.65,65.32ZM92,51.07a2.68,2.68,0,0,0-2.68,2.68,2.61,2.61,0,0,0,.37,1.35L75.2,69.85,66,75.22l-3.38-1.08,12.64-7.35.18-.1.14-.15,16.66-17,7.21,1.94L104.89,57l3.19,4.6.21.31.33.18,12.12,6.4h-8.12L106.08,65l-3.52-5.08-5.11-5.12-2.8-.75c0-.11,0-.21,0-.32A2.69,2.69,0,0,0,92,51.07Zm1.91,2.68A1.91,1.91,0,1,1,92,51.84,1.91,1.91,0,0,1,93.89,53.75Zm-80-36.61a3.28,3.28,0,0,1,3.28-3.28H126.92a3.28,3.28,0,0,1,3.27,3.28V62.59l-6.48,5.49-14.23-7.52-3.26-4.7L100.35,50l0,0-8.64-2.33L74.32,65.3,60.46,73.36,39.91,49.88l-9.19,4.6-5.57-2L13.86,60.86Zm0,83.05.59-.43,2.72,1,.36-.18,3.83,4.37a2.26,2.26,0,1,0,.61-.48l-4.25-4.85-.6.3-2.8-1-.46.34V95.37l1.94-1.44,2,.7a2.67,2.67,0,0,0,4.34,1.74l6.28,7.17a2.3,2.3,0,1,0,1.57-.62,2.33,2.33,0,0,0-.92.19l-6.4-7.31a2.68,2.68,0,1,0-4.86-2l-2.12-.75L13.86,94.4V90.54l3.29-2.43,3.42,1.21,2.52-1.26,12.36,14.12,0,0,1.38.72a2.25,2.25,0,0,0-.12.74,2.3,2.3,0,1,0,.49-1.42L36,101.61,23.28,87.1l-2.76,1.38L17,87.24l-3.16,2.34V85.71l4.64-3.43,3.77,1.33,1.06-.52a2.66,2.66,0,0,0,3.84.21L39.56,97.46l0,.05,3.79,2a2.19,2.19,0,0,0-.12.73,2.29,2.29,0,1,0,.48-1.41L40.09,96.9,27.67,82.69a2.68,2.68,0,0,0-2.32-4,2.67,2.67,0,0,0-2.44,3.78l-.69.35-3.85-1.36-4.51,3.33V80.89l6-4.43L24,77.91l4.69-2.34,13.15,15a2.68,2.68,0,1,0,4.11,3.32l4.16,2.15a2.12,2.12,0,0,0-.07.57,2.3,2.3,0,1,0,.39-1.28l-4.2-2.16a2.88,2.88,0,0,0,.07-.59,2.7,2.7,0,0,0-2.69-2.69,2.63,2.63,0,0,0-1.12.25L28.84,74.61l-4.93,2.47L19.72,75.6l-5.86,4.33V76.06l7.34-5.42,4.46,1.57,3.74-1.87a2.68,2.68,0,0,0,2.36,1.4,2.65,2.65,0,0,0,1.42-.41L47.79,88l.05.06,8.71,4.49a2.22,2.22,0,0,0-.2.93A2.3,2.3,0,1,0,57,91.92l-8.66-4.46L33.77,70.83a2.64,2.64,0,0,0,.67-1.77,2.69,2.69,0,0,0-5.37,0,3.31,3.31,0,0,0,.06.55l-3.52,1.76-4.54-1.6L13.86,75.1V71.23l8.69-6.42,4.81,1.7,6.85-3.42,16,18.26a2.68,2.68,0,1,0,4.24,3.29L63,89a2.6,2.6,0,0,0-.07.56,2.3,2.3,0,1,0,2.3-2.29,2.28,2.28,0,0,0-1.91,1L54.8,84a2.68,2.68,0,0,0-4-3.14L34.4,62.13l-7.09,3.54L22.42,64l-8.56,6.32V66.41L23.9,59l5.16,1.82,5.29-2.65a2.68,2.68,0,0,0,4.36.65L56.06,78.64l13.43,6.92a2.33,2.33,0,0,0-.08.59,2.29,2.29,0,1,0,.4-1.29L56.55,78,39.16,58.16A2.63,2.63,0,0,0,39.44,57a2.69,2.69,0,1,0-5.37,0,3.13,3.13,0,0,0,0,.44L29,60l-5.24-1.85-9.91,7.33V63l11.58-8.56,4.78,1.69.61.21.59-.29,8.07-4L59.25,74.63l.84,1,1.1-.63.45-.26,21.11,9.47L81.21,94.83l-4,5.25L17.81,111.4l-.93.5a.5.5,0,0,0,.33.93l3.62-.65-7,3.49Zm4.66-5.91a1.92,1.92,0,1,1,1.92,1.91A1.92,1.92,0,0,1,18.52,94.28Zm4.92-13a1.92,1.92,0,1,1,1.91,1.92A1.92,1.92,0,0,1,23.44,81.33Zm20.13,9.36a1.92,1.92,0,1,1-1.91,1.92A1.91,1.91,0,0,1,43.57,90.69ZM29.85,69.06A1.91,1.91,0,1,1,31.76,71,1.91,1.91,0,0,1,29.85,69.06ZM50.38,83a1.92,1.92,0,1,1,1.91,1.92A1.92,1.92,0,0,1,50.38,83ZM34.84,57a1.92,1.92,0,1,1,1.92,1.91A1.91,1.91,0,0,1,34.84,57Zm-21,59.55,9.67-4.83L30,110.54l-14.67,7.34H13.86Zm0,2.12h1.61l17.18-8.59,6.42-1.16L18,119.42H13.86Zm0,1.54h4.36l23.55-11.77,6.42-1.16L20.79,121H13.86Zm0,1.54H21l29.92-15,13.48-2.43-8.7,2.1h0L23.54,122.51H13.86Zm0,1.55h9.86L55.9,107.19l19.45-4.69-.21.26L59,107.7,26.3,124.05H13.86Zm0,1.54H26.48l32.79-16.4,15.07-4.6-.64.83-11.34,4.29L29.05,125.59H13.86Zm0,1.54H29.23l33.42-16.71,10.16-3.84-1.31,1.71-5.81,2.67-33.5,16.75H13.86v-.58Z" transform="translate(-10 -10)"/>
      <path class="cls-1" d="M142.73,134.05H252.51a7.14,7.14,0,0,0,7.13-7.13V17.14A7.14,7.14,0,0,0,252.51,10H142.73a7.14,7.14,0,0,0-7.14,7.14V126.92A7.14,7.14,0,0,0,142.73,134.05Zm113.05-7.13v0H180.57l.87-.58h72.68l-8.83-15.81-2.11-5.8-9.65-7.08L222.84,72l-.58-2.37a2.72,2.72,0,0,0,1.63-1.94l.36,1.5L234.57,94l9.71,7.12,2.31,6.34,9.19,16.47ZM221.26,69.07a1.91,1.91,0,1,1,1.91-1.91A1.92,1.92,0,0,1,221.26,69.07Zm34.52,53.28-8.48-15.18-2.37-6.53-9.73-7.13L225,69l-2.56-10.59L205.1,72.33,193,77.74a2.67,2.67,0,0,0-2.26-1.25,2.69,2.69,0,0,0-1.51,4.91L185.55,89,170,96.08l-6.41,3.82.79,11.94a2.32,2.32,0,1,0,.77-.06l-.76-11.46,6-3.55,15.75-7.2,3.79-7.83a2.69,2.69,0,0,0,3.49-2.56,2.86,2.86,0,0,0-.1-.73L205.5,73,222,59.77l1.38,5.7a2.65,2.65,0,0,0-2.08-1,2.68,2.68,0,0,0-2.68,2.68,2.62,2.62,0,0,0,.37,1.36l-10.87,8.73-13.91,6.22-4.88,10.08-16.49,7.54-4.41,2.63.71,10.81a2.3,2.3,0,1,0,.78,0l-.69-10.36,3.95-2.36,16.72-7.64,4.88-10.08,13.75-6.14,10.95-8.8a2.65,2.65,0,0,0,1.82.72h.25l.59,2.4,10.8,25.94,9.64,7.07,2,5.6,8.23,14.75H182.62l1.17-.77h65.57l-6.08-10.89-1.85-5.07-9.58-7L220.5,74.6l-9.43,7.57-10.53,4.71a2.68,2.68,0,1,0-3.84,3.65L193,98.13l-17.45,8-2.42,1.44.26,4a2.31,2.31,0,1,0,.77-.12L174,108l2-1.17,17.69-8.09,3.77-7.8a2.58,2.58,0,0,0,1,.19A2.69,2.69,0,0,0,201,88.41a2.6,2.6,0,0,0-.14-.84l10.54-4.71,8.76-7,11,26.49,9.57,7,1.77,4.88,5.48,9.82H185l1.17-.77H244.6l-3.33-6L239.69,113l-9.52-7-8.71-20.92a2.68,2.68,0,1,0-3.67-1l-3.73,3-12.42,5.55-4.87,10-18.41,8.42-.43.26.25,3.84a2.31,2.31,0,1,0,.77,0l-.22-3.41,18.62-8.51,4.86-10.05,12.21-5.46,3.85-3.08a2.66,2.66,0,0,0,1.85.74,2.56,2.56,0,0,0,.62-.07l8.8,21.12,9.5,7,1.51,4.15,2.73,4.9h-56l1.17-.78h51.34l-.57-1-1.32-3.61-9.44-6.93L220,89.68,217,92l-9.16,4.1a2.68,2.68,0,1,0-3.74,3.66l-3.62,7.49L185.71,114a2.3,2.3,0,1,0,.59,1.54,2.34,2.34,0,0,0-.17-.88l15-6.84,3.75-7.76a2.74,2.74,0,0,0,.76.11,2.68,2.68,0,0,0,2.68-2.68,2.44,2.44,0,0,0-.1-.71l9.22-4.11,2.25-1.79,8.22,19.74,9.43,6.91,1.23,3.39h-47.4l5.35-.77h38.34l-8-5.87-6-14.39a2.68,2.68,0,1,0-4.06-2.3,2.53,2.53,0,0,0,.11.73l-7.76,3.46-4.85,10-4.36,2a2.29,2.29,0,1,0,.43,1.34,2.32,2.32,0,0,0-.09-.65l4.59-2.1,4.85-10,7.5-3.35a2.69,2.69,0,0,0,2.27,1.25,2.84,2.84,0,0,0,.66-.08l6.08,14.59,6.27,4.6H201.84l5.35-.77h18l-6.24-15-6.13,2.74-2.47,5.12a2.46,2.46,0,0,0-.67-.09,2.29,2.29,0,1,0,1.36.44l2.36-4.88,5.14-2.3,5.49,13.18h-11.5l5.35-.78h3.26l-2.86-6.87-1.72.77-.24.49a1.91,1.91,0,0,0-.48,0,2.29,2.29,0,1,0,1.2.34l.09-.19.74-.33,2.11,5.07h-5.76v.09l-25.48,2.94L173,126.79,161.69,115.5l-1.23-18.59L168,92.44l14.62-6.69.38-.17.18-.37,4.71-9.74,14.95-6.67.13-.07.12-.09,18.82-15.12,1.22,2.24,2.57,10.62,0,.09,0,.08L235.5,90l.12.3.26.19,9.5,7,2.49,6.84,0,.09,0,.08,7.83,14ZM192.63,79.18a1.91,1.91,0,1,1-1.91-1.91A1.92,1.92,0,0,1,192.63,79.18Zm7.63,9.23a1.92,1.92,0,1,1-1.91-1.91A1.92,1.92,0,0,1,200.26,88.41Zm19.86-3.74A1.91,1.91,0,1,1,222,82.76,1.92,1.92,0,0,1,220.12,84.67ZM207.51,97.53a1.91,1.91,0,1,1-1.91-1.91A1.92,1.92,0,0,1,207.51,97.53Zm11.94,2a1.91,1.91,0,1,1,1.91-1.91A1.92,1.92,0,0,1,219.45,99.54ZM170.59,61.87l-3.9-10.65a2.69,2.69,0,1,0-3.74-.81l-4.6,5.15L160,59.38l-4.44,2.76,1.73,15.3L153.13,59l4.22-2.62L156,53.1l6.86-7.67,5.07-2.86,5.54,15.14,9,2.56v9.81L184,71.4l-3.23,1.45L175.86,83l-12.62,5.77-6.08,3.91-.54-.43,5.52-4.37,10.94-5L178,72.71l1-.44v-8Zm-5.37-11A1.91,1.91,0,1,1,167.13,49,1.9,1.9,0,0,1,165.22,50.89Zm-1.63,38.56,12.85-5.87,4.9-10.14,4.09-1.83-2.2-1.88v-10L174,57.08,168.3,41.45l-6,3.37L155.06,53l1.32,3.12-4.13,2.56,4.18,18.62-7.3-21.8L153,53.06l-1.09-2.57,8.71-9.74,7.22-4.07a2.69,2.69,0,0,0,2.12,1,3.31,3.31,0,0,0,.55,0l5.58,15.25,8.77,2.49,1.09,1.49v9.65l4.49,3.86-7.08,3.16-4.9,10.13-13.63,6.23-6.39,3.74-.63-.49ZM168,35A1.91,1.91,0,1,1,170,37,1.92,1.92,0,0,1,168,35Zm-2.86,55.58L179,84.29l4.9-10.13,7.94-3.55-5.15-4.41V56.65l-1.39-1.91-8.65-2.45L171.23,37.4a2.68,2.68,0,1,0-4-2.36,2.61,2.61,0,0,0,.18,1l-7.33,4.13L151,50.34l1,2.41-3.81,2.36,9.16,27.39a2.29,2.29,0,1,0,1.21-.27l-2.23-19.69,4.58-2.85-1.68-4,4.2-4.71a2.7,2.7,0,0,0,1.77.66,2.76,2.76,0,0,0,.77-.11l4,11,8.21,2.32v6.94l-.79.35-4.91,10.16-10.73,4.91L156,91.75l-.49-.38,9-6.91L159.63,66l4.89-3-2-4.7.54-.59,3.5,9.58L174,69.39v2.24l-2.9,6a2.19,2.19,0,0,0-.63-.1,2.3,2.3,0,1,0,1.33.43l3-6.14v-3l-7.57-2.15-3.81-10.42-1.72,1.92,1.92,4.54-4.81,3,4.91,18.47-8.78,6.72-.27-.22V80.26l0-.2-7.34-27.6,2.52-1.56,1.12-.7L150.34,49l-.37-.87L159.91,37l11.39-6.43.95,1.11,6.11,16.67.27.74.75.22L187,51.46l2,2.75v9.35l.54.46,5.92,5.08-9.14,4.08-.51.23-.25.51-4.65,9.61L166.77,90l-.08,0-.07,0-7.25,4.32-.29-.23Zm38.43-27.45,15.33-10.78-6.16-5.25-1.47,1.93-8,2.5-1.82,3.57h-6l-1.89,3.65V63.3l.26.38-1.8-1.55V56.49l2.49-4.82h6l.43-.85,1.25-2.47L209.91,46l.47-.15.3-.39L212.53,43l8.81,7.5-.1.08-17.44,14a2.85,2.85,0,0,0,0-.41A2.32,2.32,0,0,0,203.61,63.17Zm-2.19,3.28-2.81,1.25-.14-.12-.56-4.09V61.76l.24-.46,5.71-.55L206.29,57l4.24-1.33L203,62.37a2.3,2.3,0,1,0-1.56,4.08Zm-3.83.38-1.43-1.23-1.73-2.54V59L196,55.92h6l1.89-3.71,7.9-2.47,1.12-1.48,4.78,4.07L207,59.82l6.73-5.94-8,2.49L203.42,60l-5.77.56-.51,1v1.94Zm26.27-12,.31.56,2.61,10.77-2.61-10.77ZM255.78,113l-5.41-9.69-2.57-7.06-.15-.42,1.28,1,2.85,7.83,4,6.58Zm0-24-1.88-1.38-.29-.69,2.17-.9Zm0-3.81-3.18,1.33.67,1.59,2.51,1.85v1.42l-4.72-3.46-7.29-17.5.67.38,6.15,11.69,3.24-1.35a2.67,2.67,0,0,0,1.95,2Zm0-3.07a1.77,1.77,0,0,1,0-3.38Zm0-4.38a2.68,2.68,0,0,0-2,2.59h0L251,81.45,245,70.19l-2.45-1.42.4,1.67,7.46,17.91,5.35,3.93v1.41l-7.56-5.54L240.4,69.38l-.62-2.57,1.29-2.74,1.05-.61,4.93,2.84,5.14,9.77,3.59-1.5Zm0-4-3.24,1.35-4.91-9.34-5.51-3.17-1.65,1L239,66.72l.7,2.87,7.93,19.06,8.19,6v2.2l-.39-1.06-10-7.34-8.3-19.92-1-4,2.27-4.83,3.74-2.15,6.82,3.93.25-.47,4.59,8.73,2-.84Zm0-5.69-1.64.68-4.94-9.38-.56,1-6.52-3.76-4.33,2.51-2.49,5.29,1,4.32L244.76,89l10,7.32,1,2.85V105l-.11-.25L252.49,96l-9.94-7.28-8.78-21.07-1.33-5.48,3.26-6.92,6.42-3.71,5.46,3.15,1.66-3,6.14,11.67.4-.17Zm0-5.7-.05,0L249.25,50l-2,3.63-5.16-3-7,4-3.48,7.39,1.4,5.77,8.89,21.36,9.92,7.27,3.11,8.55.83,1.86v2.77l-3.3-5.44-2.9-8-9.86-7.23-9.26-22.22-2.25-9.28h1.67L233,50.88l9.09-5.26L246.23,48l2.42-4.47h1.24l5.89,11.19Zm0-9.29-5.42-10.3h-2.17l-2.27,4.18-3.81-2.2-9.69,5.6-3,6.45h-2.16l2.49,10.27,9.36,22.47-1.25-.92-9.58-23L225.67,55l0-.2-.09-.18-.37-.66.68-.64h2.57l.42-.89,2.4-5.11L242.11,41l1.84,1,1.37.8.76-1.4,1.19-2.2h4l4.49,8.53ZM139.45,17.14a3.28,3.28,0,0,1,3.28-3.28H252.51a3.28,3.28,0,0,1,3.27,3.28V44.49l-3.56-6.76h-5.87l-1.63,3-2.61-1.51-12.07,7-2.61,5.54h-2.21l-12.93-11-2.84,3.75-8.28,2.58-1.55,3h-6l-3.1,6v-2.4L188,50.12l-8.15-2.31-6.2-16.93-2-2.29-12.72,7.18-10.77,12,.76,1.78-3.5,2.16-.52-1.63-5.45,4.62Zm0,39.62L144,52.88l7.47,27.78v11.5l.59.47,5.66,4.44L159,116.12l0,.58.41.41,9.83,9.83h-4.5l-7.25-7.24-1.29-19.52-6.29-5v-12L143.18,58l-3.73,3.16Zm0,63.82h.11l-.11-1.58v-5.63l2.6,2,.39,5.94h-3Zm0,1.54h3.82L142.8,115l-3.35-2.63V107l6,4.69.74,11.19h-6.71Zm0,1.54H147l-.81-12.36-6.63-5.2V90.41l-.09-.33V77.69l2.79,10.38v14.78l6.54,5.14,1.09,16.44H139.45Zm0,1.55H150.7l-1.17-17.61L143,102.48V88l-3.57-13.31v-6.1l1.37-1.16,4.9,18.23V99.23l6.43,5,1.27,19.22,2.47,2.48H139.45Zm0,1.54h18.31l-3.59-3.59-1.27-19.27-6.41-5V85.63l-5.24-19.56-1.8,1.53V62.12l3.3-2.8,6.45,24V95.61l6.32,5L156.8,120l6.9,6.9H139.45v-.19Z" transform="translate(-10 -10)"/>
    </g>
  </g>
</svg>
