<svg xmlns="http://www.w3.org/2000/svg" width="32.19" height="32.19" viewBox="0 0 32.19 32.19">
  <g id="yellow">
    <path class="tb-light-01" d="M3.81,2.65H31.2a1.16,1.16,0,0,1,1.15,1.16V20.16l-.42-1-.54-2.24,0-.06,0-.06-.2-.36,0-.05,0,0-2.32-2.73-.4-.46-.36.48-.51.67-1.6.5-.2.07-.1.18-.19.38H24.16L24,15.7l-.14.27-.24-.33-.1-.14-.16,0L21.89,15l-1.22-3.36,0-.08-.06-.07-.42-.48-.26-.31-.35.2-2.69,1.52-.07,0-.06.06-2.28,2.55,0,.06,0-.09-.56.47L9,19.65H7.07l-.14.25L3.22,26.38l-.56.23V3.81A1.15,1.15,0,0,1,3.81,2.65Z" transform="translate(-1.4 -1.4)"/>
  </g>
  <g id="orange">
    <path class="tb-light-02" d="M3.81,32.9H31.19A1.78,1.78,0,0,0,33,31.12V21.66l-1-2.5-.54-2.24,0-.06,0-.06-.2-.36,0-.05,0,0-2.32-2.73-.4-.46-.37.48-.51.67-1.6.5-.19.07-.1.18-.19.38H24.15L24,15.7l-.14.27-.24-.33-.1-.14-.16,0L21.89,15l-1.23-3.36,0-.08-.05-.07-.42-.48-.26-.31-.35.2-2.7,1.52-.07,0-.05.06-2.28,2.55,0,.06,0-.09-.56.47L9,19.65H7.07l-.14.25L3.21,26.38,2,26.86v4.26A1.78,1.78,0,0,0,3.81,32.9Z" transform="translate(-1.4 -1.4)"/>
  </g>
  <g id="Brown">
    <path class="tb-dark-01" d="M31.19,1.4H3.81A2.41,2.41,0,0,0,1.4,3.81V31.19A2.41,2.41,0,0,0,3.81,33.6H31.19a2.41,2.41,0,0,0,2.41-2.41V3.81A2.41,2.41,0,0,0,31.19,1.4ZM3.81,2.65H31.19a1.16,1.16,0,0,1,1.16,1.16V20.16l-.42-1-.54-2.24,0-.06,0-.06-.2-.36,0-.05,0,0-2.32-2.73-.4-.46-.37.48-.51.67-1.6.5-.19.07-.1.18-.19.38H24.15L24,15.7l-.14.27-.24-.33-.1-.14-.16,0L21.89,15l-1.23-3.36,0-.08-.05-.07-.42-.48-.26-.31-.35.2-2.7,1.52-.07,0-.05.06-2.28,2.55,0,.06,0-.09-.56.47L9,19.65H7.07l-.14.25L3.22,26.38l-.57.23V3.81A1.16,1.16,0,0,1,3.81,2.65Zm28.54,22-1.72-4.12-.12-.51a.57.57,0,0,0,.34-.41l.08.32,1.42,3.41Zm-2.06-4.75a.41.41,0,0,1,0-.81.41.41,0,1,1,0,.81Zm.79,0-.54-2.25-3.67,2.95L24.3,21.78a.55.55,0,0,0-.47-.27.57.57,0,0,0-.57.57.56.56,0,0,0,.25.47l-.78,1.61-3.29,1.5-1.35.81L18.26,29a.48.48,0,0,0,.12.95.47.47,0,0,0,.48-.48.48.48,0,0,0-.44-.49l-.16-2.42,1.26-.75,3.33-1.53.8-1.66a.56.56,0,0,0,.74-.54.39.39,0,0,0,0-.15L27,20.77,30.44,18l.29,1.21a.55.55,0,0,0-.44-.21.57.57,0,0,0-.57.57.54.54,0,0,0,.08.28l-2.3,1.85L24.56,23l-1,2.13L20,26.72l-.93.56.15,2.29a.48.48,0,0,0-.39.47.49.49,0,1,0,.55-.48l-.14-2.19.83-.5,3.54-1.62,1-2.14,2.91-1.3L29.91,20a.52.52,0,0,0,.38.15h.06l.12.51,1.88,4.51v1.31l-2.22-5.32-2,1.61-2.23,1a.58.58,0,0,0-.47-.24.57.57,0,0,0-.57.57.59.59,0,0,0,.22.45l-.77,1.6-3.7,1.69-.51.31.05.85a.48.48,0,1,0,.65.46.49.49,0,0,0-.48-.49l0-.73.41-.25,3.75-1.71.8-1.65a.64.64,0,0,0,.2,0A.57.57,0,0,0,26,24a.48.48,0,0,0,0-.18l2.23-1,1.85-1.48,2.29,5.47v1l-.17-.12-1.85-4.43a.57.57,0,1,0-.85-.49.54.54,0,0,0,.08.28l-.79.64-2.63,1.17-1,2.13-3.9,1.78-.09.06.05.81a.48.48,0,0,0-.4.48.49.49,0,1,0,.56-.48l0-.72,3.94-1.8,1-2.13,2.58-1.16.82-.65a.55.55,0,0,0,.39.16l.13,0,1.87,4.47.3.23V29l-.53-.38L30,24.3l-.62.5-1.94.87A.57.57,0,0,0,27,25.4a.56.56,0,0,0-.57.57.55.55,0,0,0,.26.47L25.9,28l-3.14,1.43a.49.49,0,1,0,.13.33.41.41,0,0,0,0-.19L26,28.15l.8-1.64a.41.41,0,0,0,.16,0,.57.57,0,0,0,.56-.57.39.39,0,0,0,0-.15l2-.87.47-.38,1.74,4.18.66.48v.94l-.88-.65L30.2,26.47a.55.55,0,0,0,.28-.48.57.57,0,1,0-1.14,0,.77.77,0,0,0,0,.15l-1.64.74-1,2.12-.92.42a.49.49,0,0,0-.39-.2.48.48,0,0,0-.49.48.49.49,0,1,0,1,0,.59.59,0,0,0,0-.13l1-.45,1-2.12,1.59-.71a.57.57,0,0,0,.48.27l.14,0,1.29,3.09,1,.74v.23H26.18l1.13-.16h3.82l-1.32-3.17-1.3.58L28,28.93l-.15,0a.49.49,0,0,0-.48.49.49.49,0,0,0,1,0,.47.47,0,0,0-.2-.39l.5-1,1.09-.48,1.16,2.78H28.45l1.13-.16h.69l-.61-1.45-.36.16-.05.1h-.1a.49.49,0,0,0-.49.49.48.48,0,0,0,.49.48.47.47,0,0,0,.48-.48A.49.49,0,0,0,29.4,29l0,0,.16-.07L30,30H28.81v0l-5.4.62-3.26,1.53-2.39-2.38-.26-3.86L19,25l3.09-1.41.11-.05.05-.11,1-2L26.41,20l0,0,0,0,3.9-3.14.21.38.54,2.24v.05l1.19,2.85V23Zm-6.85,2.15a.41.41,0,1,1-.81,0,.41.41,0,0,1,.81,0Zm1.62,2a.41.41,0,0,1-.41.4.41.41,0,0,1,0-.81A.41.41,0,0,1,25.85,24Zm4.2-.8a.4.4,0,0,1-.4-.4.41.41,0,0,1,.4-.41.42.42,0,0,1,.41.41A.41.41,0,0,1,30.05,23.24ZM27.38,26a.41.41,0,0,1-.81,0,.41.41,0,1,1,.81,0Zm5,5.29H23.11l.24-.17h9v.1S32.34,31.23,32.34,31.26ZM2.65,30.1l1.26-.51,4.76-5.85H10l2.86-2.42L13.56,24v3.13L15,28.18l.23,3.48H2.75a.14.14,0,0,0,0-.06l.66-.1H14.56l-.17-2.62L13,27.78V24.46l-.46-1.71-2.33,2H9L5,29.41a.52.52,0,0,0-.25-.07.49.49,0,1,0,.49.49.4.4,0,0,0,0-.15l4.72-2.5h.87l.55-.47V29.4l1.46,1.14v.14H8.62l.47-.07h0l1.64-.13a.15.15,0,0,0,.13-.15.13.13,0,0,0,0-.11l0,0v-2h-.49l-.36.64a.47.47,0,0,0-.17,0,.48.48,0,0,0-.49.48.49.49,0,1,0,1,0,.47.47,0,0,0-.18-.37l.32-.56h.23v1.81l-1.56.14-.09,0-6.32.77ZM13,30.45l-1.45-1.13v-3l-.78.66H9.89L5.44,29.37,9.52,26h.41a.58.58,0,0,0,.57.53.58.58,0,0,0,.57-.57.61.61,0,0,0-.1-.33l1.06-.9.06.22v3.65l1.43,1.12L13.6,31H6.53l1-.16H13ZM10.1,26a.4.4,0,0,1,.4-.41.41.41,0,1,1,0,.81A.4.4,0,0,1,10.1,26Zm3.68,5.18-.1-1.5-1.43-1.12V25l-.13-.5-1.27,1.07a.59.59,0,0,0-.35-.12.56.56,0,0,0-.55.45H9.46l-4,3.31L9.1,24.89h1.16L12.44,23l.39,1.43v3.39L14.23,29l.16,2.37H4.44l1-.17Zm1.57.66L15.1,28.1,13.72,27V24L12.94,21l-3,2.55H8.6L3.81,29.45l-1.16.48v-.42l1-.41,4.59-6.5H9a.56.56,0,0,0,.56.54.57.57,0,0,0,.57-.57.55.55,0,0,0-.08-.29l3.17-2.68,1,3.86v2.87l1.36,1.07.27,4.07.52.52H3a1.07,1.07,0,0,1-.14-.16ZM9.2,22.57a.41.41,0,1,1,.4.4A.4.4,0,0,1,9.2,22.57Zm7.65,9.58-.76-.76-.27-4.08-1.36-1.06v-2.8l-1.11-4.14L10,22.15A.59.59,0,0,0,9.6,22a.57.57,0,0,0-.55.43H8.17L3.56,29l-.91.36v-.41l.76-.31,4.42-7.16H9.45l4.22-3.57L15,23v2.61l1.34,1.05.27,4.12,1.59,1.59H3.55a1,1,0,0,1-.38-.17ZM15.28,15.69l-.08-.19,2.1-2.35,2.41-1.36.21.23,1.29,3.53.06.16.16,0,1.61.46.43.58v2l.11.1L24.84,20l-1.94.86-.11.05-.05.11-1,2-3,1.37h0l-1.53.92-.06,0,1.29-.76,2.93-1.34,1-2.14,1.68-.75L23,19.33v-2l-.3-.4-1.83-.52L19.7,13.23a.55.55,0,0,0,.3-.5.57.57,0,0,0-.57-.56.56.56,0,0,0-.57.56.46.46,0,0,0,0,.21l-1.55.88L15.42,16l.21.5-.81.51,1.94,5.79a.5.5,0,0,0-.25.43.49.49,0,1,0,1,0,.48.48,0,0,0-.46-.48l-.47-4.17,1-.61-.36-.84.89-1a.56.56,0,0,0,.38.15.45.45,0,0,0,.16,0l.85,2.32,1.74.49v1.47l-.17.08-1,2.15-2.27,1-1.23,1-.1-.08,1.91-1.46-1-3.9,1-.64-.42-1,.11-.12.74,2,1.57.44v.47l-.62,1.27-.13,0a.49.49,0,0,0-.49.49.49.49,0,0,0,1,0,.5.5,0,0,0-.21-.4l.63-1.3v-.63l-1.6-.46L18,17.22l-.36.41.4,1-1,.63,1,3.92-1.85,1.42-.06,0V22.27l-1.56-5.85.54-.33.23-.14Zm11.28,3,3.24-2.28L28.5,15.3l-.31.41-1.69.52-.39.76H24.85l-.4.77v1l.05.08-.38-.33V17.28l.53-1h1.26l.09-.18.27-.53,1.62-.5.1,0,.06-.09.36-.48L30,16.24,26.59,19a.28.28,0,0,0,0-.09A.49.49,0,0,0,26.56,18.69Zm-.47.7-.59.26,0,0-.12-.87v-.37l0-.09,1.21-.12.51-.79.9-.28-1.6,1.41a.46.46,0,0,0-.3-.11.49.49,0,0,0,0,1Zm-.81.08-.3-.26-.37-.54V17.8l.34-.64h1.26l.4-.79,1.67-.52.24-.32,1,.87L27.28,18l1.42-1.26L27,17.25l-.51.77-1.22.12-.11.21v.41Zm-5.72-1-.82-2.26a.57.57,0,0,0,.25-.47.57.57,0,1,0-1.13,0A.53.53,0,0,0,18,16l-1,1.09.34.81-.94.58.37,3.24-.87-3.9.89-.56-.29-.69,1.45-1.62L19,14.33l1.17,3.21,1.92.54v2.08l.32.27-.68.31-1,2.15L18,24.11l-1.29.83-.12-.09,1.17-.93,2.32-1.06,1-2.15.21-.09v-1.7Zm-1.13-2.33a.41.41,0,1,1,.4-.4A.4.4,0,0,1,18.43,16.09Zm-.35,8.17L20.8,23l1-2.14.87-.39-.47-.4V18l-1.95-.55-1.21-3.31-1.27.72-1.53,1.72.27.66-.87.54.88,3.94L15,17.06l.82-.51L15.61,16l1.84-2.07L19,13.08a.55.55,0,0,0,.45.22h.11l1.19,3.23,1.85.53.23.31v2.05l1,.81-1.5.67-1,2.15-2.89,1.32L17,25.15,16.86,25ZM19,12.73a.41.41,0,1,1,.41.41A.4.4,0,0,1,19,12.73Zm-3.5,9.67v2.43l.13.1,1.2.94.26,4V30l.09.08,2.2,2.21h-.95L16.8,30.66l-.27-4.13L15.2,25.48V22.94l-1.44-5.35-4.37,3.7H7.74L3.3,28.48l-.65.26V27.49l1-.41.1,0,.06-.09,3.7-6.47H9.27l.09-.08,4.58-3.88Zm6.09,9.84.25-.17H31.94a1.17,1.17,0,0,1-.26.17Zm.5-.33.25-.16h9.85l-.11.16Zm.5-.33.25-.16h9.46a.94.94,0,0,1,0,.16Zm1.3-.65,1.14-.16h7.3v.16Zm6-4.54a.41.41,0,1,1,0-.81.41.41,0,0,1,0,.81Z" transform="translate(-1.4 -1.4)"/>
  </g>
</svg>
